<svg id="Capa_1" data-name="Capa 1" xmlns="http://www.w3.org/2000/svg" viewBox="0 0 236.66 42.93"><defs><style>.cls-1{fill:#1d1d1b;}</style></defs><polyline class="cls-1" points="1.04 36 1.04 0 0 0 0 36"/><polyline class="cls-1" points="2.33 36 2.33 0 1.86 0 1.86 36"/><polyline class="cls-1" points="5.41 36 5.41 0 3.81 0 3.81 36"/><polyline class="cls-1" points="9.16 36 9.16 0 7 0 7 36"/><polyline class="cls-1" points="10.52 36 10.52 0 10.04 0 10.04 36"/><polyline class="cls-1" points="12.97 36 12.97 0 11.37 0 11.37 36"/><polyline class="cls-1" points="14.9 36 14.9 0 13.86 0 13.86 36"/><polyline class="cls-1" points="17.45 36 17.45 0 16.98 0 16.98 36"/><polyline class="cls-1" points="19.97 36 19.97 0 19.5 0 19.5 36"/><polyline class="cls-1" points="22.42 36 22.42 0 20.82 0 20.82 36"/><polyline class="cls-1" points="24.35 36 24.35 0 23.31 0 23.31 36"/><polyline class="cls-1" points="25.64 36 25.64 0 25.16 0 25.16 36"/><polyline class="cls-1" points="28.16 36 28.16 0 27.68 0 27.68 36"/><polyline class="cls-1" points="30.02 36 30.02 0 28.98 0 28.98 36"/><polyline class="cls-1" points="33.2 36 33.2 0 32.73 0 32.73 36"/><polyline class="cls-1" points="35.09 36 35.09 0 34.62 0 34.62 36"/><polyline class="cls-1" points="37.54 36 37.54 0 35.95 0 35.95 36"/><polyline class="cls-1" points="40.66 36 40.66 0 38.5 0 38.5 36"/><polyline class="cls-1" points="43.81 36 43.81 0 41.65 0 41.65 36"/><polyline class="cls-1" points="45.17 36 45.17 0 44.7 0 44.7 36"/><polyline class="cls-1" points="47.69 36 47.69 0 47.22 0 47.22 36"/><polyline class="cls-1" points="49.55 36 49.55 0 48.51 0 48.51 36"/><polyline class="cls-1" points="52.07 36 52.07 0 51.03 0 51.03 36"/><polyline class="cls-1" points="53.96 36 53.96 0 52.92 0 52.92 36"/><polyline class="cls-1" points="57.67 36 57.67 0 55.51 0 55.51 36"/><polyline class="cls-1" points="60.22 36 60.22 0 58.62 0 58.62 36"/><polyline class="cls-1" points="61.55 36 61.55 0 61.08 0 61.08 36"/><polyline class="cls-1" points="63.41 36 63.41 0 62.37 0 62.37 36"/><polyline class="cls-1" points="65.96 36 65.96 0 65.48 0 65.48 36"/><polyline class="cls-1" points="67.22 36 67.22 0 66.75 0 66.75 36"/><polyline class="cls-1" points="69.74 36 69.74 0 69.27 0 69.27 36"/><polyline class="cls-1" points="71 36 71 0 70.53 0 70.53 36"/><polyline class="cls-1" points="74.68 36 74.68 0 72.52 0 72.52 36"/><polyline class="cls-1" points="77.27 36 77.27 0 76.23 0 76.23 36"/><polyline class="cls-1" points="79.19 36 79.19 0 78.72 0 78.72 36"/><polyline class="cls-1" points="82.27 36 82.27 0 80.67 0 80.67 36"/><polyline class="cls-1" points="84.2 36 84.2 0 83.16 0 83.16 36"/><polyline class="cls-1" points="86.09 36 86.09 0 85.05 0 85.05 36"/><polyline class="cls-1" points="88.61 36 88.61 0 87.57 0 87.57 36"/><polyline class="cls-1" points="90.53 36 90.53 0 90.06 0 90.06 36"/><polyline class="cls-1" points="93.05 36 93.05 0 92.58 0 92.58 36"/><polyline class="cls-1" points="96.17 36 96.17 0 95.13 0 95.13 36"/><polyline class="cls-1" points="98.06 36 98.06 0 97.02 0 97.02 36"/><polyline class="cls-1" points="100.54 36 100.54 0 98.94 0 98.94 36"/><polyline class="cls-1" points="103.06 36 103.06 0 101.46 0 101.46 36"/><polyline class="cls-1" points="104.99 36 104.99 0 103.95 0 103.95 36"/><polyline class="cls-1" points="107.51 36 107.51 0 106.47 0 106.47 36"/><polyline class="cls-1" points="110.03 36 110.03 0 108.99 0 108.99 36"/><polyline class="cls-1" points="113.11 36 113.11 0 110.95 0 110.95 36"/><polyline class="cls-1" points="114.47 36 114.47 0 114 0 114 36"/><polyline class="cls-1" points="116.92 36 116.92 0 115.32 0 115.32 36"/><polyline class="cls-1" points="118.85 36 118.85 0 117.81 0 117.81 36"/><polyline class="cls-1" points="120.14 36 120.14 0 119.66 0 119.66 36"/><polyline class="cls-1" points="122.66 36 122.66 0 122.19 0 122.19 36"/><polyline class="cls-1" points="125.78 36 125.78 0 124.74 0 124.74 36"/><polyline class="cls-1" points="127.67 36 127.67 0 126.63 0 126.63 36"/><polyline class="cls-1" points="130.19 36 130.19 0 129.15 0 129.15 36"/><polyline class="cls-1" points="132.71 36 132.71 0 131.67 0 131.67 36"/><polyline class="cls-1" points="134.6 36 134.6 0 133.56 0 133.56 36"/><polyline class="cls-1" points="137.12 36 137.12 0 136.08 0 136.08 36"/><polyline class="cls-1" points="139.64 36 139.64 0 138.6 0 138.6 36"/><polyline class="cls-1" points="141.53 36 141.53 0 140.49 0 140.49 36"/><polyline class="cls-1" points="144.05 36 144.05 0 143.01 0 143.01 36"/><polyline class="cls-1" points="146.57 36 146.57 0 145.53 0 145.53 36"/><polyline class="cls-1" points="148.46 36 148.46 0 147.42 0 147.42 36"/><polyline class="cls-1" points="150.98 36 150.98 0 149.94 0 149.94 36"/><polyline class="cls-1" points="152.9 36 152.9 0 152.43 0 152.43 36"/><polyline class="cls-1" points="155.42 36 155.42 0 154.94 0 154.94 36"/><polyline class="cls-1" points="157.91 36 157.91 0 156.87 0 156.87 36"/><polyline class="cls-1" points="160.43 36 160.43 0 159.39 0 159.39 36"/><polyline class="cls-1" points="162.95 36 162.95 0 161.91 0 161.91 36"/><polyline class="cls-1" points="165.47 36 165.47 0 164.43 0 164.43 36"/><polyline class="cls-1" points="166.76 36 166.76 0 166.28 0 166.28 36"/><polyline class="cls-1" points="169.88 36 169.88 0 168.84 0 168.84 36"/><polyline class="cls-1" points="171.17 36 171.17 0 170.69 0 170.69 36"/><polyline class="cls-1" points="174.29 36 174.29 0 173.25 0 173.25 36"/><polyline class="cls-1" points="176.77 36 176.77 0 175.17 0 175.17 36"/><polyline class="cls-1" points="178.73 36 178.73 0 178.25 0 178.25 36"/><polyline class="cls-1" points="182.41 36 182.41 0 180.25 0 180.25 36"/><polyline class="cls-1" points="183.77 36 183.77 0 183.29 0 183.29 36"/><polyline class="cls-1" points="186.22 36 186.22 0 184.62 0 184.62 36"/><polyline class="cls-1" points="187.55 36 187.55 0 187.07 0 187.07 36"/><polyline class="cls-1" points="190.6 36 190.6 0 188.44 0 188.44 36"/><polyline class="cls-1" points="193.22 36 193.22 0 192.74 0 192.74 36"/><polyline class="cls-1" points="195.08 36 195.08 0 194.04 0 194.04 36"/><polyline class="cls-1" points="197 36 197 0 196.53 0 196.53 36"/><polyline class="cls-1" points="200.08 36 200.08 0 198.48 0 198.48 36"/><polyline class="cls-1" points="202.6 36 202.6 0 201 0 201 36"/><polyline class="cls-1" points="204.53 36 204.53 0 203.49 0 203.49 36"/><polyline class="cls-1" points="207.01 36 207.01 0 205.41 0 205.41 36"/><polyline class="cls-1" points="208.34 36 208.34 0 207.86 0 207.86 36"/><polyline class="cls-1" points="210.23 36 210.23 0 209.75 0 209.75 36"/><polyline class="cls-1" points="212.72 36 212.72 0 211.68 0 211.68 36"/><polyline class="cls-1" points="216.46 36 216.46 0 214.86 0 214.86 36"/><polyline class="cls-1" points="219.02 36 219.02 0 217.98 0 217.98 36"/><polyline class="cls-1" points="220.31 36 220.31 0 219.84 0 219.84 36"/><polyline class="cls-1" points="222.2 36 222.2 0 221.72 0 221.72 36"/><polyline class="cls-1" points="224.69 36 224.69 0 223.65 0 223.65 36"/><polyline class="cls-1" points="227.87 36 227.87 0 227.39 0 227.39 36"/><polyline class="cls-1" points="229.73 36 229.73 0 228.69 0 228.69 36"/><polyline class="cls-1" points="233.47 36 233.47 0 231.87 0 231.87 36"/><polyline class="cls-1" points="234.8 36 234.8 0 234.32 0 234.32 36"/><polyline class="cls-1" points="236.66 36 236.66 0 235.62 0 235.62 36"/><path class="cls-1" d="M24.36,42.93H23.8a5.48,5.48,0,0,1-.68-1.4,4.55,4.55,0,0,1-.24-1.42,4.5,4.5,0,0,1,.29-1.6,5.58,5.58,0,0,1,.64-1.21h.56a8.69,8.69,0,0,0-.55,1.51,5.71,5.71,0,0,0-.06,2.31,6.94,6.94,0,0,0,.24,1C24.07,42.27,24.19,42.56,24.36,42.93Z"/><path class="cls-1" d="M26.43,41.67V40.8H24.68v-.72l1.86-2.72h.69v2.72h.53v.72h-.53v.87Zm0-1.59V38.61l-1,1.47Z"/><path class="cls-1" d="M30.26,41.67h-.82v-3.1a2.75,2.75,0,0,1-1.06.62v-.75a2.45,2.45,0,0,0,.7-.4,1.54,1.54,0,0,0,.52-.68h.66Z"/><path class="cls-1" d="M31.51,40.56l.82-.08a.7.7,0,0,0,.2.44.57.57,0,0,0,.84-.05,1,1,0,0,0,.18-.63.85.85,0,0,0-.18-.59.6.6,0,0,0-.46-.2.87.87,0,0,0-.64.31l-.66-.09L32,37.43H34.2v.77H32.65l-.13.73a1.27,1.27,0,0,1,.56-.13,1.24,1.24,0,0,1,.93.39,1.42,1.42,0,0,1,.38,1,1.55,1.55,0,0,1-.3.94,1.37,1.37,0,0,1-1.17.57,1.42,1.42,0,0,1-1-.32A1.27,1.27,0,0,1,31.51,40.56Z"/><path class="cls-1" d="M34.78,42.93c.16-.35.27-.61.34-.8a4.14,4.14,0,0,0,.18-.64,6.38,6.38,0,0,0,.13-.69,4.92,4.92,0,0,0,0-.67,5.68,5.68,0,0,0-.15-1.32,8.69,8.69,0,0,0-.55-1.51h.56A5.17,5.17,0,0,1,36,38.64a4.42,4.42,0,0,1,.24,1.43,4.82,4.82,0,0,1-.19,1.31,5.7,5.7,0,0,1-.72,1.55Z"/><path class="cls-1" d="M36.83,38.2v-.77h2.81V38a4.7,4.7,0,0,0-.7,1,5.61,5.61,0,0,0-.55,1.37,5,5,0,0,0-.19,1.29h-.79a5.5,5.5,0,0,1,.36-1.82,6.18,6.18,0,0,1,.93-1.65Z"/><path class="cls-1" d="M40.17,38.2v-.77H43V38a4.7,4.7,0,0,0-.71,1,6,6,0,0,0-.55,1.37,5.38,5.38,0,0,0-.18,1.29h-.8a5.79,5.79,0,0,1,.37-1.82A5.92,5.92,0,0,1,42,38.2Z"/><path class="cls-1" d="M44.89,37.36a1.16,1.16,0,0,1,1,.44,2.85,2.85,0,0,1,.42,1.75,2.85,2.85,0,0,1-.42,1.75,1.16,1.16,0,0,1-1,.44,1.25,1.25,0,0,1-1-.48,2.89,2.89,0,0,1-.38-1.72,2.81,2.81,0,0,1,.42-1.74A1.15,1.15,0,0,1,44.89,37.36Zm0,.68a.43.43,0,0,0-.26.09.64.64,0,0,0-.18.35,4.41,4.41,0,0,0-.09,1.07,4.7,4.7,0,0,0,.08,1,.74.74,0,0,0,.19.38.43.43,0,0,0,.26.09.39.39,0,0,0,.27-.1.57.57,0,0,0,.18-.34,4.41,4.41,0,0,0,.09-1.07,4.7,4.7,0,0,0-.08-1,.74.74,0,0,0-.19-.38A.44.44,0,0,0,44.89,38Z"/><path class="cls-1" d="M46.86,40.68l.79-.09a.55.55,0,0,0,.16.36.44.44,0,0,0,.32.12.51.51,0,0,0,.43-.24,2,2,0,0,0,.23-1,1,1,0,0,1-.77.36,1.18,1.18,0,0,1-.88-.39,1.44,1.44,0,0,1-.36-1,1.41,1.41,0,0,1,.38-1.05,1.31,1.31,0,0,1,1-.4,1.29,1.29,0,0,1,1.07.5,2.61,2.61,0,0,1,.42,1.66,2.63,2.63,0,0,1-.43,1.7,1.41,1.41,0,0,1-1.14.53,1.17,1.17,0,0,1-.81-.27A1.3,1.3,0,0,1,46.86,40.68Zm1.86-1.8a1,1,0,0,0-.18-.62.55.55,0,0,0-.43-.22.48.48,0,0,0-.38.18,1.21,1.21,0,0,0,0,1.2.51.51,0,0,0,.41.2.53.53,0,0,0,.4-.19A.82.82,0,0,0,48.72,38.88Z"/><path class="cls-1" d="M50.19,40.68l.8-.09a.6.6,0,0,0,.15.36.45.45,0,0,0,.33.12.52.52,0,0,0,.43-.24,2,2,0,0,0,.23-1,1,1,0,0,1-.78.36,1.16,1.16,0,0,1-.87-.39,1.6,1.6,0,0,1,0-2.07,1.41,1.41,0,0,1,2.06.1A2.61,2.61,0,0,1,53,39.52a2.63,2.63,0,0,1-.44,1.7,1.41,1.41,0,0,1-1.13.53,1.21,1.21,0,0,1-.82-.27A1.36,1.36,0,0,1,50.19,40.68Zm1.87-1.8a1,1,0,0,0-.18-.62.55.55,0,0,0-.43-.22.48.48,0,0,0-.38.18,1.24,1.24,0,0,0,0,1.2.53.53,0,0,0,.41.2.51.51,0,0,0,.4-.19A.82.82,0,0,0,52.06,38.88Z"/><path class="cls-1" d="M53.53,40.68l.8-.09a.6.6,0,0,0,.15.36.44.44,0,0,0,.32.12.54.54,0,0,0,.44-.24,2.07,2.07,0,0,0,.23-1,1,1,0,0,1-.78.36,1.14,1.14,0,0,1-.87-.39,1.6,1.6,0,0,1,0-2.07,1.41,1.41,0,0,1,2.06.1,2.61,2.61,0,0,1,.42,1.66,2.63,2.63,0,0,1-.44,1.7,1.41,1.41,0,0,1-1.14.53,1.2,1.2,0,0,1-.81-.27A1.3,1.3,0,0,1,53.53,40.68Zm1.86-1.8a1,1,0,0,0-.18-.62.52.52,0,0,0-.42-.22.48.48,0,0,0-.38.18,1.24,1.24,0,0,0,0,1.2.52.52,0,0,0,.81,0A.82.82,0,0,0,55.39,38.88Z"/><path class="cls-1" d="M57.56,39.35a.94.94,0,0,1-.47-.37,1.08,1.08,0,0,1,.19-1.31,1.63,1.63,0,0,1,1.91,0,1,1,0,0,1,.34.79,1,1,0,0,1-.16.54,1,1,0,0,1-.44.35,1.25,1.25,0,0,1,.55.42,1.14,1.14,0,0,1,.18.64,1.25,1.25,0,0,1-.38,1,1.37,1.37,0,0,1-1,.38,1.54,1.54,0,0,1-1-.31,1.2,1.2,0,0,1-.46-1A1.3,1.3,0,0,1,57,39.8,1.19,1.19,0,0,1,57.56,39.35Zm.09,1a.77.77,0,0,0,.17.53.58.58,0,0,0,.44.19.54.54,0,0,0,.42-.18.77.77,0,0,0,.17-.53.69.69,0,0,0-.17-.48.56.56,0,0,0-.43-.19.52.52,0,0,0-.45.21A.76.76,0,0,0,57.65,40.36Zm.08-1.84a.51.51,0,0,0,.14.39.49.49,0,0,0,.37.13.51.51,0,0,0,.37-.13.52.52,0,0,0,.14-.39.48.48,0,0,0-.14-.37.5.5,0,0,0-.37-.14.51.51,0,0,0-.37.14A.48.48,0,0,0,57.73,38.52Z"/><path class="cls-1" d="M61.58,37.36a1.15,1.15,0,0,1,1,.44A2.85,2.85,0,0,1,63,39.55a2.85,2.85,0,0,1-.42,1.75,1.15,1.15,0,0,1-1,.44,1.22,1.22,0,0,1-1-.48,2.8,2.8,0,0,1-.39-1.72,2.74,2.74,0,0,1,.43-1.74A1.14,1.14,0,0,1,61.58,37.36Zm0,.68a.44.44,0,0,0-.27.09.64.64,0,0,0-.18.35,4.54,4.54,0,0,0-.08,1.07,4.89,4.89,0,0,0,.07,1,.83.83,0,0,0,.19.38.44.44,0,0,0,.27.09.39.39,0,0,0,.27-.1.71.71,0,0,0,.18-.34,5.17,5.17,0,0,0,.08-1.07,4.89,4.89,0,0,0-.07-1,.83.83,0,0,0-.2-.38A.39.39,0,0,0,61.58,38Z"/><path class="cls-1" d="M65.63,41.67h-.82v-3.1a2.79,2.79,0,0,1-1.07.62v-.75a2.21,2.21,0,0,0,.7-.4,1.41,1.41,0,0,0,.52-.68h.67Z"/><path class="cls-1" d="M66.86,38.2v-.77h2.82V38A4.36,4.36,0,0,0,69,39a5.61,5.61,0,0,0-.55,1.37,5,5,0,0,0-.19,1.29h-.79a5.5,5.5,0,0,1,.36-1.82,6.47,6.47,0,0,1,.93-1.65Z"/><path class="cls-1" d="M70.2,38.2v-.77H73V38a5.09,5.09,0,0,0-.71,1,5.59,5.59,0,0,0-.54,1.37,5,5,0,0,0-.19,1.29h-.79a5.5,5.5,0,0,1,.36-1.82,6.18,6.18,0,0,1,.93-1.65Z"/><path class="cls-1" d="M75.15,41.67V40.8H73.39v-.72l1.86-2.72H76v2.72h.53v.72H76v.87Zm0-1.59V38.61l-1,1.47Z"/><path class="cls-1" d="M78.26,37.36a1.17,1.17,0,0,1,1,.44,2.85,2.85,0,0,1,.42,1.75,2.85,2.85,0,0,1-.42,1.75,1.17,1.17,0,0,1-1,.44,1.25,1.25,0,0,1-1-.48,2.89,2.89,0,0,1-.38-1.72,2.81,2.81,0,0,1,.42-1.74A1.15,1.15,0,0,1,78.26,37.36Zm0,.68a.39.39,0,0,0-.26.09.71.71,0,0,0-.19.35,5.17,5.17,0,0,0-.08,1.07,4.7,4.7,0,0,0,.08,1A.74.74,0,0,0,78,41a.42.42,0,0,0,.53,0,.57.57,0,0,0,.18-.34,4.41,4.41,0,0,0,.09-1.07,4.7,4.7,0,0,0-.08-1,.74.74,0,0,0-.19-.38A.44.44,0,0,0,78.26,38Z"/><path class="cls-1" d="M81.75,42.93h-.57a6.23,6.23,0,0,1-.68-1.4,4.84,4.84,0,0,1-.23-1.42,4.29,4.29,0,0,1,.29-1.6,5.18,5.18,0,0,1,.64-1.21h.56a8.69,8.69,0,0,0-.55,1.51,5.51,5.51,0,0,0-.07,2.31,7,7,0,0,0,.25,1C81.46,42.27,81.58,42.56,81.75,42.93Z"/><path class="cls-1" d="M82.91,39.35a.94.94,0,0,1-.61-.89,1,1,0,0,1,.34-.79,1.61,1.61,0,0,1,1.9,0,1,1,0,0,1,.34.79,1,1,0,0,1-.15.54,1,1,0,0,1-.44.35,1.16,1.16,0,0,1,.54.42,1.07,1.07,0,0,1,.19.64,1.29,1.29,0,0,1-.38,1,1.37,1.37,0,0,1-1,.38,1.57,1.57,0,0,1-1-.31,1.22,1.22,0,0,1-.45-1,1.2,1.2,0,0,1,.17-.64A1.11,1.11,0,0,1,82.91,39.35Zm.1,1a.72.72,0,0,0,.17.53.56.56,0,0,0,.44.19A.54.54,0,0,0,84,40.9a.77.77,0,0,0,.17-.53.69.69,0,0,0-.17-.48.56.56,0,0,0-.44-.19.52.52,0,0,0-.45.21A.75.75,0,0,0,83,40.36Zm.07-1.84a.55.55,0,0,0,.14.39.51.51,0,0,0,.37.13.53.53,0,0,0,.38-.13.56.56,0,0,0,.14-.39A.48.48,0,0,0,83.6,38a.54.54,0,0,0-.38.14A.51.51,0,0,0,83.08,38.52Z"/><path class="cls-1" d="M86.94,37.36a1.15,1.15,0,0,1,1,.44,2.85,2.85,0,0,1,.42,1.75,2.85,2.85,0,0,1-.42,1.75,1.15,1.15,0,0,1-1,.44,1.25,1.25,0,0,1-1-.48,2.89,2.89,0,0,1-.38-1.72A2.81,2.81,0,0,1,86,37.8,1.17,1.17,0,0,1,86.94,37.36Zm0,.68a.44.44,0,0,0-.27.09.64.64,0,0,0-.18.35,4.41,4.41,0,0,0-.09,1.07,4.7,4.7,0,0,0,.08,1,.74.74,0,0,0,.19.38.44.44,0,0,0,.27.09.37.37,0,0,0,.26-.1.57.57,0,0,0,.18-.34,4.41,4.41,0,0,0,.09-1.07,4.7,4.7,0,0,0-.08-1,.74.74,0,0,0-.19-.38A.41.41,0,0,0,86.94,38Z"/><path class="cls-1" d="M91.66,40.9v.77H88.78a1.91,1.91,0,0,1,.28-.82,5.24,5.24,0,0,1,.92-1,5.22,5.22,0,0,0,.68-.71.84.84,0,0,0,.17-.5.57.57,0,0,0-1-.42.86.86,0,0,0-.18.52l-.82-.08a1.34,1.34,0,0,1,.46-1,1.6,1.6,0,0,1,1-.29,1.41,1.41,0,0,1,1,.34,1.13,1.13,0,0,1,.36.85,1.42,1.42,0,0,1-.1.55,2.17,2.17,0,0,1-.33.55,5.16,5.16,0,0,1-.54.55c-.26.24-.43.4-.5.48a1.53,1.53,0,0,0-.16.22Z"/><path class="cls-1" d="M93.61,37.36a1.14,1.14,0,0,1,1,.44A2.85,2.85,0,0,1,95,39.55a2.85,2.85,0,0,1-.42,1.75,1.14,1.14,0,0,1-1,.44,1.22,1.22,0,0,1-1-.48,2.81,2.81,0,0,1-.38-1.72,2.81,2.81,0,0,1,.42-1.74A1.14,1.14,0,0,1,93.61,37.36Zm0,.68a.44.44,0,0,0-.27.09.64.64,0,0,0-.18.35,4.54,4.54,0,0,0-.08,1.07,4.89,4.89,0,0,0,.07,1,.83.83,0,0,0,.19.38.44.44,0,0,0,.27.09.39.39,0,0,0,.27-.1.71.71,0,0,0,.18-.34,5.17,5.17,0,0,0,.08-1.07,4.89,4.89,0,0,0-.07-1,.83.83,0,0,0-.19-.38A.44.44,0,0,0,93.61,38Z"/><path class="cls-1" d="M95.5,42.93a8.34,8.34,0,0,0,.34-.8,5.56,5.56,0,0,0,.19-.64,4.55,4.55,0,0,0,.12-.69,4.91,4.91,0,0,0,0-.67,5.68,5.68,0,0,0-.15-1.32,9.61,9.61,0,0,0-.55-1.51h.55a5.17,5.17,0,0,1,.69,1.34A4.44,4.44,0,0,1,97,40.07a4.85,4.85,0,0,1-.2,1.31,5.16,5.16,0,0,1-.72,1.55Z"/><path class="cls-1" d="M98.94,37.36a1.16,1.16,0,0,1,1,.44,2.85,2.85,0,0,1,.42,1.75,2.85,2.85,0,0,1-.42,1.75,1.17,1.17,0,0,1-1,.44,1.25,1.25,0,0,1-1-.48,2.89,2.89,0,0,1-.38-1.72A2.81,2.81,0,0,1,98,37.8,1.15,1.15,0,0,1,98.94,37.36Zm0,.68a.41.41,0,0,0-.26.09.64.64,0,0,0-.18.35,4.41,4.41,0,0,0-.09,1.07,4.7,4.7,0,0,0,.08,1,.74.74,0,0,0,.19.38.41.41,0,0,0,.26.09.39.39,0,0,0,.27-.1.57.57,0,0,0,.18-.34,4.41,4.41,0,0,0,.09-1.07,4.7,4.7,0,0,0-.08-1,.74.74,0,0,0-.19-.38A.44.44,0,0,0,98.94,38Z"/><path class="cls-1" d="M102.28,37.36a1.17,1.17,0,0,1,1,.44,2.85,2.85,0,0,1,.42,1.75,2.77,2.77,0,0,1-.43,1.75,1.14,1.14,0,0,1-1,.44,1.23,1.23,0,0,1-1-.48,2.81,2.81,0,0,1-.38-1.72,2.81,2.81,0,0,1,.42-1.74A1.15,1.15,0,0,1,102.28,37.36Zm0,.68a.44.44,0,0,0-.27.09.81.81,0,0,0-.18.35,5.17,5.17,0,0,0-.08,1.07,4.89,4.89,0,0,0,.07,1,.83.83,0,0,0,.2.38.42.42,0,0,0,.53,0,.57.57,0,0,0,.18-.34,4.54,4.54,0,0,0,.08-1.07,4.89,4.89,0,0,0-.07-1,.83.83,0,0,0-.19-.38A.44.44,0,0,0,102.28,38Z"/><path class="cls-1" d="M104.2,40.53l.79-.1a.79.79,0,0,0,.21.47.55.55,0,0,0,.4.16.54.54,0,0,0,.43-.19.76.76,0,0,0,.18-.53.71.71,0,0,0-.17-.49.54.54,0,0,0-.41-.18,1.54,1.54,0,0,0-.38.06l.1-.67a.72.72,0,0,0,.51-.14.55.55,0,0,0,.17-.41.46.46,0,0,0-.13-.35.48.48,0,0,0-.34-.13.49.49,0,0,0-.36.15.68.68,0,0,0-.18.43l-.76-.13a1.55,1.55,0,0,1,.24-.62,1,1,0,0,1,.44-.37,1.5,1.5,0,0,1,.64-.13,1.28,1.28,0,0,1,1,.38,1,1,0,0,1,.31.72,1,1,0,0,1-.62.9,1,1,0,0,1,.59.35,1,1,0,0,1,.22.67,1.28,1.28,0,0,1-.41,1,1.42,1.42,0,0,1-1,.4,1.44,1.44,0,0,1-1-.33A1.36,1.36,0,0,1,104.2,40.53Z"/><path class="cls-1" d="M107.57,40.56l.82-.08a.76.76,0,0,0,.21.44.57.57,0,0,0,.84-.05,1,1,0,0,0,.18-.63.85.85,0,0,0-.18-.59.6.6,0,0,0-.46-.2.87.87,0,0,0-.64.31l-.67-.09.43-2.24h2.17v.77h-1.55l-.13.73a1.27,1.27,0,0,1,.56-.13,1.24,1.24,0,0,1,.93.39,1.42,1.42,0,0,1,.38,1,1.55,1.55,0,0,1-.3.94,1.37,1.37,0,0,1-1.17.57,1.42,1.42,0,0,1-1-.32A1.32,1.32,0,0,1,107.57,40.56Z"/><path class="cls-1" d="M110.91,40.56l.82-.08a.7.7,0,0,0,.21.44.55.55,0,0,0,.4.16.56.56,0,0,0,.44-.21,1,1,0,0,0,.17-.63.9.9,0,0,0-.17-.59.62.62,0,0,0-.47-.2.87.87,0,0,0-.63.31l-.67-.09.42-2.24h2.18v.77h-1.55l-.13.73a1.29,1.29,0,0,1,1.49.26,1.46,1.46,0,0,1,.38,1,1.5,1.5,0,0,1-.31.94,1.35,1.35,0,0,1-1.16.57,1.4,1.4,0,0,1-1-.32A1.32,1.32,0,0,1,110.91,40.56Z"/><path class="cls-1" d="M114.21,40.53l.79-.1a.79.79,0,0,0,.21.47.55.55,0,0,0,.4.16.54.54,0,0,0,.43-.19.76.76,0,0,0,.18-.53.71.71,0,0,0-.17-.49.54.54,0,0,0-.41-.18,1.41,1.41,0,0,0-.37.06l.09-.67a.72.72,0,0,0,.51-.14.55.55,0,0,0,.17-.41.46.46,0,0,0-.13-.35.48.48,0,0,0-.34-.13.49.49,0,0,0-.36.15.68.68,0,0,0-.18.43l-.76-.13a1.55,1.55,0,0,1,.24-.62,1,1,0,0,1,.44-.37,1.5,1.5,0,0,1,.64-.13,1.32,1.32,0,0,1,1,.38,1,1,0,0,1-.32,1.62,1,1,0,0,1,.59.35,1,1,0,0,1,.22.67,1.28,1.28,0,0,1-.41,1,1.42,1.42,0,0,1-1,.4,1.44,1.44,0,0,1-1-.33A1.36,1.36,0,0,1,114.21,40.53Z"/><path class="cls-1" d="M119,37.36a1.15,1.15,0,0,1,1,.44,2.85,2.85,0,0,1,.42,1.75,2.85,2.85,0,0,1-.42,1.75,1.15,1.15,0,0,1-1,.44,1.22,1.22,0,0,1-1-.48,2.8,2.8,0,0,1-.39-1.72A2.81,2.81,0,0,1,118,37.8,1.16,1.16,0,0,1,119,37.36Zm0,.68a.44.44,0,0,0-.27.09.64.64,0,0,0-.18.35,4.41,4.41,0,0,0-.09,1.07,4.7,4.7,0,0,0,.08,1,.74.74,0,0,0,.19.38.44.44,0,0,0,.27.09.39.39,0,0,0,.26-.1.57.57,0,0,0,.18-.34,4.41,4.41,0,0,0,.09-1.07,4.7,4.7,0,0,0-.08-1,.74.74,0,0,0-.19-.38A.43.43,0,0,0,119,38Z"/><path class="cls-1" d="M123.69,40.9v.77H120.8a2.07,2.07,0,0,1,.29-.82,5.24,5.24,0,0,1,.92-1,6.4,6.4,0,0,0,.69-.71.91.91,0,0,0,.17-.5.61.61,0,0,0-.15-.42.64.64,0,0,0-.82,0,.86.86,0,0,0-.18.52l-.82-.08a1.34,1.34,0,0,1,.46-1,1.6,1.6,0,0,1,1-.29,1.39,1.39,0,0,1,1,.34,1.13,1.13,0,0,1,.36.85,1.42,1.42,0,0,1-.1.55,2.17,2.17,0,0,1-.33.55,5.16,5.16,0,0,1-.54.55c-.26.24-.43.4-.5.48a1,1,0,0,0-.16.22Z"/><path class="cls-1" d="M125.79,42.93h-.57a5.83,5.83,0,0,1-.68-1.4,4.84,4.84,0,0,1-.23-1.42,4.29,4.29,0,0,1,.29-1.6,5.55,5.55,0,0,1,.63-1.21h.57a9.8,9.8,0,0,0-.56,1.51,5.71,5.71,0,0,0-.06,2.31,5.75,5.75,0,0,0,.25,1C125.5,42.27,125.62,42.56,125.79,42.93Z"/><path class="cls-1" d="M126.22,40.53l.79-.1a.79.79,0,0,0,.21.47.55.55,0,0,0,.4.16.54.54,0,0,0,.43-.19.76.76,0,0,0,.18-.53.71.71,0,0,0-.17-.49.54.54,0,0,0-.41-.18,1.54,1.54,0,0,0-.38.06l.1-.67a.72.72,0,0,0,.51-.14.55.55,0,0,0,.17-.41.46.46,0,0,0-.13-.35.48.48,0,0,0-.34-.13.49.49,0,0,0-.36.15.68.68,0,0,0-.18.43l-.76-.13a1.55,1.55,0,0,1,.24-.62,1,1,0,0,1,.44-.37,1.5,1.5,0,0,1,.64-.13,1.28,1.28,0,0,1,1,.38,1,1,0,0,1,.31.72,1,1,0,0,1-.62.9,1,1,0,0,1,.59.35,1,1,0,0,1,.22.67,1.28,1.28,0,0,1-.41,1,1.42,1.42,0,0,1-1,.4,1.44,1.44,0,0,1-1-.33A1.36,1.36,0,0,1,126.22,40.53Z"/><path class="cls-1" d="M129.6,40.68l.8-.09a.6.6,0,0,0,.15.36.45.45,0,0,0,.33.12.52.52,0,0,0,.43-.24,2.07,2.07,0,0,0,.23-1,1,1,0,0,1-.78.36,1.14,1.14,0,0,1-.87-.39,1.6,1.6,0,0,1,0-2.07,1.27,1.27,0,0,1,1-.4,1.33,1.33,0,0,1,1.08.5,2.61,2.61,0,0,1,.42,1.66,2.63,2.63,0,0,1-.44,1.7,1.41,1.41,0,0,1-1.14.53,1.2,1.2,0,0,1-.81-.27A1.3,1.3,0,0,1,129.6,40.68Zm1.86-1.8a1,1,0,0,0-.18-.62.52.52,0,0,0-.42-.22.48.48,0,0,0-.38.18,1.24,1.24,0,0,0,0,1.2.52.52,0,0,0,.81,0A.82.82,0,0,0,131.46,38.88Z"/><path class="cls-1" d="M134.31,37.36a1.17,1.17,0,0,1,1,.44,2.85,2.85,0,0,1,.42,1.75,2.84,2.84,0,0,1-.43,1.75,1.14,1.14,0,0,1-1,.44,1.23,1.23,0,0,1-1-.48,2.89,2.89,0,0,1-.38-1.72,2.81,2.81,0,0,1,.42-1.74A1.14,1.14,0,0,1,134.31,37.36Zm0,.68a.39.39,0,0,0-.26.09.71.71,0,0,0-.19.35,5.17,5.17,0,0,0-.08,1.07,4.89,4.89,0,0,0,.07,1,.74.74,0,0,0,.2.38.42.42,0,0,0,.53,0,.57.57,0,0,0,.18-.34,4.54,4.54,0,0,0,.08-1.07,4.89,4.89,0,0,0-.07-1,.83.83,0,0,0-.19-.38A.44.44,0,0,0,134.31,38Z"/><path class="cls-1" d="M137.65,37.36a1.15,1.15,0,0,1,1,.44,2.85,2.85,0,0,1,.42,1.75,2.85,2.85,0,0,1-.42,1.75,1.15,1.15,0,0,1-1,.44,1.22,1.22,0,0,1-1-.48,2.8,2.8,0,0,1-.39-1.72,2.74,2.74,0,0,1,.43-1.74A1.14,1.14,0,0,1,137.65,37.36Zm0,.68a.44.44,0,0,0-.27.09.64.64,0,0,0-.18.35,4.54,4.54,0,0,0-.08,1.07,4.89,4.89,0,0,0,.07,1,.74.74,0,0,0,.19.38.44.44,0,0,0,.27.09.35.35,0,0,0,.26-.1.63.63,0,0,0,.19-.34,5.17,5.17,0,0,0,.08-1.07,4.89,4.89,0,0,0-.07-1,.83.83,0,0,0-.2-.38A.39.39,0,0,0,137.65,38Z"/><path class="cls-1" d="M139.54,42.93a8.34,8.34,0,0,0,.34-.8,5.56,5.56,0,0,0,.19-.64,4.55,4.55,0,0,0,.12-.69,4.92,4.92,0,0,0,0-.67,5.68,5.68,0,0,0-.14-1.32,9.61,9.61,0,0,0-.55-1.51h.55a5.17,5.17,0,0,1,.69,1.34,4.44,4.44,0,0,1,.25,1.43,4.85,4.85,0,0,1-.2,1.31,5.16,5.16,0,0,1-.72,1.55Z"/><path class="cls-1" d="M143,37.36a1.17,1.17,0,0,1,1,.44,2.85,2.85,0,0,1,.42,1.75A2.85,2.85,0,0,1,144,41.3a1.17,1.17,0,0,1-1,.44,1.23,1.23,0,0,1-1-.48,2.89,2.89,0,0,1-.38-1.72A2.81,2.81,0,0,1,142,37.8,1.15,1.15,0,0,1,143,37.36Zm0,.68a.41.41,0,0,0-.26.09.64.64,0,0,0-.18.35,4.41,4.41,0,0,0-.09,1.07,4.15,4.15,0,0,0,.08,1,.74.74,0,0,0,.19.38.41.41,0,0,0,.26.09.39.39,0,0,0,.27-.1.57.57,0,0,0,.18-.34,4.41,4.41,0,0,0,.09-1.07,4.7,4.7,0,0,0-.08-1,.83.83,0,0,0-.19-.38A.44.44,0,0,0,143,38Z"/><path class="cls-1" d="M146.32,37.36a1.17,1.17,0,0,1,1,.44,2.92,2.92,0,0,1,.42,1.75,2.84,2.84,0,0,1-.43,1.75,1.14,1.14,0,0,1-1,.44,1.22,1.22,0,0,1-1-.48,2.81,2.81,0,0,1-.38-1.72,2.81,2.81,0,0,1,.42-1.74A1.14,1.14,0,0,1,146.32,37.36Zm0,.68a.44.44,0,0,0-.27.09.64.64,0,0,0-.18.35,4.54,4.54,0,0,0-.08,1.07,4.89,4.89,0,0,0,.07,1,.83.83,0,0,0,.19.38.44.44,0,0,0,.27.09.39.39,0,0,0,.27-.1.71.71,0,0,0,.18-.34,5.17,5.17,0,0,0,.08-1.07,4.89,4.89,0,0,0-.07-1,.83.83,0,0,0-.19-.38A.44.44,0,0,0,146.32,38Z"/><path class="cls-1" d="M149.66,37.36a1.15,1.15,0,0,1,1,.44,2.85,2.85,0,0,1,.42,1.75,2.85,2.85,0,0,1-.42,1.75,1.15,1.15,0,0,1-1,.44,1.22,1.22,0,0,1-1-.48,2.8,2.8,0,0,1-.39-1.72,2.81,2.81,0,0,1,.42-1.74A1.17,1.17,0,0,1,149.66,37.36Zm0,.68a.44.44,0,0,0-.27.09.64.64,0,0,0-.18.35,4.41,4.41,0,0,0-.09,1.07,4.7,4.7,0,0,0,.08,1,.74.74,0,0,0,.19.38.44.44,0,0,0,.27.09.35.35,0,0,0,.26-.1.63.63,0,0,0,.19-.34,5.17,5.17,0,0,0,.08-1.07,4.7,4.7,0,0,0-.08-1,.74.74,0,0,0-.19-.38A.41.41,0,0,0,149.66,38Z"/><path class="cls-1" d="M153,37.36a1.17,1.17,0,0,1,1,.44,2.85,2.85,0,0,1,.42,1.75A2.85,2.85,0,0,1,154,41.3a1.17,1.17,0,0,1-1,.44,1.25,1.25,0,0,1-1-.48,2.89,2.89,0,0,1-.38-1.72A2.81,2.81,0,0,1,152,37.8,1.15,1.15,0,0,1,153,37.36Zm0,.68a.39.39,0,0,0-.26.09.64.64,0,0,0-.18.35,4.41,4.41,0,0,0-.09,1.07,4.7,4.7,0,0,0,.08,1,.74.74,0,0,0,.19.38.42.42,0,0,0,.53,0,.57.57,0,0,0,.18-.34,4.41,4.41,0,0,0,.09-1.07,4.7,4.7,0,0,0-.08-1,.74.74,0,0,0-.19-.38A.44.44,0,0,0,153,38Z"/><path class="cls-1" d="M156.33,37.36a1.17,1.17,0,0,1,1,.44,2.85,2.85,0,0,1,.41,1.75,2.85,2.85,0,0,1-.42,1.75,1.14,1.14,0,0,1-1,.44,1.23,1.23,0,0,1-1-.48,2.81,2.81,0,0,1-.38-1.72,2.81,2.81,0,0,1,.42-1.74A1.14,1.14,0,0,1,156.33,37.36Zm0,.68a.44.44,0,0,0-.27.09.81.81,0,0,0-.18.35,5.17,5.17,0,0,0-.08,1.07,4.89,4.89,0,0,0,.07,1,.83.83,0,0,0,.19.38.44.44,0,0,0,.27.09.39.39,0,0,0,.27-.1.57.57,0,0,0,.18-.34,4.54,4.54,0,0,0,.08-1.07,4.89,4.89,0,0,0-.07-1,.83.83,0,0,0-.19-.38A.44.44,0,0,0,156.33,38Z"/><path class="cls-1" d="M159.67,37.36a1.15,1.15,0,0,1,1,.44,2.85,2.85,0,0,1,.42,1.75,2.85,2.85,0,0,1-.42,1.75,1.15,1.15,0,0,1-1,.44,1.22,1.22,0,0,1-1-.48,2.8,2.8,0,0,1-.39-1.72,2.74,2.74,0,0,1,.43-1.74A1.14,1.14,0,0,1,159.67,37.36Zm0,.68a.44.44,0,0,0-.27.09.64.64,0,0,0-.18.35,4.54,4.54,0,0,0-.08,1.07,4.89,4.89,0,0,0,.07,1,.74.74,0,0,0,.19.38.44.44,0,0,0,.27.09.35.35,0,0,0,.26-.1.63.63,0,0,0,.19-.34,5.17,5.17,0,0,0,.08-1.07,4.89,4.89,0,0,0-.07-1,.83.83,0,0,0-.2-.38A.39.39,0,0,0,159.67,38Z"/><path class="cls-1" d="M163,37.36a1.16,1.16,0,0,1,1,.44,2.85,2.85,0,0,1,.42,1.75A2.85,2.85,0,0,1,164,41.3a1.17,1.17,0,0,1-1,.44,1.25,1.25,0,0,1-1-.48,2.89,2.89,0,0,1-.38-1.72A2.81,2.81,0,0,1,162,37.8,1.15,1.15,0,0,1,163,37.36Zm0,.68a.41.41,0,0,0-.26.09.64.64,0,0,0-.18.35,4.41,4.41,0,0,0-.09,1.07,4.7,4.7,0,0,0,.08,1,.74.74,0,0,0,.19.38.41.41,0,0,0,.26.09.39.39,0,0,0,.27-.1.57.57,0,0,0,.18-.34,4.41,4.41,0,0,0,.09-1.07,4.7,4.7,0,0,0-.08-1,.74.74,0,0,0-.19-.38A.44.44,0,0,0,163,38Z"/><path class="cls-1" d="M165,40.56l.82-.08a.7.7,0,0,0,.21.44.57.57,0,0,0,.4.16.53.53,0,0,0,.43-.21,1,1,0,0,0,.18-.63.9.9,0,0,0-.17-.59.61.61,0,0,0-.46-.2.87.87,0,0,0-.64.31l-.67-.09.42-2.24h2.18v.77h-1.55l-.13.73a1.29,1.29,0,0,1,1.49.26,1.46,1.46,0,0,1,.38,1,1.5,1.5,0,0,1-.31.94,1.35,1.35,0,0,1-1.16.57,1.4,1.4,0,0,1-1-.32A1.32,1.32,0,0,1,165,40.56Z"/><path class="cls-1" d="M169.68,37.36a1.15,1.15,0,0,1,1,.44,2.85,2.85,0,0,1,.42,1.75,2.85,2.85,0,0,1-.42,1.75,1.15,1.15,0,0,1-1,.44,1.22,1.22,0,0,1-1-.48,2.8,2.8,0,0,1-.39-1.72,2.74,2.74,0,0,1,.43-1.74A1.14,1.14,0,0,1,169.68,37.36Zm0,.68a.44.44,0,0,0-.27.09.64.64,0,0,0-.18.35,4.41,4.41,0,0,0-.09,1.07,4.7,4.7,0,0,0,.08,1,.83.83,0,0,0,.19.38.44.44,0,0,0,.27.09A.39.39,0,0,0,170,41a.71.71,0,0,0,.18-.34,5.17,5.17,0,0,0,.08-1.07,4.89,4.89,0,0,0-.07-1,.83.83,0,0,0-.2-.38A.39.39,0,0,0,169.68,38Z"/><path class="cls-1" d="M174.4,40.9v.77h-2.88a1.91,1.91,0,0,1,.28-.82,5.59,5.59,0,0,1,.92-1,5.55,5.55,0,0,0,.69-.71.91.91,0,0,0,.17-.5.57.57,0,0,0-.15-.42A.54.54,0,0,0,173,38a.56.56,0,0,0-.41.15.8.8,0,0,0-.17.52l-.82-.08a1.34,1.34,0,0,1,.45-1,1.6,1.6,0,0,1,1-.29,1.38,1.38,0,0,1,1,.34,1.13,1.13,0,0,1,.36.85,1.42,1.42,0,0,1-.1.55,2.17,2.17,0,0,1-.33.55,5.16,5.16,0,0,1-.54.55c-.26.24-.42.4-.49.48a1.09,1.09,0,0,0-.17.22Z"/><path class="cls-1" d="M174.93,40.53l.8-.1a.73.73,0,0,0,.2.47.57.57,0,0,0,.41.16.56.56,0,0,0,.43-.19.8.8,0,0,0,.17-.53.67.67,0,0,0-.17-.49.52.52,0,0,0-.4-.18,1.48,1.48,0,0,0-.38.06l.09-.67a.72.72,0,0,0,.51-.14.52.52,0,0,0,.18-.41.45.45,0,0,0-.48-.48.49.49,0,0,0-.36.15.68.68,0,0,0-.18.43l-.76-.13a1.91,1.91,0,0,1,.24-.62,1.1,1.1,0,0,1,.45-.37,1.47,1.47,0,0,1,.64-.13,1.3,1.3,0,0,1,1,.38,1,1,0,0,1,.3.72,1,1,0,0,1-.62.9,1,1,0,0,1,.59.35,1,1,0,0,1,.23.67,1.26,1.26,0,0,1-.42,1,1.4,1.4,0,0,1-1,.4,1.42,1.42,0,0,1-1-.33A1.32,1.32,0,0,1,174.93,40.53Z"/><path class="cls-1" d="M178.3,38.2v-.77h2.81V38a4.7,4.7,0,0,0-.71,1,5.59,5.59,0,0,0-.54,1.37,5,5,0,0,0-.19,1.29h-.79a5.5,5.5,0,0,1,.36-1.82,5.92,5.92,0,0,1,.93-1.65Z"/><path class="cls-1" d="M184.41,40.9v.77h-2.88a1.91,1.91,0,0,1,.28-.82,5.74,5.74,0,0,1,.93-1,6,6,0,0,0,.68-.71.91.91,0,0,0,.17-.5.57.57,0,0,0-.15-.42A.54.54,0,0,0,183,38a.56.56,0,0,0-.41.15.8.8,0,0,0-.17.52l-.82-.08a1.31,1.31,0,0,1,.46-1,1.56,1.56,0,0,1,1-.29,1.38,1.38,0,0,1,1,.34,1.13,1.13,0,0,1,.36.85,1.42,1.42,0,0,1-.1.55,2.17,2.17,0,0,1-.33.55,5.16,5.16,0,0,1-.54.55c-.26.24-.42.4-.49.48a1.09,1.09,0,0,0-.17.22Z"/><path class="cls-1" d="M187.08,41.67h-.83v-3.1a2.75,2.75,0,0,1-1.06.62v-.75a2.21,2.21,0,0,0,.7-.4,1.47,1.47,0,0,0,.52-.68h.67Z"/><path class="cls-1" d="M189.85,42.93h-.57a5.83,5.83,0,0,1-.68-1.4,4.84,4.84,0,0,1-.23-1.42,4.29,4.29,0,0,1,.29-1.6,5.18,5.18,0,0,1,.64-1.21h.56a9.8,9.8,0,0,0-.56,1.51,6.28,6.28,0,0,0-.15,1.32,5.69,5.69,0,0,0,.09,1,7,7,0,0,0,.25,1C189.56,42.27,189.68,42.56,189.85,42.93Z"/><path class="cls-1" d="M190.32,40.68l.8-.09a.6.6,0,0,0,.15.36.46.46,0,0,0,.33.12.52.52,0,0,0,.43-.24,2,2,0,0,0,.23-1,1,1,0,0,1-.78.36,1.16,1.16,0,0,1-.87-.39,1.6,1.6,0,0,1,0-2.07,1.41,1.41,0,0,1,2.06.1,2.61,2.61,0,0,1,.42,1.66,2.57,2.57,0,0,1-.44,1.7,1.41,1.41,0,0,1-1.13.53,1.21,1.21,0,0,1-.82-.27A1.36,1.36,0,0,1,190.32,40.68Zm1.87-1.8a.9.9,0,0,0-.19-.62.52.52,0,0,0-.42-.22.48.48,0,0,0-.38.18,1.21,1.21,0,0,0,0,1.2.5.5,0,0,0,.41.2.51.51,0,0,0,.39-.19A.82.82,0,0,0,192.19,38.88Z"/><path class="cls-1" d="M196.43,38.43l-.79.08a.6.6,0,0,0-.16-.36.42.42,0,0,0-.32-.12.54.54,0,0,0-.44.24,2,2,0,0,0-.22,1,1,1,0,0,1,.76-.36,1.16,1.16,0,0,1,.88.39,1.41,1.41,0,0,1,.37,1,1.45,1.45,0,0,1-.38,1.05,1.32,1.32,0,0,1-1,.4,1.35,1.35,0,0,1-1.07-.5,2.61,2.61,0,0,1-.42-1.66,2.65,2.65,0,0,1,.44-1.7,1.4,1.4,0,0,1,1.13-.52,1.2,1.2,0,0,1,.81.27A1.26,1.26,0,0,1,196.43,38.43Zm-1.86,1.79a.94.94,0,0,0,.18.62.52.52,0,0,0,.42.22.48.48,0,0,0,.38-.18.89.89,0,0,0,.16-.58,1,1,0,0,0-.17-.62.5.5,0,0,0-.41-.19.52.52,0,0,0-.4.18A.82.82,0,0,0,194.57,40.22Z"/><path class="cls-1" d="M196.93,42.93c.16-.35.27-.61.34-.8a5.56,5.56,0,0,0,.19-.64q.07-.36.12-.69a4.92,4.92,0,0,0,0-.67,5.68,5.68,0,0,0-.15-1.32,8.69,8.69,0,0,0-.55-1.51h.56a5.49,5.49,0,0,1,.69,1.34,4.42,4.42,0,0,1,.24,1.43,4.82,4.82,0,0,1-.19,1.31,5.7,5.7,0,0,1-.72,1.55Z"/><path class="cls-1" d="M201.76,40.9v.77h-2.89a2.05,2.05,0,0,1,.28-.82,5.74,5.74,0,0,1,.93-1,5.22,5.22,0,0,0,.68-.71.84.84,0,0,0,.17-.5.57.57,0,0,0-.15-.42.52.52,0,0,0-.4-.15.54.54,0,0,0-.41.15.75.75,0,0,0-.18.52l-.82-.08a1.34,1.34,0,0,1,.46-1,1.6,1.6,0,0,1,1-.29,1.37,1.37,0,0,1,1,.34,1.1,1.1,0,0,1,.37.85,1.42,1.42,0,0,1-.11.55,2.17,2.17,0,0,1-.33.55,4.83,4.83,0,0,1-.53.55c-.26.24-.43.4-.5.48a1.63,1.63,0,0,0-.17.22Z"/><path class="cls-1" d="M203.71,37.36a1.15,1.15,0,0,1,1,.44,2.85,2.85,0,0,1,.42,1.75,2.85,2.85,0,0,1-.42,1.75,1.15,1.15,0,0,1-1,.44,1.22,1.22,0,0,1-1-.48,2.8,2.8,0,0,1-.39-1.72,2.81,2.81,0,0,1,.42-1.74A1.17,1.17,0,0,1,203.71,37.36Zm0,.68a.44.44,0,0,0-.27.09.64.64,0,0,0-.18.35,4.41,4.41,0,0,0-.09,1.07,4.7,4.7,0,0,0,.08,1,.74.74,0,0,0,.19.38.44.44,0,0,0,.27.09A.37.37,0,0,0,204,41a.57.57,0,0,0,.18-.34,4.41,4.41,0,0,0,.09-1.07,4.15,4.15,0,0,0-.08-1,.74.74,0,0,0-.19-.38A.41.41,0,0,0,203.71,38Z"/><path class="cls-1" d="M208.43,40.9v.77h-2.88a1.91,1.91,0,0,1,.28-.82,5.24,5.24,0,0,1,.92-1,5.55,5.55,0,0,0,.69-.71.91.91,0,0,0,.17-.5.57.57,0,0,0-.15-.42.64.64,0,0,0-.82,0,.86.86,0,0,0-.18.52l-.82-.08a1.38,1.38,0,0,1,.46-1,1.6,1.6,0,0,1,1-.29,1.39,1.39,0,0,1,1,.34,1.13,1.13,0,0,1,.36.85,1.42,1.42,0,0,1-.1.55,2.17,2.17,0,0,1-.33.55,5.16,5.16,0,0,1-.54.55c-.26.24-.42.4-.49.48a1.09,1.09,0,0,0-.17.22Z"/><path class="cls-1" d="M209,40.53l.8-.1a.73.73,0,0,0,.2.47.59.59,0,0,0,.84,0,.8.8,0,0,0,.17-.53.71.71,0,0,0-.17-.49.54.54,0,0,0-.41-.18,1.41,1.41,0,0,0-.37.06l.09-.67a.72.72,0,0,0,.51-.14.55.55,0,0,0,.17-.41.45.45,0,0,0-.47-.48.49.49,0,0,0-.36.15.68.68,0,0,0-.18.43l-.76-.13a1.55,1.55,0,0,1,.24-.62,1.1,1.1,0,0,1,.45-.37,1.47,1.47,0,0,1,.64-.13,1.31,1.31,0,0,1,1,.38,1,1,0,0,1-.32,1.62,1,1,0,0,1,.59.35,1,1,0,0,1,.22.67,1.25,1.25,0,0,1-.41,1,1.4,1.4,0,0,1-1,.4,1.44,1.44,0,0,1-1-.33A1.36,1.36,0,0,1,209,40.53Z"/><path class="cls-1" d="M213.72,37.36a1.15,1.15,0,0,1,1,.44,2.85,2.85,0,0,1,.42,1.75,2.85,2.85,0,0,1-.42,1.75,1.15,1.15,0,0,1-1,.44,1.22,1.22,0,0,1-1-.48,2.8,2.8,0,0,1-.39-1.72,2.81,2.81,0,0,1,.42-1.74A1.17,1.17,0,0,1,213.72,37.36Zm0,.68a.44.44,0,0,0-.27.09.64.64,0,0,0-.18.35,4.41,4.41,0,0,0-.09,1.07,4.7,4.7,0,0,0,.08,1,.83.83,0,0,0,.19.38.44.44,0,0,0,.27.09A.35.35,0,0,0,214,41a.63.63,0,0,0,.19-.34,5.17,5.17,0,0,0,.08-1.07,4.7,4.7,0,0,0-.08-1,.74.74,0,0,0-.19-.38A.41.41,0,0,0,213.72,38Z"/><path class="cls-1" d="M215.63,40.53l.8-.1a.74.74,0,0,0,.21.47.54.54,0,0,0,.4.16.56.56,0,0,0,.43-.19.8.8,0,0,0,.17-.53.71.71,0,0,0-.16-.49.54.54,0,0,0-.41-.18,1.48,1.48,0,0,0-.38.06l.09-.67a.72.72,0,0,0,.51-.14.52.52,0,0,0,.18-.41.5.5,0,0,0-.13-.35A.49.49,0,0,0,217,38a.48.48,0,0,0-.36.15.69.69,0,0,0-.19.43l-.75-.13a1.71,1.71,0,0,1,.23-.62,1.1,1.1,0,0,1,.45-.37,1.47,1.47,0,0,1,.64-.13,1.3,1.3,0,0,1,1,.38,1,1,0,0,1,.3.72,1,1,0,0,1-.61.9,1,1,0,0,1,.59.35,1.1,1.1,0,0,1,.22.67,1.26,1.26,0,0,1-.42,1,1.38,1.38,0,0,1-1,.4,1.43,1.43,0,0,1-1-.33A1.32,1.32,0,0,1,215.63,40.53Z"/><path class="cls-1" d="M221.78,40.9v.77h-2.89a2.07,2.07,0,0,1,.29-.82,5.24,5.24,0,0,1,.92-1,5.22,5.22,0,0,0,.68-.71.84.84,0,0,0,.17-.5.57.57,0,0,0-.15-.42.52.52,0,0,0-.4-.15.54.54,0,0,0-.41.15.86.86,0,0,0-.18.52l-.82-.08a1.34,1.34,0,0,1,.46-1,1.6,1.6,0,0,1,1-.29,1.41,1.41,0,0,1,1,.34,1.13,1.13,0,0,1,.36.85,1.63,1.63,0,0,1-.1.55,2.17,2.17,0,0,1-.33.55,5.16,5.16,0,0,1-.54.55c-.26.24-.43.4-.5.48a1.63,1.63,0,0,0-.17.22Z"/><path class="cls-1" d="M223,39.35a.94.94,0,0,1-.61-.89,1,1,0,0,1,.34-.79,1.61,1.61,0,0,1,1.9,0,1,1,0,0,1,.34.79,1,1,0,0,1-.15.54,1,1,0,0,1-.44.35,1.16,1.16,0,0,1,.54.42,1.07,1.07,0,0,1,.19.64,1.29,1.29,0,0,1-.38,1,1.37,1.37,0,0,1-1,.38,1.54,1.54,0,0,1-1-.31,1.27,1.27,0,0,1-.29-1.64A1.16,1.16,0,0,1,223,39.35Zm.1,1a.72.72,0,0,0,.17.53.56.56,0,0,0,.44.19.54.54,0,0,0,.42-.18.76.76,0,0,0,.16-.53.64.64,0,0,0-.17-.48.53.53,0,0,0-.43-.19.49.49,0,0,0-.44.21A.76.76,0,0,0,223.14,40.36Zm.07-1.84a.55.55,0,0,0,.14.39.51.51,0,0,0,.37.13.53.53,0,0,0,.38-.13.56.56,0,0,0,.14-.39.48.48,0,0,0-.51-.51.54.54,0,0,0-.38.14A.51.51,0,0,0,223.21,38.52Z"/></svg>