<svg id="Capa_1" data-name="Capa 1" xmlns="http://www.w3.org/2000/svg" xmlns:xlink="http://www.w3.org/1999/xlink" viewBox="0 0 118.97 79.5"><defs><style>.cls-1{fill:none;}.cls-2{clip-path:url(#clip-path);}.cls-3{fill:#393537;}.cls-10,.cls-11,.cls-12,.cls-13,.cls-14,.cls-15,.cls-16,.cls-17,.cls-19,.cls-3,.cls-4,.cls-5,.cls-6,.cls-7,.cls-8,.cls-9{fill-rule:evenodd;}.cls-18,.cls-4{fill:#f8f8f8;}.cls-5{fill:#2c282a;}.cls-6{fill:#656264;}.cls-7{fill:#464245;}.cls-8{fill:#4b4748;}.cls-20,.cls-9{fill:#e7e6e6;}.cls-10{fill:#bdbdc1;}.cls-11{fill:#b1afb6;}.cls-12{fill:#dad9d9;}.cls-13{fill:#868385;}.cls-14{fill:#545051;}.cls-15{fill:#9b989f;}.cls-16{fill:#817d86;}.cls-17{fill:#a9a7ad;}.cls-19{fill:#908d90;}</style><clipPath id="clip-path"><rect class="cls-1" x="8.27" width="110.7" height="68.1"/></clipPath></defs><g class="cls-2"><path class="cls-3" d="M34.65,6.18h.56c.26,0,.34.07.34.33v3h1V6.29h.67c.37,0,.33-.2.34-.56H34.65v.45"/><path class="cls-4" d="M21.29,8.54c.39.14.58.56.9.56h.45c.74,0,.89-1.28.89-2.14-.49-.2-.13-.89-1-.89H22.3c-1.06,0-1,1.38-1,2.47"/><path class="cls-5" d="M28.14,5.28c0,.73.9,1.23,1.41,1.62s1.06,1.36,1.73,1.41V5.84a5.43,5.43,0,0,0-1.46-1.69c-.68,0-1.24,1-1.68,1.13"/><path class="cls-6" d="M41.38,7.19v.22h.79v.11h-.9c-.13.21-.22.2-.22.45v.9c0,.5.6.34,1.12.34v.11H40.49V5.61h1.9v.46H41.5c-.26,0-.34.07-.34.33v.68h.22v-.9h1.13V5.5H40.6c-.26,0-.34.08-.34.34V9.21c0,.26.08.34.34.34h1.57c.37,0,.33-.21.34-.56H41.38V7.75h1.13V7.19H41.38"/><path class="cls-7" d="M21.74,5.73h-.68c0,.15-.94,1.3-.92,1.69l.17,1.19.84.73-.09.09c.67.06.24.23.68.23h1.12c1,0,.84-.61,1.45-.68l.23-1.46a1.79,1.79,0,0,0-.67-1.68c-.59-.51-1.08-.34-2.13-.34v.23m-.45,2.81c0-1.09-.05-2.47,1-2.47h.22c.88,0,.52.69,1,.89,0,.86-.15,2.14-.89,2.14h-.45C21.87,9.1,21.68,8.68,21.29,8.54Z"/><path class="cls-5" d="M41.38,7.19V7.08h-.22V6.4c0-.26.08-.33.34-.33h.89V5.61h-1.9V9.32h1.68V9.21c-.52,0-1.12.16-1.12-.34V8c0-.25.09-.24.22-.45h.9V7.41h-.79V7.19"/><path class="cls-8" d="M45.2,7.75c0,1.52,1.23,1.61,1.35,1.91h1.7l.53-1-.1,0h-.34c-.43,0-.31.53-.78.47L46.66,9c0-.44-.34-.87-.34-1.24,0-.88.13-1.8,1-1.8h.23c.5,0,.38.56.67.56s.42-.42.45-.78c-.2-.14-.2-.23-.45-.23H46.77c-1.09,0-1.57,1.15-1.57,2.25"/><path class="cls-3" d="M14.67,6.74l-.12.9c-.14.89.62,2,1.35,2h1.46c.4,0,.44-.27.45-.67-.55,0-.41.22-.9.22h-.34c-.6,0-.89-.78-.89-1.46l0-.12.14-1c.7-.19.19-.56,1-.56h.11c.64,0,.39.28,1,.33V6.07c0-.29-.46-.57-.67-.57H16.13c-.58,0-1,1.06-1.46,1.24"/><path class="cls-3" d="M25.76,7.86c-.08.48,1.38,2,1.93,2l0-3.64L25.76,7.86"/><path class="cls-7" d="M31.62,9.77H32c.73,0,.86-1.43,1.91-1.46V7.75c-.91-.24-1.18-1.66-2.24-1.68v3.7"/><path class="cls-3" d="M11,9.66h.79c.26,0,.33-.08.33-.34V5.73H11V9.66"/><path class="cls-3" d="M28.14,10.45a3.64,3.64,0,0,0,1.57,1.46c.35,0,.41-.11.45-.45l.09.1,1-1.11C31,10,28.73,7.76,28.14,7.75v2.7"/><path class="cls-9" d="M82.36,10.33h.9c.25,0,.24.09.45.23l0,1.13.24.33c0,.84-.23,1.44.56,1.46v-.79c0-.42-.45-1.43-.45-2v-.56h1l.13-.44h-.79c-.67,0-1.95.05-2,.67"/><path class="cls-10" d="M94.26,13.93c.26,0,.34-.08.34-.34v-.45h.33v-.71l.58.14,0,.12c.89,0,1.22.47,1.24-.45-.31-.07-1-.24-1.33-.36s-.21-1.1.21-1.1h.11a11,11,0,0,0,1.57.45c.23,0,.21-.23.22-.43l-1.83-.56,0-.13h-.79c-.09.39-1.24,3.82-.67,3.82"/><path class="cls-11" d="M89.54,11.12c0,.49-.22.41-.22.9v1c0,.26.08.34.34.34h.11c.52,0,.45-1.48.45-2v-2h-.68v1.8"/><path class="cls-3" d="M75.74,13.15l.41,1,0,.16,1.63-.8V12.8c0-.25-.08-.33-.34-.33l-.52.08-1.16.6"/><path class="cls-5" d="M87,6.18l-2.47.11-.11.11L83,6.51l-.22.12-.9.11-.22.11-.9.11v.23H80l-.11.11-.67.11v.23h-.68l-.11.11-.56.11L77.76,8l-.57.12-.11.11-.33.11-.12.11-.45.12L76,8.65l-.34.11-.11.11L75.17,9l-.11.11-.22.11-.23.11-.33.11-.12.12-.45.11-.33.22-.11.12-.45.22-.34.23v.22H72l-.34.34-.22.11-.22.11-.12.11-.22.12-.23.11-.22.22-.34.23-.11.11-.22.11-.23.23-.22.22-.23.11-.11.12-.11.11-.23.22-.22.12-.23.22-.22.23-.22.22-.23.22-.22.23-.12.11-.78.79-.23.33L66,16l-.11.22-.68.68-.11.22-.11.11-.11.23-.12.11-.22.23L64.4,18l-.11.11-.12.23-.11.11-.22.22-.12.34-.11.11-.11.23-.11.11-.12.23-.33.33v.45h-.23v.45h-.22l-.11.23-.12.11-.11.34-.11.11-.11.33-.11.12v.45h-.23l-.11.33-.11.12v.44h-.23l-.11.45-.11.12-.12.44-.11.12-.11.22-.11.23-.11.22-.12.45-.11.11-.11.45v.56h-.23l-.11.68-.11.11-.11.45-.11.22-.12.23-.11.67-.11.12L58.9,30l-.12.11-.11.79-.11.11-.11.9-.11.22-.12,1-.11.23v.9l.11.11h.12l9-.23a15.87,15.87,0,0,0,.82-3.1,17.57,17.57,0,0,1,1-2.91c.43-1.05,2.1-4.69,3.09-4.77a31.09,31.09,0,0,1,2-2.53,18.06,18.06,0,0,1,2.54-1.95,18.09,18.09,0,0,1,6.3-2.8c2.2-.27,5.47-1.36,8-.85,1,.2,2.66.63,3.57.93.75.24,3,1.1,3.46,1.14v.31l.89.25c.06.72,1.13.63,1.8,1.46a14.24,14.24,0,0,0,1.79,1.58c.68.58.87.91,1.7,1.55a2.52,2.52,0,0,1,.69,1c.31.63.45.4.8.89,1.49,2.1,3.44,6.3,3.44,9.8h9v-3c0-.48-.86-3.27-1-3.91a38.44,38.44,0,0,0-1.53-3.55l-3.84-6.16-.22.14v-.32l.22-.13v-.11l-.11-.22-.23-.23-.11-.11-.11-.11-.34-.34-.11-.11-.22-.23-.12-.11-.11-.22-.11-.12-.11-.11-.11-.11-.23-.22-.11-.12-.34-.33-.11-.12-.11-.11-.56-.56-.23-.11-.22-.23-.12-.11-.22-.22-.23-.23-.22-.22-.22-.23-.34-.22-.34-.23-.22-.22-.23-.11-.22-.12-.23-.22-.22-.11-.11-.12-.34-.22-.34-.22-.33-.23-.45-.22-.11-.12-.23-.11-.22-.11-.23-.11-.22-.12-.23-.11-.33-.11L102,9.1,101.78,9l-.22-.12-.12-.11-.33-.11-.23-.11h-.45V8.31L100,8.2l-.11-.11L99.31,8l-.11-.11-.56-.11-.12-.11L98,7.52l-.11-.11-.56-.11-.11-.11-.68-.11L96.28,7h-.9V6.74l-1-.11-.11-.12L92.91,6.4l-.11-.11-2.58-.11L90,6.07h-2.8L87,6.18m-4.6,4.15c.07-.62,1.35-.67,2-.67h.79L85,10.1H84v.56c0,.59.45,1.6.45,2v.79c-.79,0-.56-.62-.56-1.46l-.24-.33,0-1.13c-.21-.14-.2-.23-.45-.23Zm11.9,3.6c-.57,0,.58-3.43.67-3.82h.79l0,.13,1.83.56c0,.2,0,.43-.22.43a11,11,0,0,1-1.57-.45h-.11c-.42,0-.6,1-.21,1.1s1,.29,1.33.36c0,.92-.35.45-1.24.45l0-.12-.58-.14v.71H94.6v.45C94.6,13.85,94.52,13.93,94.26,13.93ZM89.54,9.32h.68v2c0,.55.07,2-.45,2h-.11c-.26,0-.34-.08-.34-.34V12c0-.49.22-.41.22-.9ZM78.09,13.93l1.54.9-.09.15-2.64-.74v.15l-.26.55a1.42,1.42,0,0,1,.45.9v.45l-.51,0-1.75-3.39L75,12.8a5.26,5.26,0,0,1,3-.89c.12.34.34.39.34.89A4.44,4.44,0,0,1,78.09,13.93ZM101,15.5l-.44.67h-.45V15.5c.53-.22,1.08-2.56,2-2.58v.33C102.12,13.69,101,14.54,101,15.5ZM69.9,18.19c.34.13.3.34.67.34s.94-1.17,1.68-1.23v.33a.81.81,0,0,1-.71.72l-.41.41c0,.66.32.9,1,.9l-.07-.09,1.08-1h.56l.1.1-1.57,1.64-.71.34-2.42-2.53c0-.87,1.28-1.76,1.91-1.91C71,17.25,69.9,16.93,69.9,18.19Zm35.7-.67v.11c0,.65,1.1.6,1.12,1.58-.87,0-.88-1.13-1.57-1.13H105c-.45,0-.22.29-.68.45a1.39,1.39,0,0,0,1.22,1.35l.13.67A5.72,5.72,0,0,1,103.58,19c0-.69,2.12-2.77,2.69-2.92.3.83,1.89,1.06,1.91,2h-.45c-.57,0-.66-1-1.68-1.12C105.84,17.48,105.6,17,105.6,17.52ZM66.08,23.14c-.13.35-.45.46-.45.78v.34c0,.56.94,1.35,1.57,1.35h.68a.85.85,0,0,0,.67-.68v-.67c0-.49-.18-.35-.22-.9A.72.72,0,0,1,69,24v.78c0,.74-.6.72-.79,1.24a3.86,3.86,0,0,1-2.06-.3,2,2,0,0,1-1-1.39V23.7a2.28,2.28,0,0,1,1.24-1.24h.45v.34C66.87,23.24,66.5,23.14,66.08,23.14Zm41.65.67,3.07-1.5,0-.16.45.45-.09.09h.34a10.85,10.85,0,0,1,.33,1.91c0,.77-1.29,1.57-2.24,1.57S107.85,24.77,107.73,23.81Z"/><path class="cls-10" d="M78.09,13.93a4.44,4.44,0,0,0,.23-1.13c0-.5-.22-.55-.34-.89a5.26,5.26,0,0,0-3,.89l-.13.07,1.75,3.39.51,0v-.45a1.42,1.42,0,0,0-.45-.9l.26-.55v-.15l2.64.74.09-.15-1.54-.9M76.9,12.55l.52-.08c.26,0,.34.08.34.33v.68l-1.63.8,0-.16-.41-1Z"/><path class="cls-12" d="M101,15.5c0-1,1.13-1.81,1.13-2.25v-.33c-.94,0-1.49,2.36-2,2.58v.67h.45l.44-.67"/><path class="cls-12" d="M69.9,18.19c0-1.26,1.1-.94,1.12-2-.63.15-1.91,1-1.91,1.91l2.42,2.53.71-.34,1.57-1.64-.1-.1h-.56l-1.08,1,.07.09c-.69,0-1-.24-1-.9l.41-.41a.81.81,0,0,0,.71-.72V17.3c-.74.06-1.34,1.23-1.68,1.23s-.33-.21-.67-.34"/><path class="cls-12" d="M105.6,17.52c0-.55.24,0,.45-.56,1,.09,1.11,1.12,1.68,1.12h.45c0-1-1.61-1.19-1.91-2-.57.15-2.69,2.23-2.69,2.92a5.72,5.72,0,0,0,2.13,1.57l-.13-.67a1.39,1.39,0,0,1-1.22-1.35c.46-.16.23-.45.68-.45h.11c.69,0,.7,1.11,1.57,1.13,0-1-1.12-.93-1.12-1.58v-.11"/><path class="cls-12" d="M107.73,23.81c.12,1,.82,2.36,1.91,2.36s2.24-.8,2.24-1.57a10.85,10.85,0,0,0-.33-1.91h-.34l.09-.09-.45-.45,0,.16-3.07,1.5m.67.23,2.25-1.13.4,0,.39,1,.11,0v.77l-1.34.92h-.9C109.05,24.92,108.4,25.34,108.4,24Z"/><path class="cls-3" d="M108.4,24c0,1.3.65.88.9,1.57h.9l1.34-.92v-.77l-.11,0-.39-1-.4,0L108.4,24"/><path class="cls-12" d="M66.08,23.14c.42,0,.79.1.79-.34v-.34h-.45a2.28,2.28,0,0,0-1.24,1.24v.67a2,2,0,0,0,1,1.39,3.86,3.86,0,0,0,2.06.3c.19-.52.79-.5.79-1.24V24a.72.72,0,0,0-.67-.68c0,.55.22.41.22.9v.67a.85.85,0,0,1-.67.68H67.2c-.63,0-1.57-.79-1.57-1.35v-.34c0-.32.32-.43.45-.78"/><path class="cls-3" d="M69.45,30.89h37.72V30.1a1.86,1.86,0,0,0-.11-.56H69.45v1.35"/><path class="cls-4" d="M50.48,51.44V.56H18.93C17.69.56,8.72.28,8.72.9V51.1c0,.62,8.86.34,10.1.34H50.48M28.14,5.28c.44-.16,1-1.13,1.68-1.13a5.43,5.43,0,0,1,1.46,1.69V8.31c-.67-.05-1.21-1-1.73-1.41S28.15,6,28.14,5.28ZM45.2,7.75c0-1.1.48-2.25,1.57-2.25h1.46c.25,0,.25.09.45.23,0,.36-.07.78-.45.78S48.06,6,47.56,6h-.23c-.88,0-1,.92-1,1.8,0,.37.3.8.34,1.24l.9.13c.47.06.35-.47.78-.47h.34l.1,0-.53,1h-1.7C46.43,9.36,45.2,9.27,45.2,7.75Zm-30.53-1c.5-.18.88-1.24,1.46-1.24h1.12c.21,0,.67.28.67.57V6.4c-.62-.05-.37-.33-1-.33H16.8c-.82,0-.31.37-1,.56l-.14,1,0,.12c0,.68.29,1.46.89,1.46h.34c.49,0,.35-.18.9-.22,0,.4,0,.67-.45.67H15.9c-.73,0-1.49-1.13-1.35-2Zm20.88-.23c0-.26-.08-.33-.34-.33h-.56V5.73h2.92c0,.36,0,.56-.34.56h-.67V9.55h-1Zm5.83.57v.11h1.13v.56H41.38V9h1.13c0,.35,0,.56-.34.56H40.6c-.26,0-.34-.08-.34-.34V5.84c0-.26.08-.34.34-.34h1.91v.68H41.38ZM21.74,5.5c1.05,0,1.54-.17,2.13.34a1.79,1.79,0,0,1,.67,1.68L24.31,9c-.61.07-.45.68-1.45.68H21.74c-.44,0,0-.17-.68-.23l.09-.09-.84-.73-.17-1.19c0-.39.87-1.54.92-1.69h.68Zm5.91.74,0,3.64c-.55,0-2-1.54-1.93-2Zm4-.17c1.06,0,1.33,1.44,2.24,1.68v.56c-1,0-1.18,1.46-1.91,1.46h-.33ZM11,5.73h1.12V9.32c0,.26-.07.34-.33.34H11Zm17.18,2c.59,0,2.89,2.23,3.14,2.7l-1,1.11-.09-.1c0,.34-.1.45-.45.45a3.64,3.64,0,0,1-1.57-1.46ZM17.7,28c0,1.19.42,4.64,1.12,4.83,0-.9-.46-1.56-.45-3a14.33,14.33,0,0,1,.28-3.2A15.72,15.72,0,0,1,21,21.85a13.38,13.38,0,0,1,9.7-4.33c2.13,0,3.82,0,3.82,2.14-2,1.08-.86.45-2.81.45h-3c-.79,0-4.33,1.73-4.38,2.35-1.08.09-2.58,2.75-2.87,3.87a10.36,10.36,0,0,0-.61,2.76,15.52,15.52,0,0,0,.45,3h.25l-.14-1.57c-.13-1.31.47-4.51,1.35-4.6l-.13-.11,1.8-2.13.12.1c.09-.81,4.16-2.24,5.51-2.24h2.24a8.48,8.48,0,0,1,4.94,2.35c1.48,1.47,2.36,2,2.31,4.9l-.4.5c-2.65,0-1.93-1.37-3.14-3A7.35,7.35,0,0,0,32,24h-1.9C27.59,24,24,26.76,24,29.09v1.46c0,2.57,2.7,6.07,5.28,6.07H32.4a6.78,6.78,0,0,0,3.18-1.54c1-1.08.48-2.06,2.77-2.06H44.3a2.88,2.88,0,0,1,2.67,1c.9,1.1.07,1.92-.31,2.78a25.3,25.3,0,0,1-3.59,4c-1.73,1.19-2.29,2-4.55,3a17,17,0,0,1-6.23,1.4H29.48c-5,0-10-3.11-12.49-5.8a18.24,18.24,0,0,1-5.24-13.18v-.11a18.53,18.53,0,0,1,1.73-6.46,13.2,13.2,0,0,1,1.62-2.54c.79-.63,2.48-1.11,2.48.35v.34c0,.19-3.14,4.55-3.14,8.31V28c0,1,.72,4.55,1.35,4.71,0-1.34-.56-2.34-.56-3.81V28c0-4.22,1.45-6.46,3.13-9a20.22,20.22,0,0,1,3.34-2.72,7.19,7.19,0,0,1,4.42-1.65c.13.35.45.47.45.79v.78C26.57,16.78,17.7,19.78,17.7,28Z"/><path class="cls-3" d="M79.89,32.68l-.11-.11-.45-.11c-.11.39-.23.3-.23.45s0,.13.12.45h.56l.11-.68"/><path class="cls-13" d="M79.89,32.68l-.11.68h-.56c-.08-.32-.12-.19-.12-.45s.12-.06.23-.45l.45.11-.34-.33-.7.45.25.89h1V33h.23v-.34h-.34"/><polyline class="cls-14" points="77.14 33.2 77.08 34.03 78.09 34.03 78.04 33.2 77.64 32.8 77.14 33.2"/><path class="cls-6" d="M81,33.13h-.36l.25.89h1l.24-.83-.58-.29,0-.1h-.22c-.07.25,0,.33-.34.33"/><path class="cls-13" d="M82.92,34.59v.57h-.65l-.13-.56h.22v-.25l.44.14c0-.44.07-.34-.31-.42l-.25.42H81.8v.34H82v.59l.55-.12.42.09.14-.79h-.22"/><polyline class="cls-3" points="82.92 34.59 82.81 34.48 82.37 34.34 82.36 34.59 82.14 34.59 82.27 35.15 82.92 35.16 82.92 34.59"/><path class="cls-6" d="M75.62,34.48l.23,1h.87l.14-.9c-.12-.17-.15-.33-.45-.33s0,.2-.79.22"/><polyline class="cls-7" points="75.62 36.39 75.28 36.39 75.4 37.18 76.3 37.18 76.3 36.39 75.85 36.39 75.85 36.17 75.62 36.17 75.62 36.39"/><path class="cls-15" d="M89.32,35.38v.34c.65.23,1,1.28,1.79,1.35V32.68h1.8v8H91.56c-.54,0,0-.28-.67-.45.08.22.28.56.56.56H92.8c.26,0,.34-.08.34-.34V32.91c0-.26-.08-.34-.34-.34H91.23c-.26,0-.34.08-.34.34v3.82l-.11.1-1.46-1.45"/><path class="cls-4" d="M95.83,36.73h2.36v-.34a1.59,1.59,0,0,0-.12-.56A4.28,4.28,0,0,0,97,35.6a1.11,1.11,0,0,0-1.12,1.13"/><path class="cls-7" d="M109.41,37.07h8.87c.26,0,.34-.08.34-.34V35.6h-9.21v1.47"/><path class="cls-3" d="M82.92,36.39l-.11.79c.14-.08.12-.11.33-.11h.37l-.14-.67h-.45"/><path class="cls-16" d="M72.25,32.68c-.18.14-.22,0-.22.34v7.3a.43.43,0,0,0,.45.45h1.57V32.91c0-.56-1.55-.38-1.8-.23m0,0h1.58v7.87H72.59c-.59,0-.34-3-.34-3.71Z"/><path class="cls-3" d="M58.22,35.49l-.11.11v1.47l.11.11h.12c1.07-.57,9.09.2,9.09-.56v-1l-9.09-.24-.12.11"/><path class="cls-13" d="M82.92,36.39h-.36l.14.9h1v-.67h.22c-.07-.26,0-.34-.34-.34l-.28-.06-.39-.28v.45m0,0h.45l.14.67h-.37c-.21,0-.19,0-.33.11Z"/><path class="cls-5" d="M90.89,40.21c.64.17.13.45.67.45h1.35v-8h-1.8v4.39C90.31,37,90,36,89.32,35.72v-.34L87,32.65l.08-.08h-2v7.86c0,.26.08.34.34.34h1.68v-4.6l.12-.11,3.7,4.15"/><path class="cls-5" d="M72.25,32.68v4.16c0,.7-.25,3.71.34,3.71h1.24V32.68H72.25"/><path class="cls-5" d="M100.21,35.83H101v3a2,2,0,0,0,1.91,1.8h.9c.94,0,1-.5,1-1.42l-1.8.07c-.05-.66-.22-.23-.22-.67V35.83h2V34.59h-2V32.8c-.78,0-2.57,2.41-2.58,3"/><polyline class="cls-6" points="79.53 38.06 79.67 38.64 80.54 38.63 80.67 37.85 80.35 37.85 80.16 37.34 79.53 38.06"/><polyline class="cls-14" points="75.83 38.36 75.85 38.95 76.75 39.09 76.7 38.25 76.14 37.9 75.83 38.36"/><path class="cls-6" d="M82.13,38.16l.12.93h1v-.34a2.18,2.18,0,0,1,.11-.61l-1.24,0"/><path class="cls-6" d="M80.76,39.62c0,.39.14.11.14.48v.33h1V40.1a1.55,1.55,0,0,1,.11-.56h-.33v-.45h-.57l.09.08-.45.45"/><path class="cls-14" d="M77.08,40v.42l1,0V40c0-.43,0-.05.12-.36l-.45-.09V39.2h-.23c-.24.91-.45-.31-.45.79"/><path class="cls-4" d="M58.34,34.37v1l9.09.24v1c0,.76-8,0-9.09.56v.9l9.2.11-.2.06,2.33,8.2.23-.06h.33c0,.85,2.32,3.7,3,4.22s1,1.24,1.76,1.83c.56.44,1.58,1.06,2.22,1.49a18.19,18.19,0,0,0,11.13,3.35,24.32,24.32,0,0,0,10.62-3.07,39.49,39.49,0,0,0,4-2.89c.62-.53,2.68-3.76,3.16-3.81,0,0,1-1.86,1.1-2.15.35-.8.63-1.45.93-2.32s1.06-4.85,1.67-4.85h8.08a1.55,1.55,0,0,1,.56.11c0,3.12-2.1,8.58-3.2,10.84-.29.6-2.26,4.23-2.54,4.53-1,1-2.2,3-3.15,3.92a47.8,47.8,0,0,1-3.83,3.25,29.8,29.8,0,0,1-4.53,2.54A31.84,31.84,0,0,1,89.66,66H86.18c-2.54,0-12-2.24-12.13-3.7-.83-.07-4.81-3-5.52-3.58S64.71,54.07,64.22,54l-3.35-5.61L61,48.3l-.27,0L60,47v.22l.11.34.11.11.12.45.11.23.11.33.11.23h.23v.45h.22V50l.23.34.11.11.11.34.11.11.12.34.11.11.11.22.11.23.11.22h.23v.45h.22v.45l.23.23h.22v.45l.34.33.11.23.11.11.12.22.11.12.11.22.11.11.12.23.11.11.11.11.11.12.23.22.11.23.11.11.11.22.9.9.11.23.23.11.11.22.11.11.11.12.12.22.22.23.23.11.33.34.12.11.11.11.22.22.23.12.11.11.22.22.23.23.11.11.34.34.22.11.23.11.22.23.22.22.12.11.22.12.11.11.23.11.11.11.11.12.12.11.33.11.11.11.23.11.11.12.22.11.12.11.22.23H73V63l.34.11.11.12.22.11.12.11.33.22.45.12.12.11.33.23h.45v.22H76v.22h.56v.23l.56.11.11.11.34.11.23.12.33.11.23.11.56.11.11.12h.67v.22l.68.11.11.12h.79v.22l.33.11.79.12.22.11.9.11.34.11,1.35.11.33.12h6.29l.34-.12,1.46-.11.22-.11,1-.11.22-.11.68-.12.33-.11v-.22H97v-.23h.79v-.22h.67v-.23h.68l.11-.11.45-.11.11-.12.45-.11v-.22h.67v-.23h.45v-.22h.45v-.22h.45l.11-.12.34-.11.11-.11.34-.12.11-.11.34-.11.11-.11.22-.11.23-.12.22-.11.34-.22.11-.12.23-.11.33-.22.11-.12.23-.11.22-.11.12-.11.11-.11.22-.12.34-.22.11-.11.23-.12.22-.33.11-.12.34-.11.22-.22.23-.11.22-.23.11-.22.12-.12.11-.11.34-.11.45-.45.11-.11.11-.11.34-.34.11-.11.11-.12.23-.11.22-.22.11-.23.23-.22.11-.11.11-.12.11-.22.12-.11.11-.12.22-.22.23-.23.22-.22.23-.34.22-.33.23-.23.11-.22.11-.12.22-.33.23-.34.11-.23.11-.11.12-.22.11-.11.11-.23.11-.11.12-.23.11-.11.11-.11.11-.34.11-.11.12-.22.22-.34v-.45h.23l.11-.23.11-.22.11-.11.11-.34.12-.11.22-.34.11-.45.12-.22.11-.34.11-.22.11-.34.12-.11.11-.45.11-.11v-.57h.22V46.5h.23l.11-.67.11-.12L118,45l.11-.11.11-.79.11-.11v-.9h.23V41.89h.22V40.1H119V33.81l-.12-.11L118.73,32l-.11-.11-.11-1-.12-.12-.11-.89-.11-.23-.11-.67-.11-.11-.12-.79-.11-.11-.11-.56-.11-.12-.12-.67h-.22v-.56l-.11-.11-.11-.34-.12-.11-.11-.45-.11-.23-.11-.33-.12-.12-.11-.45H116v-.45l-.23-.33-.11-.23-.11-.11-.11-.22-.12-.12-.11-.33-.11-.12-.11-.33-.12-.23-.22-.22-.11-.34-.11-.11-.12-.11-.22-.45-.23-.34-.22-.34-.23-.22h-.22v-.45l-.22-.23-.23-.22-.22-.45-.23-.22-.22-.23-.23-.34h-.11l-.22.13v.32l.22-.14,3.84,6.16a38.44,38.44,0,0,1,1.53,3.55c.17.64,1,3.43,1,3.91v3h-9c0-3.5-2-7.7-3.45-9.8-.34-.49-.48-.26-.79-.89a2.52,2.52,0,0,0-.69-1c-.83-.64-1-1-1.7-1.55a14.24,14.24,0,0,1-1.79-1.58c-.67-.83-1.74-.74-1.8-1.46l-.89-.25V17.3c-.43,0-2.71-.9-3.46-1.14-.91-.3-2.6-.73-3.57-.93-2.52-.51-5.79.58-8,.85a18.09,18.09,0,0,0-6.3,2.8,18.06,18.06,0,0,0-2.54,1.95,31.09,31.09,0,0,0-2,2.53c-1,.08-2.66,3.72-3.09,4.77a17.57,17.57,0,0,0-1,2.91,15.87,15.87,0,0,1-.82,3.1l-9,.23m11.12-4.83h37.61a1.86,1.86,0,0,1,.11.56v.79H69.45Zm10.33,3,.11.11h.34V33H80v.56H79l-.25-.89.7-.45Zm1.23.56c.31,0,.27-.08.34-.33h.22l0,.1.58.29-.24.83h-1l-.25-.89Zm-3.37-.33.4.4,0,.83h-1l.06-.83Zm5.17,1.68.11.11h.22l-.14.79-.42-.09-.55.12v-.59H81.8v-.34h.45l.25-.42C82.88,34.14,82.77,34,82.81,34.48Zm-7.19,0c.77,0,.35-.22.79-.22s.33.16.45.33l-.14.9h-.87Zm24.59,1.35c0-.62,1.8-3,2.58-3v1.79h2v1.24h-2v2.81c0,.44.17,0,.22.67l1.8-.07c0,.92-.07,1.42-1,1.42h-.9a2,2,0,0,1-1.91-1.8v-3Zm-10.89-.45,1.46,1.45.11-.1V32.91c0-.26.08-.34.34-.34H92.8c.26,0,.34.08.34.34v7.52c0,.26-.08.34-.34.34H91.45c-.28,0-.48-.34-.56-.56l-3.7-4.15-.12.11v4.6H85.39c-.26,0-.34-.08-.34-.34V32.57h2l-.08.08Zm-6.4,1v-.45l.39.28.28.06c.31,0,.27.08.34.34h-.22v.67h-1l-.14-.9Zm-7.07-.22v.22h.45v.79h-.9l-.12-.79h.34v-.22Zm33.56-.57h9.21v1.13c0,.26-.08.34-.34.34h-8.87ZM95.72,38.41c0,.78,1,1.13,1.91,1.13H98c.94,0,1.06-.55,1.91-.57V40.1a8.66,8.66,0,0,1-2,.56H96.5a4,4,0,0,1-2.8-2.14c0-2.56.79-4.15,3.25-4.15,2.09,0,3,1.41,3,3.48H95.72ZM80.16,37.34l.19.51h.32l-.13.78h-.88l-.13-.58Zm3.21.8a2.18,2.18,0,0,0-.11.61v.34h-1l-.12-.93Zm-7.23-.24.56.35,0,.84-.9-.14,0-.59Zm1.62,1.3v.34l.45.09c-.15.31-.12-.07-.12.35v.45l-1,0V40c0-1.09.21.13.45-.78Zm4.26.34a1.55,1.55,0,0,0-.11.56v.33h-1V40.1c0-.37-.1-.09-.14-.48l.45-.45-.09-.08h.57v.45Zm-2.29,1.32-.72,0-.13-.67h.32l.13-.45h.22l-.08.09.44.45.11-.08Zm-7.48-8.18c.25-.15,1.8-.33,1.8.23v7.86H72.48a.43.43,0,0,1-.45-.45V33C72,32.7,72.07,32.82,72.25,32.68Zm10,8.2v-.33h.45c.1.46.1.45.56.56v.33H83v.34c0,.52-.32.23-.67.23h-.45v-.57h-.22C81.72,41,81.78,40.92,82.25,40.88Zm24.47,3H69.79V43h37.27v.56C107.06,43.84,107,43.92,106.72,43.92Z"/><path class="cls-3" d="M95.72,37.85H100c0-2.07-.94-3.48-3-3.48-2.46,0-3.25,1.59-3.25,4.15a4,4,0,0,0,2.8,2.14h1.35a8.66,8.66,0,0,0,2-.56V39c-.85,0-1,.57-1.91.57h-.33c-.91,0-1.91-.35-1.91-1.13v-.56m.11-1.12A1.11,1.11,0,0,1,97,35.6a4.28,4.28,0,0,1,1.12.23,1.59,1.59,0,0,1,.12.56v.34Z"/><polyline class="cls-7" points="80.02 40.22 79.92 40.3 79.47 39.85 79.55 39.76 79.33 39.76 79.2 40.21 78.88 40.21 79.01 40.88 79.73 40.86 80.02 40.22"/><path class="cls-3" d="M82.25,40.88c-.13.12-.34.2-.34.34s.17,0,.23.56h.65l.07-.62-.28-.41-.33.13"/><path class="cls-17" d="M82.25,40.88c-.47,0-.53.1-.56.56h.22V42h.45c.35,0,.67.29.67-.23v-.34h.23v-.33c-.46-.11-.46-.1-.56-.56h-.45v.33m0,0,.33-.13.28.41-.07.62h-.65c-.06-.6-.23-.33-.23-.56S82.12,41,82.25,40.88Z"/><path class="cls-3" d="M106.72,43.92c.26,0,.34-.08.34-.34V43H69.79v.9h36.93"/><path class="cls-5" d="M17.7,28c0-8.19,8.87-11.19,8.87-11.8v-.78c0-.32-.32-.44-.45-.79a7.19,7.19,0,0,0-4.42,1.65A20.22,20.22,0,0,0,18.36,19c-1.68,2.54-3.13,4.78-3.13,9v.9c0,1.47.56,2.47.56,3.81-.63-.16-1.35-3.69-1.35-4.71v-1.8c0-3.76,3.14-8.12,3.14-8.31v-.34c0-1.46-1.69-1-2.48-.35a13.2,13.2,0,0,0-1.62,2.54,18.53,18.53,0,0,0-1.73,6.46v.11A18.24,18.24,0,0,0,17,39.46c2.44,2.69,7.45,5.8,12.49,5.8h2.81a17,17,0,0,0,6.23-1.4c2.26-1,2.82-1.78,4.55-3a25.3,25.3,0,0,0,3.59-4c.38-.86,1.21-1.68.31-2.78a2.88,2.88,0,0,0-2.67-1H38.35c-2.29,0-1.73,1-2.77,2a6.7,6.7,0,0,1-3.18,1.55H29.26c-2.58,0-5.28-3.5-5.28-6.07V29.09C24,26.76,27.59,24,30.05,24H32A7.35,7.35,0,0,1,36,26.28c1.21,1.67.49,3,3.14,3l.4-.5c.05-2.87-.83-3.43-2.31-4.9a8.48,8.48,0,0,0-4.94-2.35H30.05c-1.35,0-5.42,1.43-5.51,2.24l-.12-.1-1.8,2.13.13.11c-.88.09-1.48,3.29-1.35,4.6l.14,1.57h-.25a15.52,15.52,0,0,1-.45-3,10.36,10.36,0,0,1,.61-2.76c.29-1.12,1.79-3.78,2.87-3.87.05-.62,3.59-2.35,4.38-2.35h3c1.95,0,.76.63,2.81-.45,0-2.14-1.69-2.14-3.82-2.14A13.38,13.38,0,0,0,21,21.85a15.72,15.72,0,0,0-2.37,4.72,14.33,14.33,0,0,0-.28,3.2c0,1.47.45,2.13.45,3-.7-.19-1.12-3.64-1.12-4.83"/><path class="cls-12" d="M63.61,46.16H64c.34,0,1.85-.85,2.36-.9l.09.12-2,1.59-.1-.13v.85l2.59.05,0,.15-2,.52-.13.67h.34a1,1,0,0,0,.9-.45h.67l0-.12L68.21,48v-.67H65c.26-1.11,2.59-1.2,2.24-2.7a3.25,3.25,0,0,0-2,.57c-.78.35-1.56.07-1.58,1"/><path class="cls-12" d="M109.53,44.93c0,1.06,2,1.4,2.24,2.38l-3.25-.14-.23.79,1.12.22c.13.48,1.72,1,2.25,1l.42,0-.42-.75H111l0-.13L109.64,48v-.22c.5,0,2.92.17,2.92-.23s-.08-.21-.12-.67c-.53-.13-1.65-.81-1.77-1.42l2.34.74V45.6c-.68-.16-2.73-1-3.15-1h-.33v.34"/><path class="cls-7" d="M67.09,50c0,.15.32.2.34.91l.45-.12c.07-.68.6-.31.67-1.13h-.78c-.26,0-.68.13-.68.34"/><path class="cls-5" d="M8.27,67.73c0,.26.08.34.33.34H51V0H8.27V67.73M50.48,51.44v.23h-42V.45l42,.11Zm-27.11,2,2.86-.16c-.22.8-.9-.11-.9.67v2.81h-1V54.14a.83.83,0,0,0-.13-.5Zm-8,.85.11,1.91c.39.1.3.22.45.22a1.59,1.59,0,0,0,.56-.11V55.6c0-.67.58-.19.79-.11l0,.53-.77.7H15.12c-.32,0-.21,0-.34-.22-.29-.43-.79-.61-.79-1.24v-.45a3.23,3.23,0,0,1,.73-1.29c.53-.43.87-.28,1.7-.19l.38.13.14.9-.17.1-.53-.88-.65,0-.25.2Zm3.26.34h1.12v.56H18.6v1h1.12c.37,0,.33.2.33.56H17.7c-.26,0-.34-.08-.34-.34V53.24h2.37l-.13.34h-1Zm10.66,0c.14.07.12.11.34.11h.67c0,.32,0,.45-.34.45h-.56v1.57h-.9c-.25,0-.33-.08-.33-.34V53.24h2.24v.34H29.6C29.11,53.58,29.26,54.09,29.26,54.59Zm4.49,1.57H34v.22h.57c.16-.45.45-.22.45-.67l0-.52.59.28-.06.13c.71-.38.47-1.58.9-2.25.93-.59,1,.32,1.34.45v.45a3.78,3.78,0,0,0,.42,1.24l.14,1.24-1-.12-.22-.56h-.9c-.08.22-.26.67-.56.67h-.34V56.5c-.76,0-.35.22-.78.22H33.41c-.31,0-.2,0-.33-.22l-.56-.57V54.47c0-.31.63-1.23,1-1.23h1.12c.37,0,.56.58.56,1h-.45c0-.53-.16-.67-.67-.67H34c-.44,0-.56,1-.56,1.46v.22A1.55,1.55,0,0,0,33.75,56.16Zm-12.46.45-.9.11V53.24h2c.49,0,.68.74.62,1.3l-.32.42.49.41c0,.68.29,1.35-.23,1.35l-.74,0L22,56.38c0-.77.23-1.17-.45-1.23v1.46Zm21.22-.34A2.69,2.69,0,0,1,42.28,54a1,1,0,0,1,.9-.78H44.3c.52,0,.9,1.08.9,1.57,0,2-.57,1.91-2.44,1.89Zm-1.35.11a1.08,1.08,0,0,1-.79.23H38.68l.12-3.26c.62-.39,2.57-.2,2.81.67v1.7ZM26.57,53.24h.89v3.37h-.89Zm4.37.11h.9v3.26h-.9ZM12.87,59H46.32v.56H12.87Zm9.21,3.14,1.23.56v.9c0,.32,0,.21-.22.34L21.51,64v-.34h-.22V63c.36,0,.56,0,.56.34v.33h.79c-.07-.83-.45-.73-1-1-.21-.07-.34-.08-.34-.45s.38-1,.79-1h.44c.52,0,.75.31.79.79h-.45c0-.32,0-.45-.34-.45h-.44Zm16.16-.45c.57-.06.28-.33.79-.33.26,0,.33.07.33.33v2.25h-.67V62.34c0-.34-.13-.31-.45-.34Zm-8.76-.11.45-.34c1.07,0,1.69.11,1.69,1.13v.89c0,.42-.31.25-.45.78l-1,.12c-.38.06-.56-.29-.56-.67h.33c.07.25,0,.34.34.34h.11c.26,0,.34-.08.34-.34V63l-1,0-.27-.18Zm-5.27.11a.61.61,0,0,1,.56-.45h.56c.44,0,0,.21.79.23,0,.78.33.44.33,1.12v.34a5.7,5.7,0,0,1-.56,1.1l-1,.13c-.23,0-.34-.13-.45-.22a2.72,2.72,0,0,1-.56-1.24v-.11A2,2,0,0,1,24.21,61.66ZM34.42,62v1.23c0,.56-.31.9-.89.9H33.3c-.91,0-1.23-.75-1.23-1.68,0-.41.55-1.24.89-1.24h.57a3.92,3.92,0,0,1,.89.45ZM35,63.23v-1a1.12,1.12,0,0,1,1.12-1,1.22,1.22,0,0,1,1.23,1v1c0,.5-.77.9-1.34.9A1.09,1.09,0,0,1,35,63.23ZM20.39,64h-.34V61.44h.68v2.24C20.73,63.94,20.65,64,20.39,64Z"/><path class="cls-13" d="M50.48,51.44H18.82c-1.24,0-10.1.28-10.1-.34V.9c0-.62,9-.34,10.21-.34H50.48L8.49.45V51.67h42v-.23"/><path class="cls-12" d="M67.2,49.21l-.34.15-1.68.28V50l.34,0,1-.14L67.2,51v.45a1,1,0,0,0-.67.79v.34c.69,0,1-.9,1.61-1.42a3.59,3.59,0,0,0,1.08-2l-2,.07m-.11.77c0-.21.42-.34.68-.34h.78c-.07.82-.6.45-.67,1.13l-.45.12C67.41,50.18,67.09,50.13,67.09,50Z"/><path class="cls-12" d="M67,53.05c0,.28,0,.41.31.41s1.38-1.33,2.21-1.32l-.39,1.15-.14,0c0,.8-.34,1-.34,1.8,0,.25,0,.13.12.45a13.72,13.72,0,0,0,3-2.25v-.45c-1.15,0-1.45,1.26-2.27,1.34l.13-1L70,53c0-1.3.48-.67.11-2.24L70,50.66l-3,2.39"/><path class="cls-7" d="M21.29,54.7h.56c.17-.12.34-.15.34-.45V54c0-.3-.17-.33-.34-.44H21.4l-.11,1.12"/><path class="cls-9" d="M37.34,56.61l1,.12-.14-1.24a3.78,3.78,0,0,1-.42-1.24V53.8c-.33-.13-.41-1-1.34-.45v.79c.31,0,.44,0,.44.33v.34h.23v.9c0,.25.09.25.22.45v.45"/><path class="cls-12" d="M42.28,54l.72-.55.07.11v2.83l-.55-.14.25.43c1.87,0,2.44.07,2.44-1.89,0-.49-.38-1.57-.9-1.57H43.18a1,1,0,0,0-.9.78m.79.23c.25-.4-.09-.79.45-.79H44a6.27,6.27,0,0,1,.11.79v1.91h-.23v.25l-.61-.13Z"/><rect class="cls-18" x="26.57" y="53.24" width="0.9" height="3.37"/><path class="cls-4" d="M42.28,54a2.69,2.69,0,0,0,.23,2.25l.55.14V53.58L43,53.47l-.72.55"/><path class="cls-7" d="M36.21,55.48H37c-.06-.67-.23-.24-.23-.68v-.34h-.42l-.15,1"/><path class="cls-9" d="M23.37,53.4l.82.24a.83.83,0,0,1,.13.5v2.58h1V53.91c0-.78.68.13.9-.67l-2.86.16"/><path class="cls-3" d="M43.07,54.25l.17,2,.61.13v-.25h.23V54.25a6.27,6.27,0,0,0-.11-.79h-.45c-.54,0-.2.39-.45.79"/><path class="cls-10" d="M71.25,54.59l0,.26-1.77.64c-.08,1,.27.78,1.15.3l1.09.93c0,.66-.22.23-.22.68v.33a1.55,1.55,0,0,0,.11.56H72l1-2.23c0-.84.22-.7.22-1v-.57c0-.25-.07-.33-.33-.33h-.34c-.32,0-.72.44-1.23.45M72,56.16c-.58,0-.7-.3-.9-.67l0-.12,1.51-.67C72.57,55,72.22,56.16,72,56.16Z"/><path class="cls-7" d="M40.6,55.93V54c-.24-.27-.19-.56-.56-.56H39.7l0,3,.85-.55"/><path class="cls-8" d="M72,56.16c.19,0,.54-1.19.56-1.46l-1.51.67,0,.12c.2.37.32.67.9.67"/><path class="cls-15" d="M29.26,54.59c0-.5-.15-1,.34-1h.78v-.34H28.14v3.14c0,.26.08.34.33.34h.9V55.15h.56c.34,0,.31-.13.34-.45H29.6c-.22,0-.2,0-.34-.11m0,0c0,.47,0,2-.45,2h-.45V53.46H29v1.13Z"/><polyline class="cls-4" points="40.6 54.02 40.6 56.38 41.16 56.38 41.62 55.72 41.61 54.02 41.27 53.58 40.6 53.58 40.6 54.02"/><path class="cls-12" d="M14.78,56.5l1,0-.39-.28c0-.76-.22-.35-.22-.78V54.25h.22V53.8l.25-.2.65,0,.53.88.17-.1-.14-.9-.38-.13c-.83-.09-1.17-.24-1.7.19A3.23,3.23,0,0,0,14,54.81v.45c0,.63.5.81.79,1.24"/><path class="cls-4" d="M29.26,54.59H29V53.46h-.68v3.15h.45c.47,0,.45-1.55.45-2"/><rect class="cls-18" x="30.94" y="53.35" width="0.9" height="3.26"/><path class="cls-9" d="M33.08,56.5l1.46.11V56.5h-.66l-.13-.33a1.55,1.55,0,0,1-.34-.9V55c0-.49.12-1.46.56-1.46h.12c.51,0,.66.14.67.67h.45c0-.43-.19-1-.56-1H33.53c-.38,0-1,.92-1,1.23v1.47l.56.56"/><path class="cls-4" d="M38.8,53.35V56.5h.68V53.69c0-.43,0,0,.11-.34H38.8"/><path class="cls-19" d="M18.6,54.59l.78.11v.22h-.56c-.26,0-.34.08-.34.34v1h1.35v.34H17.58V53.35h2v.23l.13-.34H17.36v3.14c0,.26.08.34.34.34h2.35c0-.36,0-.56-.33-.56H18.6v-1h1.12v-.56H18.6"/><path class="cls-9" d="M18.6,54.59v-1h1v-.23h-2v3.26h2.25v-.34H18.48v-1c0-.26.08-.34.34-.34h.56V54.7l-.78-.11"/><path class="cls-10" d="M41.16,56.38H40.6v-.45l-.85.55,0-3H40c.37,0,.32.29.56.56v-.44h.67l.34.44c-.24-.87-2.19-1.06-2.81-.67l-.12,3.26h1.69a1.08,1.08,0,0,0,.79-.23m-2.36-3h.79c-.15.3-.11-.09-.11.34V56.5H38.8Z"/><path class="cls-12" d="M21.29,56.61h.22V55.15c.68.06.45.46.45,1.23l.27.32.74,0c.52,0,.23-.67.23-1.35L22.71,55l.32-.42c.06-.56-.13-1.3-.62-1.3h-2v3.48l.9-.11m0-1.91v1.91H20.5V53.35h.56c.32,0,.21,0,.34.23h.45c.17.11.34.14.34.44v.23c0,.3-.17.33-.34.45Z"/><path class="cls-15" d="M14.78,56.5c.13.17,0,.22.34.22h1.34l.77-.7,0-.53c-.21-.08-.79-.56-.79.11v.67a1.59,1.59,0,0,1-.56.11c-.15,0-.06-.12-.45-.22l-.11-1.91h-.22v1.24c0,.43.2,0,.22.78l.39.28-1,0"/><path class="cls-4" d="M21.29,56.61V54.7l.11-1.12c-.13-.18,0-.23-.34-.23H20.5v3.26h.79"/><path class="cls-17" d="M33.75,56.16l.13.33h.66v.11l-1.46-.11c.13.17,0,.22.33.22h1.13c.43,0,0-.21.78-.22v.22h.34c.3,0,.48-.45.56-.67h.9l.22.56v-.45c-.13-.2-.22-.2-.22-.45v-.9h-.23v-.34c0-.33-.13-.31-.44-.33v-.79c-.43.67-.19,1.87-.9,2.25l.06-.13L35,55.19l0,.52c0,.45-.29.22-.45.67H34v-.22h-.22m2.61-1.68h.42v.34c0,.44.17,0,.23.68h-.8Z"/><path class="cls-12" d="M102.34,55.6v1.8a9.69,9.69,0,0,1-1.46-.45h-.78l-.08.11.75.53,1.35.14c.31.59.88.59.89,1.46h.79v-.56a1.52,1.52,0,0,1-1-1.57v-1.8c-.32,0-.45,0-.45.34"/><path class="cls-10" d="M106.71,50.63l-2,2.7.18.13c-1.71,0-2.18,2.47-1.12,2.47h.56c.89,0,1.18-.56,2.14-.56v.56c0,1-1.26.79-1.91.79,0,1.89,2.39.57,2.46-.92.1-2.1-2.19-.29-3.25-.54,0-2,1.59-.4,1.68-1.57l-.22-.17.81-1.1.14.22,2.56,1.84.2-.25-2.63-2.39.16-.16.56-.24,0-.61,2.84,1.4-.06.11c.81,0,1.33-1.13,1.35-1.91h.36l-.09-.79-.22-.1-1.17,2c-2.08-.48-.33-1.16-.23-2.36l-.24-.16-1,1.54.12.13-1.12-.23-.11-.1,1.07-2-.31-.19-1.55,2.48"/><path class="cls-12" d="M76.92,58.28l-.3.52-.9,2.13.13.06c.69.16,1.7.9,2,.9h.56l0-.37-1.77-.76c0-.45.08-1.12.45-1.12.65,0,1.3.68,1.57.68H79c0-.63-1.14-1.08-1.69-1.13l.16-.85.18-.27c.69.06,1.48.9,1.91.9H80c0-.72-.19-.68-.86-.75l-1.44-.71.06-.11h-.54l-.3.88"/><path class="cls-12" d="M72.82,58.07a2.36,2.36,0,0,0,1.79,2h.45c.53,0,.5-.71,1-.9l-.09-.4-.16-.32-1.09-.4v.34c0,.37.29.27.55.67l-.11.34c-1.55,0-1.09-.53-1.79-.79v-1L74.5,56.5c.74,0,1.57.39,1.57,1V58h.68v-.34c0-1-1.07-1.15-1.24-1.57-1.23,0-1.22-.19-1.9.45a2.1,2.1,0,0,0-.79,1.57"/><rect class="cls-20" x="12.87" y="58.97" width="33.45" height="0.56"/><path class="cls-12" d="M97.85,58.74a.85.85,0,0,0,.9.9h.45c.49,0,.41-.22.9-.22H101v.67c0,.46-1,.67-1.57.67l0-.13-.7-.09c0,.56.49.79,1,.79H100c.52,0,.34-.21,1-.23.06-.72.45-.41.45-.9v-.78c0-.9-2-.45-2.92-.45v-.68c.33-.11.54-.48.79-.47l1,.14c0-.34-.08-.56-.45-.56H99c-.43,0-1.12.82-1.12,1.34"/><path class="cls-9" d="M86.51,63.57c-.7-.45-2.24.09-2.24-.56v-.79c0-.48.51-.33,1-.33v.22l1.29,0-.39-.63H84.6c-.17-.27-.28-1.12.23-1.12l.9,0,1,.14v-.32L85.5,60H84.16v.9h-.23v1.57h-.22v.9c0,.52.8.33,1.35.33.74,0,.7.23,1.45.23v-.34"/><path class="cls-10" d="M89.54,62.79l.34.11V60.2h.34v3.6h-.45V64c.88,0,.8-.45.65-1.43a13.91,13.91,0,0,1-.09-2.07l1.36-.09.1,2.24c.38.57,0,1.13.56,1.13.71,0,0-2.12,0-2.59v-.88l1.12-.24v-.45l-1,0-2.36.43h-.33v2.7h-.23"/><path class="cls-12" d="M79.33,62v.45H80v-.34c0-.61.44-1.61.45-2.13h.22c0,.61-.1,2.92.34,2.92a1.86,1.86,0,0,0,.56-.11l-.09-.07,1.32-1.93.18.1-.26.78-.14,1.56h.29l.5-2.23h.22a3.25,3.25,0,0,1,.23-1.12.5.5,0,0,0-.56-.45A12.48,12.48,0,0,0,81.57,62c-.71-.19-.45-2.14-.43-3.08l-.91-.18c0,.87-.9,2.83-.9,3.26"/><path class="cls-15" d="M21.63,62.67c-.21-.42-.28-1.05.32-1.12l.13.56v-.56h.44c.34,0,.31.13.34.45h.45c0-.48-.27-.79-.79-.79h-.44c-.41,0-.79.55-.79,1s.13.38.34.45"/><path class="cls-12" d="M30.27,63.8c-.31,0-.27-.09-.34-.34H29.6c0,.38.18.73.56.67l1-.12c.14-.53.45-.36.45-.78v-.89c0-1-.62-1.13-1.69-1.13l-.45.34v1.24l.27.18,1,0v.45c0,.26-.08.34-.34.34h-.11m0-1.35v-.77l.33-.13c.13.2.22.2.22.45v.45c0,.18-.07.34-.22.34S30.27,62.71,30.27,62.45Z"/><path class="cls-7" d="M30.27,62.45c0,.26.08.34.34.34s.22-.16.22-.34V62c0-.25-.09-.25-.22-.45l-.33.13v.77"/><path class="cls-9" d="M24.21,61.66a2,2,0,0,0-.34.9v.11a2.72,2.72,0,0,0,.56,1.24h.45c-.13-.2-.22-.2-.22-.45V62.11a2.28,2.28,0,0,1,.1-.59l-.55.14"/><path class="cls-10" d="M34.42,63.23l-.45.68H33.4l.13-.22h-.34v-.22H33V62c0-.22.2-.45.34-.45.55,0,.34,1.16.34,1.69l.18-1.78.6.54v-.34a3.92,3.92,0,0,0-.89-.45H33c-.34,0-.89.83-.89,1.24,0,.93.32,1.68,1.23,1.68h.23c.58,0,.85-.34.89-.89"/><path class="cls-7" d="M33.53,63.68l.11-.45c0-.52.21-1.68-.34-1.68-.14,0-.34.23-.34.45v1.46h.23v.22h.34"/><path class="cls-9" d="M21.63,62.67c.56.28.94.18,1,1l-.12.23h.57c.17-.13.22,0,.22-.34v-.9l-1.23-.56L22,61.55c-.6.07-.53.7-.32,1.12"/><path class="cls-7" d="M35.77,62.34l0,.34.13,1h.55l.13-1a3.22,3.22,0,0,0-.23-1c-.45,0-.56.22-.56.68"/><path class="cls-13" d="M86.51,63.57v.34c-.75,0-.71-.22-1.45-.23-.55,0-1.35.19-1.35-.33v-.9h.22V60.88h.23V60H85.5l1.23.13v.32l-1-.14-.9,0c-.51,0-.4.85-.23,1.12,0-.5-.15-1,.34-1s.62.22,1.24.22H87l0,.68.26,1.9v-3c1.06,0,.59.51,1.34,1v-.33c-.41-.28-.53-.79-.89-.79h-.79v-.22H85.61c-.62,0-1.57-.37-1.57.22v.56h-.22v1c0,.49-.23.41-.23.9v.9c0,.52.9.34,1.46.34.21.13.2.22.45.22h1.14l-.13-.45"/><path class="cls-9" d="M87.19,63.23l.11.68h.45V61.33l.1-.08,1.92,2.55h.45V60.2h-.34v2.7l-.34-.11-1-1.58c-.75-.5-.28-1-1.34-1v3"/><path class="cls-3" d="M24.77,62.11v1a1.55,1.55,0,0,0,.11.56h.56a5.81,5.81,0,0,0,.12-.78V61.78h-.23v-.23H25c-.12.48-.22.2-.22.56"/><path class="cls-10" d="M24.21,61.66l.55-.14a2.28,2.28,0,0,0-.1.59v1.35c0,.25.09.25.22.45h-.45c.11.09.22.26.45.22l1-.13a5.7,5.7,0,0,0,.56-1.1v-.34c0-.68-.32-.34-.33-1.12-.77,0-.35-.23-.79-.23h-.56a.61.61,0,0,0-.56.45m.56.45c0-.36.1-.08.22-.56h.34v.23h.23V62.9a5.81,5.81,0,0,1-.12.78h-.56a1.55,1.55,0,0,1-.11-.56Z"/><polyline class="cls-9" points="33.64 63.23 33.53 63.69 33.4 63.9 33.98 63.91 34.42 63.23 34.42 62 33.82 61.47 33.64 63.23"/><path class="cls-9" d="M20.39,64c.26,0,.34-.08.34-.34V61.44h-.68V64h.34"/><path class="cls-9" d="M38.69,62.34v1.57h.67V61.66c0-.26-.07-.33-.33-.33-.51,0-.22.27-.79.33V62c.32,0,.45,0,.45.34"/><path class="cls-19" d="M23.09,63.91h-.57l.12-.23h-.79v-.33c0-.38-.2-.33-.56-.34v.67h.22V64l1.58-.11"/><path class="cls-12" d="M35,63.23a1.09,1.09,0,0,0,1,.9c.57,0,1.34-.4,1.34-.9v-1a1.22,1.22,0,0,0-1.23-1,1.12,1.12,0,0,0-1.12,1v1m.78-.89c0-.46.11-.64.56-.68a3.22,3.22,0,0,1,.23,1l-.13,1h-.55l-.13-1Z"/><path class="cls-5" d="M58.22,38.52l.12,2.14.11.22.11,1.46.11.12.11,1,.12.11.11.56.11.23.11.56.12.22.11.34.11.34h.22v.67H60V47l.74,1.31.27,0-.16.09L64.22,54c.49.07,3.56,4.11,4.31,4.76s4.69,3.51,5.52,3.58c.12,1.46,9.59,3.7,12.13,3.7h3.48a31.84,31.84,0,0,0,11.48-2.66,29.8,29.8,0,0,0,4.53-2.54,47.8,47.8,0,0,0,3.83-3.25c1-.87,2.16-2.87,3.15-3.92.28-.3,2.25-3.93,2.54-4.53,1.1-2.26,3.2-7.72,3.2-10.84a1.55,1.55,0,0,0-.56-.11h-8.08c-.61,0-1.38,4-1.67,4.85s-.58,1.52-.93,2.32c-.12.29-1.1,2.14-1.1,2.15-.48.05-2.54,3.28-3.16,3.81a39.49,39.49,0,0,1-4,2.89,24.32,24.32,0,0,1-10.62,3.07,18.19,18.19,0,0,1-11.13-3.35c-.64-.43-1.66-1-2.22-1.49-.74-.59-1.08-1.3-1.76-1.83s-3-3.37-3-4.22H69.9l-.23.06-2.33-8.2.2-.06-9.2-.11h-.12v.44m5.39,7.64c0-.93.8-.65,1.58-1a3.25,3.25,0,0,1,2-.57c.35,1.5-2,1.59-2.24,2.7h3.25V48l-1.53.55,0,.12H66a1,1,0,0,1-.9.45h-.34l.13-.67,2-.52,0-.15-2.59-.05v-.85l.1.13,2-1.59-.09-.12c-.51.05-2,.9-2.36.9Zm44.91,1,3.25.14c-.25-1-2.24-1.32-2.24-2.38v-.34h.33c.42,0,2.47.85,3.15,1v.56l-2.34-.74c.12.61,1.24,1.29,1.77,1.42,0,.46.12.25.12.67s-2.42.23-2.92.23V48l1.38.32,0,.13h.67l.42.75-.42,0c-.53,0-2.12-.54-2.25-1L108.29,48Zm-.26,1,.31.19-1.07,2,.11.1,1.12.23-.12-.13,1-1.54.24.17c-.1,1.19-1.85,1.87.23,2.35l1.17-2,.22.1.09.79h-.36c0,.78-.54,1.89-1.35,1.91l.06-.11-2.84-1.4,0,.61-.56.24-.16.16L109,54.23l-.2.25-2.56-1.84-.14-.22-.81,1.1.22.17c-.09,1.17-1.68-.47-1.68,1.57,1.06.25,3.35-1.56,3.25.54-.07,1.49-2.46,2.81-2.46.92.65,0,1.91.18,1.91-.78v-.57c-1,0-1.25.57-2.14.57h-.56c-1.06,0-.59-2.48,1.12-2.48l-.18-.13,2-2.7Zm-39,1a3.59,3.59,0,0,1-1.08,2c-.62.52-.92,1.4-1.61,1.42v-.34a1,1,0,0,1,.67-.79V51l-.67-1.12-1,.14-.34,0v-.34l1.68-.28.34-.15ZM70,50.66l.08.11c.37,1.57-.11.94-.11,2.24l-.34.11-.13,1c.82-.08,1.12-1.31,2.27-1.34v.45a13.72,13.72,0,0,1-3,2.25c-.08-.32-.12-.2-.12-.45,0-.78.34-1,.34-1.8l.14,0,.39-1.15c-.83,0-2,1.32-2.21,1.32s-.31-.13-.31-.41Zm1.21,3.93c.51,0,.91-.45,1.23-.45h.34c.26,0,.33.08.33.33V55c0,.31-.22.17-.22,1l-1,2.23h-.4a1.55,1.55,0,0,1-.11-.56V57.4c0-.45.17,0,.22-.68l-1.09-.93c-.88.48-1.23.67-1.15-.3l1.77-.64Zm1.57,3.48a2.1,2.1,0,0,1,.79-1.57c.68-.64.67-.45,1.9-.45.17.42,1.24.6,1.24,1.57V58h-.68v-.45c0-.62-.83-1-1.57-1l-1.12,1.12v1c.7.26.24.79,1.79.79l.11-.34c-.26-.4-.55-.3-.55-.67v-.34l1.09.4.16.32.09.4c-.51.19-.48.9-1,.9h-.45A2.36,2.36,0,0,1,72.82,58.07Zm29.52-2.47c0-.34.13-.31.45-.34v1.8a1.52,1.52,0,0,0,1,1.57v.56H103c0-.87-.58-.87-.89-1.46l-1.35-.14-.75-.53.08-.11h.78a9.69,9.69,0,0,0,1.46.45Zm-4.49,3.14c0-.52.69-1.34,1.12-1.34h.9c.37,0,.42.22.45.56l-1-.14c-.25,0-.46.36-.79.47V59c.89,0,2.92-.45,2.92.45v.78c0,.49-.39.18-.45.9-.67,0-.49.23-1,.23h-.22c-.52,0-1-.23-1-.79l.7.09,0,.13c.6,0,1.57-.21,1.57-.67v-.67h-.89c-.49,0-.41.22-.9.22h-.45A.85.85,0,0,1,97.85,58.74ZM77.22,57.4h.54l-.06.11,1.44.71c.67.07.85,0,.86.75h-.45c-.43,0-1.22-.84-1.91-.9l-.18.27-.16.85c.55.05,1.68.5,1.69,1.13h-.34c-.27,0-.92-.68-1.57-.68-.37,0-.45.67-.45,1.12l1.77.76,0,.37h-.56c-.32,0-1.33-.74-2-.9l-.13-.06.9-2.13.3-.52ZM79.33,62c0-.43.9-2.39.9-3.26l.91.18c0,.94-.28,2.89.43,3.08a12.48,12.48,0,0,1,1.69-2.58.5.5,0,0,1,.56.45A3.25,3.25,0,0,0,83.59,61h-.22l-.5,2.23-.29,0,.14-1.57.26-.78-.18-.1-1.32,1.93.09.07a1.86,1.86,0,0,1-.56.11c-.44,0-.34-2.31-.34-2.92h-.22c0,.52-.45,1.52-.45,2.13v.34h-.67Zm10.44,1.8-1.92-2.55-.1.08v2.58H87.3l-.11-.68-.26-1.9,0-.68h-.78c-.62,0-.63-.22-1.24-.22s-.34.51-.34,1h1.58l.39.63-1.29,0v-.22c-.5,0-1-.15-1,.33V63c0,.65,1.54.11,2.24.56l.13.45H85.5c-.25,0-.24-.09-.45-.22-.56,0-1.46.18-1.46-.34v-.9c0-.49.23-.41.23-.9v-1H84v-.56c0-.59.95-.22,1.57-.22h1.24v.22h.79c.36,0,.48.51.89.79v.33l1,1.58h.23v-2.7h.33l2.36-.43,1,0v.45l-1.12.24v.88c0,.47.71,2.59,0,2.59-.53,0-.18-.56-.56-1.13l-.1-2.24-1.36.09a13.91,13.91,0,0,0,.09,2.07c.15,1,.23,1.43-.65,1.43Z"/></g><path d="M2.42,78.12l.7.22a1.59,1.59,0,0,1-.54.87,1.51,1.51,0,0,1-1,.29A1.53,1.53,0,0,1,.46,79,1.84,1.84,0,0,1,0,77.68a1.94,1.94,0,0,1,.46-1.39,1.58,1.58,0,0,1,1.22-.49,1.47,1.47,0,0,1,1.06.39,1.33,1.33,0,0,1,.37.65L2.39,77a.73.73,0,0,0-.26-.44.76.76,0,0,0-.49-.16A.82.82,0,0,0,1,76.7a1.44,1.44,0,0,0-.24.93,1.5,1.5,0,0,0,.24,1,.79.79,0,0,0,.63.29.73.73,0,0,0,.5-.18A1.07,1.07,0,0,0,2.42,78.12Z"/><path d="M5.24,78.61l.68.12a1.13,1.13,0,0,1-.42.57,1.22,1.22,0,0,1-.71.2,1.15,1.15,0,0,1-1-.45,1.47,1.47,0,0,1-.26-.89,1.45,1.45,0,0,1,.34-1,1.13,1.13,0,0,1,.85-.36,1.15,1.15,0,0,1,.92.38A1.74,1.74,0,0,1,6,78.34H4.24a.68.68,0,0,0,.16.47.51.51,0,0,0,.4.17.46.46,0,0,0,.27-.08A.62.62,0,0,0,5.24,78.61Zm0-.69a.61.61,0,0,0-.15-.45.46.46,0,0,0-.36-.16.51.51,0,0,0-.37.16.64.64,0,0,0-.14.45Z"/><path d="M7.17,79.44H6.49v-2.6h.63v.37a1,1,0,0,1,.3-.34.47.47,0,0,1,.29-.08.87.87,0,0,1,.46.13L8,77.51a.62.62,0,0,0-.32-.11.36.36,0,0,0-.24.08.53.53,0,0,0-.16.29,3.93,3.93,0,0,0-.06.87Z"/><path d="M9.65,76.84v.55H9.18v1c0,.21,0,.33,0,.37a.16.16,0,0,0,.06.08.19.19,0,0,0,.12,0,.8.8,0,0,0,.28-.07l.06.53a1.35,1.35,0,0,1-.55.11.72.72,0,0,1-.33-.07.47.47,0,0,1-.22-.16.57.57,0,0,1-.1-.26,4.57,4.57,0,0,1,0-.49V77.39H8.18v-.55h.31v-.51l.69-.4v.91Z"/><path d="M10.12,76.49v-.63h.69v.63Zm0,3v-2.6h.69v2.6Z"/><path d="M11.21,76.84h.38v-.19a1.46,1.46,0,0,1,.07-.49.59.59,0,0,1,.26-.26.94.94,0,0,1,.47-.1,1.9,1.9,0,0,1,.58.09l-.1.47a1.76,1.76,0,0,0-.31,0,.29.29,0,0,0-.21.07.38.38,0,0,0-.07.27v.18h.51v.54h-.51v2.06h-.69V77.38h-.38Z"/><path d="M13.18,76.49v-.63h.69v.63Zm0,3v-2.6h.69v2.6Z"/><path d="M16.83,77.61l-.68.12a.48.48,0,0,0-.15-.3.47.47,0,0,0-.32-.1.52.52,0,0,0-.41.17.93.93,0,0,0-.15.59,1,1,0,0,0,.16.66.52.52,0,0,0,.41.19.48.48,0,0,0,.32-.11.71.71,0,0,0,.18-.39l.67.12a1.19,1.19,0,0,1-.4.7,1.23,1.23,0,0,1-.8.24,1.2,1.2,0,0,1-.91-.36,1.42,1.42,0,0,1-.33-1,1.39,1.39,0,0,1,.34-1,1.21,1.21,0,0,1,.91-.35,1.24,1.24,0,0,1,.76.2A1.16,1.16,0,0,1,16.83,77.61Z"/><path d="M17.86,77.64l-.62-.12A1,1,0,0,1,17.6,77a1.33,1.33,0,0,1,.76-.18,1.73,1.73,0,0,1,.69.1.72.72,0,0,1,.31.28,1.43,1.43,0,0,1,.09.61v.81a3.07,3.07,0,0,0,0,.5,1.46,1.46,0,0,0,.12.35h-.68s0-.12-.06-.21a.34.34,0,0,0,0-.08,1.14,1.14,0,0,1-.37.26,1.07,1.07,0,0,1-.43.09.89.89,0,0,1-.63-.22.75.75,0,0,1-.23-.55.71.71,0,0,1,.1-.39.66.66,0,0,1,.3-.27,2.55,2.55,0,0,1,.54-.16,4.12,4.12,0,0,0,.67-.16v-.07a.33.33,0,0,0-.1-.28.55.55,0,0,0-.37-.09.47.47,0,0,0-.28.07A.51.51,0,0,0,17.86,77.64Zm.92.55-.42.11a1.19,1.19,0,0,0-.37.12.28.28,0,0,0-.14.24.36.36,0,0,0,.11.25.37.37,0,0,0,.28.1.59.59,0,0,0,.35-.12.41.41,0,0,0,.16-.23,1.16,1.16,0,0,0,0-.33Z"/><path d="M22.51,79.44h-.64v-.38a1.16,1.16,0,0,1-.37.33,1,1,0,0,1-.44.11,1,1,0,0,1-.77-.36,1.49,1.49,0,0,1-.31-1,1.43,1.43,0,0,1,.31-1,1,1,0,0,1,.78-.34,1,1,0,0,1,.75.36V75.86h.69Zm-1.83-1.36a1.32,1.32,0,0,0,.11.61.54.54,0,0,0,.47.26.49.49,0,0,0,.4-.2.92.92,0,0,0,.16-.6,1,1,0,0,0-.16-.64.5.5,0,0,0-.41-.2.55.55,0,0,0-.41.19A.89.89,0,0,0,20.68,78.08Z"/><path d="M23,78.1a1.46,1.46,0,0,1,.16-.66,1.26,1.26,0,0,1,.48-.49,1.46,1.46,0,0,1,.69-.16,1.28,1.28,0,0,1,1.34,1.34,1.35,1.35,0,0,1-.38,1,1.27,1.27,0,0,1-.95.39,1.46,1.46,0,0,1-.68-.17,1.08,1.08,0,0,1-.5-.47A1.58,1.58,0,0,1,23,78.1Zm.7,0a.85.85,0,0,0,.18.59.59.59,0,0,0,.9,0,.85.85,0,0,0,.19-.59.87.87,0,0,0-.19-.59.61.61,0,0,0-.9,0A.87.87,0,0,0,23.73,78.14Z"/><path d="M27.64,79.44V75.86h.7l1.47,2.39V75.86h.67v3.58h-.73L28.31,77.1v2.34Z"/><path d="M31.09,76.58a.79.79,0,0,1,.23-.56.74.74,0,0,1,.55-.22.73.73,0,0,1,.55.23.75.75,0,0,1,.23.55.78.78,0,0,1-.23.55.76.76,0,0,1-.55.23.75.75,0,0,1-.55-.23A.78.78,0,0,1,31.09,76.58Zm.4,0a.36.36,0,0,0,.11.26.4.4,0,0,0,.27.11.36.36,0,0,0,.26-.11.33.33,0,0,0,.11-.26.35.35,0,0,0-.11-.27.36.36,0,0,0-.26-.11.4.4,0,0,0-.27.11A.39.39,0,0,0,31.49,76.58Z"/><path d="M34.45,78.27l.7-.07a.83.83,0,0,0,.26.52.73.73,0,0,0,.52.17.8.8,0,0,0,.53-.15.43.43,0,0,0,.18-.34.33.33,0,0,0-.08-.22A.58.58,0,0,0,36.3,78a5.59,5.59,0,0,0-.58-.16,1.93,1.93,0,0,1-.81-.35.94.94,0,0,1-.33-.72,1,1,0,0,1,.15-.52,1.08,1.08,0,0,1,.45-.36,1.83,1.83,0,0,1,.7-.12,1.57,1.57,0,0,1,1,.29,1.11,1.11,0,0,1,.36.79l-.73,0a.57.57,0,0,0-.2-.39.71.71,0,0,0-.45-.12.9.9,0,0,0-.5.12.28.28,0,0,0-.11.23.25.25,0,0,0,.11.21,1.74,1.74,0,0,0,.66.24,3.87,3.87,0,0,1,.78.26,1,1,0,0,1,.4.37,1.09,1.09,0,0,1,.14.57,1,1,0,0,1-.66,1,1.9,1.9,0,0,1-.77.13,1.55,1.55,0,0,1-1-.31A1.4,1.4,0,0,1,34.45,78.27Z"/><path d="M40.26,78.12l.7.22a1.59,1.59,0,0,1-.54.87,1.51,1.51,0,0,1-1,.29A1.53,1.53,0,0,1,38.3,79a1.84,1.84,0,0,1-.46-1.33,1.94,1.94,0,0,1,.46-1.39,1.58,1.58,0,0,1,1.22-.49,1.47,1.47,0,0,1,1.06.39,1.33,1.33,0,0,1,.37.65l-.72.18a.73.73,0,0,0-.26-.44.76.76,0,0,0-.49-.16.82.82,0,0,0-.65.28,1.44,1.44,0,0,0-.25.93,1.49,1.49,0,0,0,.25,1,.79.79,0,0,0,.63.29.73.73,0,0,0,.5-.18A1.07,1.07,0,0,0,40.26,78.12Z"/><path d="M44.16,79.44v-.72H42.7v-.6l1.55-2.28h.58v2.27h.44v.61h-.44v.72Zm0-1.33V76.89l-.82,1.22Z"/><path d="M46.94,79.44v-.72H45.48v-.6L47,75.84h.58v2.27h.44v.61h-.44v.72Zm0-1.33V76.89l-.82,1.22Z"/><path d="M48.39,78.52l.68-.07a.61.61,0,0,0,.17.36.49.49,0,0,0,.34.14.45.45,0,0,0,.36-.18.77.77,0,0,0,.15-.52.73.73,0,0,0-.15-.5.49.49,0,0,0-.38-.16.7.7,0,0,0-.53.26l-.56-.08.35-1.86h1.81v.64H49.34l-.11.61A1,1,0,0,1,49.7,77a1.05,1.05,0,0,1,.78.33,1.22,1.22,0,0,1,.31.87,1.27,1.27,0,0,1-.25.78,1.15,1.15,0,0,1-1,.48,1.2,1.2,0,0,1-.81-.27A1.05,1.05,0,0,1,48.39,78.52Z"/><path d="M52.5,79.44v-.72H51v-.6l1.55-2.28h.58v2.27h.44v.61h-.44v.72Zm0-1.33V76.89l-.82,1.22Z"/><path d="M53.93,78v-.64h2.51V78Z"/><path d="M58.61,79.44h-.68V76.85a2.28,2.28,0,0,1-.89.52v-.62a1.93,1.93,0,0,0,.58-.33,1.27,1.27,0,0,0,.44-.58h.55Z"/></svg>