<svg id="Capa_1" data-name="Capa 1" xmlns="http://www.w3.org/2000/svg" xmlns:xlink="http://www.w3.org/1999/xlink" viewBox="0 0 67.79 67.79"><defs><style>.cls-1,.cls-10,.cls-11,.cls-14,.cls-15,.cls-16,.cls-17,.cls-18,.cls-19,.cls-20,.cls-21,.cls-22,.cls-23,.cls-26,.cls-31,.cls-32,.cls-33,.cls-34,.cls-35,.cls-36,.cls-37,.cls-38,.cls-39,.cls-40,.cls-5,.cls-6,.cls-8,.cls-9{fill:none;}.cls-1{clip-rule:evenodd;}.cls-2,.cls-4{fill:#fff;}.cls-12,.cls-13,.cls-2,.cls-3{fill-rule:evenodd;}.cls-3,.cls-7{fill:#1d1d1b;}.cls-31,.cls-5{stroke:#fff;}.cls-10,.cls-11,.cls-14,.cls-15,.cls-16,.cls-17,.cls-18,.cls-19,.cls-20,.cls-21,.cls-22,.cls-23,.cls-31,.cls-32,.cls-33,.cls-34,.cls-35,.cls-36,.cls-37,.cls-38,.cls-40,.cls-5,.cls-6,.cls-8{stroke-miterlimit:22.93;}.cls-5{stroke-width:0.06px;}.cls-10,.cls-11,.cls-14,.cls-15,.cls-16,.cls-17,.cls-18,.cls-19,.cls-20,.cls-21,.cls-22,.cls-23,.cls-26,.cls-32,.cls-33,.cls-34,.cls-35,.cls-36,.cls-37,.cls-38,.cls-39,.cls-40,.cls-6,.cls-8,.cls-9{stroke:#1d1d1b;}.cls-26,.cls-6,.cls-9{stroke-width:0.09px;}.cls-8{stroke-width:0.05px;}.cls-39,.cls-9{stroke-linecap:round;}.cls-26,.cls-39,.cls-9{stroke-linejoin:round;}.cls-10{stroke-width:0.09px;}.cls-11{stroke-width:0.09px;}.cls-12{fill:#dadada;}.cls-13{fill:#c6c6c6;}.cls-14{stroke-width:0.06px;}.cls-15{stroke-width:0.05px;}.cls-16{stroke-width:0.03px;}.cls-17,.cls-31{stroke-width:0.03px;}.cls-18{stroke-width:0.03px;}.cls-19{stroke-width:0.03px;}.cls-20{stroke-width:0.04px;}.cls-21{stroke-width:0.06px;}.cls-22{stroke-width:0.05px;}.cls-23{stroke-width:0.03px;}.cls-24{clip-path:url(#clip-path);}.cls-25{fill:url(#Degradado_sin_nombre);}.cls-27{clip-path:url(#clip-path-2);}.cls-28{fill:url(#Degradado_sin_nombre_2);}.cls-29{clip-path:url(#clip-path-3);}.cls-30{fill:url(#Degradado_sin_nombre_3);}.cls-32{stroke-width:0.27px;}.cls-33{stroke-width:0.26px;}.cls-34{stroke-width:0.25px;}.cls-35{stroke-width:0.03px;}.cls-36{stroke-width:0.06px;}.cls-37{stroke-width:0.09px;}.cls-38{stroke-width:0.15px;}.cls-39{stroke-width:0.06px;}.cls-40{stroke-width:0.02px;}</style><clipPath id="clip-path"><path class="cls-1" d="M38.49,51.22a.78.78,0,0,0-.49.1,1,1,0,0,0-.71-.13c-.42,0-.4-.33-1-.08.18-.33.61-.33,1.13-.49a.91.91,0,0,1,.5-.25,2.49,2.49,0,0,1,1-.47c-.57-.08-1.2,0-1.77-.11-.25-.13-.57,0-.8-.11a3.16,3.16,0,0,1,.93-.29c.22-.07.32-.4.57-.36.25-.31.59-.37.88-.6l-2.17,0a.43.43,0,0,0-.52-.14.68.68,0,0,0-.46-.18c-.21.07-.31-.06-.57,0,0-.33.63-.14,1-.4a1.18,1.18,0,0,1,.93-.42.29.29,0,0,0-.28-.3.86.86,0,0,1-.4-.27,7.87,7.87,0,0,1-1.52-.55.66.66,0,0,1,.26-.15c.33-.12.14-.38.58-.63.1-.55.28-.81.73-1a2.39,2.39,0,0,0,.77-.56c.26-.08.33-.43.63-.5.21-.22-.06-.76.41-.75a.78.78,0,0,1,.52-.11l.41,0h.41a.46.46,0,0,1,.47.1.8.8,0,0,1,.64.08.52.52,0,0,0,.61.19.69.69,0,0,1,.51,0A.53.53,0,0,0,42,43a1.32,1.32,0,0,1,.71.12c.24.08.22.38.57.42s.23.41.66.5.21.23.57.29c.18.17.59.42.73.56A37.22,37.22,0,0,1,38.49,51.22Z"/></clipPath><linearGradient id="Degradado_sin_nombre" x1="-82.02" y1="1459.96" x2="-68.18" y2="1459.96" gradientTransform="translate(-738.71 -618.41) rotate(-52.43) scale(0.7)" gradientUnits="userSpaceOnUse"><stop offset="0" stop-color="#ededed"/><stop offset="0.4" stop-color="#9d9d9c"/><stop offset="1" stop-color="#1d1d1b"/></linearGradient><clipPath id="clip-path-2"><path class="cls-1" d="M26.41,42c0-.3.11-.46.24-.49a.41.41,0,0,1,.32-.41.32.32,0,0,0,.25-.21,1.45,1.45,0,0,1,.5-.57c.09-.11.13-.32.27-.32s.12-.34.39-.36l.57-.48q.23-.25.42.09a5.05,5.05,0,0,1,.26.59c.2.12.21.35.31.44s.08.26.17.29.06.24.18.34c.14.35.57.86.58,1.22a.32.32,0,0,0,.18.29c.24.1.16.35.28.45s.33.44.39.66c.33.16.26.4.46.53s.19.13.23.31a.56.56,0,0,0,.29.31c.32.09.21.34.31.51a.32.32,0,0,0,.28.24c.32.13.44.41.65.62.38.24,1.13.57,1.19.83a1.87,1.87,0,0,0-.61.11,2,2,0,0,0-.85.09.69.69,0,0,1-.52.12.61.61,0,0,1-.34.2L31,46.54c-.81-.3-1.85-.2-2.13-1.4l-1.95-2.36Z"/></clipPath><linearGradient id="Degradado_sin_nombre_2" x1="235.16" y1="835.14" x2="248.07" y2="835.14" gradientTransform="matrix(0.7, -0.06, 0.06, 0.7, -188.66, -524.36)" gradientUnits="userSpaceOnUse"><stop offset="0" stop-color="#1d1d1b"/><stop offset="0.66" stop-color="#9d9d9c"/><stop offset="0.93" stop-color="#9d9d9c"/><stop offset="1" stop-color="#ededed"/></linearGradient><clipPath id="clip-path-3"><path class="cls-1" d="M32.84,47.43c.23.39.86.65,1.29,1-.9.3-1.84,0-2.76.38a2.91,2.91,0,0,1,.73.41.73.73,0,0,0,.56.21c.34,0,.71.29,1.13.33-.59.4-2,0-2.93.37.14.14.47.16.49.27a2.47,2.47,0,0,0,.76.29,3.26,3.26,0,0,1,.82.35.93.93,0,0,1-.53.11,1,1,0,0,0-.63,0,1.44,1.44,0,0,1-1-.11c-.24-.07-.86.23-1.1.3L28,50.05c-1.14-.81-2.14-1.76-3.16-2.64L22,44.59a2.45,2.45,0,0,1-.88-1.29L21,42.54V40.37c.3-.2.49-.58.67-.69.18-.29.45-.24.48-.48s.17-.22.27-.2c.22-.21.54-.85.85-.56.24.07.61-.21.79.25l.14.34c.09.13.26,0,.47.35.17.1.35.13.42.38.51.44.44.69.63,1.1.06.11-.06.37.17.48a.45.45,0,0,1,.16.41.17.17,0,0,0,.11.18c.28-.08.45.47.67.7,0,0,0,.1.13.16a1.37,1.37,0,0,1,.83,1,.93.93,0,0,0,.36.56c.57.31.64,1,1.42,1.56A16.25,16.25,0,0,1,32.84,47.43Z"/></clipPath><linearGradient id="Degradado_sin_nombre_3" x1="-39.73" y1="1420.84" x2="-18.53" y2="1420.84" gradientTransform="matrix(0.46, -0.52, 0.52, 0.46, -702.5, -630.73)" gradientUnits="userSpaceOnUse"><stop offset="0" stop-color="#ededed"/><stop offset="0.01" stop-color="#ededed"/><stop offset="0.55" stop-color="#706f6f"/><stop offset="1" stop-color="#1d1d1b"/></linearGradient></defs><path class="cls-2" d="M34.13,8.54A26.12,26.12,0,1,1,15.65,16.2,26,26,0,0,1,34.13,8.54"/><path class="cls-3" d="M33.91,0a33.9,33.9,0,1,1-24,9.93A33.74,33.74,0,0,1,33.91,0"/><path class="cls-2" d="M33.91,7.1a26.78,26.78,0,1,1-19,7.85,26.71,26.71,0,0,1,19-7.85"/><path class="cls-4" d="M62.88,27.25l2.36-1.77-2.94-.13c.19.63.38,1.27.58,1.9m-.33.25c-.22-.72-.45-1.45-.67-2.18l-1-.05c-.06-.17-.11-.34-.16-.52l4.84.25c.06.24.14.46.22.69l-3.86,2.94q-.07-.24-.15-.51Zm1.22-5.89c-1.23.58-2.47,1.14-3.69,1.71a3.82,3.82,0,0,1-.21-.46q1.85-.84,3.69-1.71c-.21-.44-.42-.89-.62-1.34l.43-.2c.48,1.05,1,2.08,1.45,3.12l-.43.19C64.18,22.5,64,22.05,63.77,21.61Zm-2.11-4.12c-.38-.59-.68-.89-.88-.91a4,4,0,0,0-1.48.74c-.79.51-1.22.86-1.28,1.05s.09.59.47,1.19.69.91.89.93a4.15,4.15,0,0,0,1.48-.75l.25-.16.36-.24c.43-.28.65-.52.67-.73A2.25,2.25,0,0,0,61.66,17.49Zm.36-.23c.48.72.66,1.24.57,1.56s-.56.75-1.41,1.3a4,4,0,0,1-1.85.83c-.32,0-.72-.42-1.19-1.15s-.66-1.25-.56-1.57.57-.75,1.45-1.32l.27-.18.37-.21a1.54,1.54,0,0,1,1.25-.34A2.54,2.54,0,0,1,62,17.26Zm-7-2.19,1,1.08c.37.39.69.57,1,.54a2.83,2.83,0,0,0,1.22-.82,3.62,3.62,0,0,0,1-1.23c.06-.24-.08-.56-.43-.93s-.72-.77-1.07-1.16C56.86,13.4,56,14.23,55.07,15.07ZM54.4,15l3.32-3.11,1.43,1.53a1.6,1.6,0,0,1,.57,1.26,2.67,2.67,0,0,1-1,1.39,4.41,4.41,0,0,1-1.64,1.11,1.37,1.37,0,0,1-1.21-.55Zm-1.25-4.25,1.13.94a1.32,1.32,0,0,0,.72.38.86.86,0,0,0,.59-.38c.27-.32.41-.56.4-.72s-.13-.35-.4-.57L54.33,9.33C53.94,9.81,53.54,10.27,53.15,10.74Zm-1.86,1.41,2.93-3.48,1.65,1.39a1.46,1.46,0,0,1,.6.87,1.38,1.38,0,0,1-.42,1,1.67,1.67,0,0,1-.69.57.87.87,0,0,1-.68-.15h0c.35.33.34.71,0,1.14s-.51.6-.75.89L53.52,14l.67-.8c.34-.41.34-.76,0-1.05l-.13-.11-1.18-1c-.4.48-.8.95-1.18,1.42Zm-.46-2.05c.2-.95.4-1.91.61-2.88l-2.3,1.83C49.7,9.41,50.26,9.76,50.83,10.1Zm-.08.4-2-1.2c-.26.22-.54.42-.81.63l-.46-.29c1.28-1,2.55-2,3.82-3l.61.38c-.33,1.59-.65,3.16-1,4.74l-.46-.28C50.6,11.17,50.68,10.84,50.75,10.5ZM45.41,6.21l1.34.61a1.22,1.22,0,0,0,.8.16c.18-.05.33-.22.47-.52a1.5,1.5,0,0,0,.18-.81c0-.16-.23-.3-.54-.44l-1.51-.68C45.9,5.09,45.65,5.65,45.41,6.21ZM44,8.1c.62-1.38,1.23-2.78,1.85-4.16l2,.87a1.46,1.46,0,0,1,.82.68,1.34,1.34,0,0,1-.14,1,1.73,1.73,0,0,1-.5.74.9.9,0,0,1-.7,0h0a.74.74,0,0,1,.3,1.09c-.16.36-.32.72-.48,1.06a3.76,3.76,0,0,1-.46-.2c.14-.32.29-.63.43-1,.21-.48.11-.82-.31-1l-.15-.07-1.4-.63L44.49,8.3Zm.67-4.58-1.5,4.3-.47-.17c.49-1.44,1-2.87,1.48-4.3Zm-4,1.24,1.9.4c0,.12,0,.28-.09.49-.17.8-.37,1.29-.61,1.43a2.51,2.51,0,0,1-1.59,0c-.78-.17-1.25-.39-1.42-.67a2.36,2.36,0,0,1,0-1.59c0-.21.09-.43.14-.65L39,3.75a1.75,1.75,0,0,1,.64-1.23,2.39,2.39,0,0,1,1.56,0A3.13,3.13,0,0,1,42.65,3c.19.18.24.52.12,1l0,.16-.49-.1s0-.07,0-.11c.08-.36.06-.59-.07-.71a3,3,0,0,0-1.13-.37,1.84,1.84,0,0,0-1.13,0c-.18.11-.31.43-.44,1,0,.2-.09.4-.13.6s-.09.42-.13.63c-.11.56-.11.92,0,1.08a2.57,2.57,0,0,0,1.25.47,1.68,1.68,0,0,0,1,0c.15-.1.28-.4.39-.92a2.06,2.06,0,0,0,0-.27l-1.4-.31C40.58,5,40.61,4.9,40.64,4.76ZM33.87,2.22V3.78h2.29v.43H33.87v1.7h2.39v.44h-2.9V1.8h2.9v.42Zm-4.25,4L31.08,6c.55-.07.88-.22,1-.45a2.89,2.89,0,0,0,0-1.47,3.49,3.49,0,0,0-.4-1.54c-.16-.2-.49-.27-1-.21l-1.56.19C29.32,3.77,29.47,5,29.62,6.2Zm-.45.5c-.19-1.51-.37-3-.55-4.52l2.07-.25a1.61,1.61,0,0,1,1.36.27,2.76,2.76,0,0,1,.55,1.59,4.26,4.26,0,0,1-.07,2,1.33,1.33,0,0,1-1.15.64ZM23.86,3.8c-.68.21-1.06.4-1.13.6A3.88,3.88,0,0,0,23,6a3.82,3.82,0,0,0,.66,1.52c.16.12.58.07,1.26-.13S26,7,26.1,6.82a4.13,4.13,0,0,0-.31-1.64,2.29,2.29,0,0,1-.08-.28c-.05-.13-.1-.27-.14-.41-.14-.48-.32-.76-.52-.84A2.18,2.18,0,0,0,23.86,3.8Zm-.12-.41c.81-.25,1.36-.29,1.64-.11A3.28,3.28,0,0,1,26.24,5a3.88,3.88,0,0,1,.29,2c-.12.3-.6.59-1.43.84s-1.38.29-1.66.11a3.72,3.72,0,0,1-.87-1.77,2.8,2.8,0,0,1-.09-.31l-.12-.41a1.53,1.53,0,0,1,0-1.3A2.49,2.49,0,0,1,23.74,3.39ZM20.92,4.53q.91,2.09,1.85,4.17l-.47.2q-.93-2.07-1.85-4.16ZM18.13,8.58,19.18,8a1.89,1.89,0,0,0,.78-.6c.08-.16,0-.41-.17-.73s-.38-.61-.52-.66-.37,0-.69.17l-.17.09c-.4.23-.8.46-1.2.67C17.51,7.48,17.82,8,18.13,8.58Zm.64,2.2c-.74-1.32-1.48-2.65-2.2-4l1.64-.92.15-.08a1.43,1.43,0,0,1,1.07-.26,1.64,1.64,0,0,1,.77.84,1.44,1.44,0,0,1,.26,1.07,1.56,1.56,0,0,1-.81.78l-.17.1L18.34,9c.28.53.58,1,.87,1.57Zm-3.25-3.2,2.53,3.77-.42.28c-.85-1.25-1.69-2.51-2.54-3.77Zm.17,3.49.37-.34.11.12c.42.46.6.82.55,1.08a3.38,3.38,0,0,1-1,1.23c-.56.51-1,.73-1.35.66a3.68,3.68,0,0,1-1.51-1.22,8.85,8.85,0,0,1-.95-1.15,1,1,0,0,1-.07-.67,3.22,3.22,0,0,1,1-1.32,1.79,1.79,0,0,1,1.05-.58,1.4,1.4,0,0,1,.92.58l.09.09-.39.33-.09-.1c-.25-.27-.45-.41-.61-.41a1.41,1.41,0,0,0-.69.43c-.54.49-.84.83-.87,1s.13.5.5.91A7.87,7.87,0,0,0,14.4,13.3c.23.1.58-.07,1-.49a2.53,2.53,0,0,0,.73-.86c.05-.18-.05-.41-.31-.69Zm-5,.59,3.27,3.16-.35.37L10.3,12ZM9.41,13,13,15.85c-.18.21-.36.43-.53.65L8.81,16l-.58-.08-.29,0-.3,0h0l.13.1.13.1.27.22,2.66,2.17-.32.4Q8.74,17.42,7,16c.18-.21.36-.42.53-.64l3.15.42.82.11c.14,0,.27.05.41.06l.41.07,0,0a.71.71,0,0,1-.14-.1.75.75,0,0,1-.14-.12l-.26-.2L9.08,13.38ZM5.8,17.91c.08-.15.15-.3.24-.45L8.86,19c.51.26.79.55.84.83a2.57,2.57,0,0,1-.44,1.42,2.71,2.71,0,0,1-.9,1.12,1.19,1.19,0,0,1-1-.14l-.13-.07c-.95-.49-1.89-1-2.82-1.5.07-.15.16-.3.24-.45l2.81,1.5c.38.2.65.27.82.2A2,2,0,0,0,8.86,21,2.27,2.27,0,0,0,9.23,20c0-.18-.23-.37-.62-.57ZM3.79,22l4.27,1.55c-.06.17-.12.33-.17.49L4.47,22.77a2.67,2.67,0,0,1-.26-.09l-.13-.05L4,22.58H4l.08.07a.57.57,0,0,1,.08.08l.18.15,3,2.73-.18.49-4,.17H2.65l.12,0a.34.34,0,0,0,.12,0l.23.09,3.42,1.24-.18.48L2.09,26.64l.3-.83,3.18-.13.52,0H6.6a1,1,0,0,1-.19-.17l-.19-.17A4,4,0,0,1,5.84,25L3.48,22.82C3.58,22.55,3.68,22.26,3.79,22Z"/><path class="cls-5" d="M62.88,27.25l2.36-1.77-2.94-.13C62.49,26,62.68,26.62,62.88,27.25Zm-.33.25c-.22-.72-.45-1.45-.67-2.18l-1-.05c-.06-.17-.11-.34-.16-.52l4.84.25c.06.24.14.46.22.69l-3.86,2.94q-.07-.24-.15-.51Zm1.22-5.89c-1.23.58-2.47,1.14-3.69,1.71a3.82,3.82,0,0,1-.21-.46q1.85-.84,3.69-1.71c-.21-.44-.42-.89-.62-1.34l.43-.2c.48,1.05,1,2.08,1.45,3.12l-.43.19C64.18,22.5,64,22.05,63.77,21.61Zm-2.11-4.12c-.38-.59-.68-.89-.88-.91a4,4,0,0,0-1.48.74c-.79.51-1.22.86-1.28,1.05s.09.59.47,1.19.69.91.89.93a4.15,4.15,0,0,0,1.48-.75l.25-.16.36-.24c.43-.28.65-.52.67-.73A2.25,2.25,0,0,0,61.66,17.49Zm.36-.23c.48.72.66,1.24.57,1.56s-.56.75-1.41,1.3a4,4,0,0,1-1.85.83c-.32,0-.72-.42-1.19-1.15s-.66-1.25-.56-1.57.57-.75,1.45-1.32l.27-.18.37-.21a1.54,1.54,0,0,1,1.25-.34A2.54,2.54,0,0,1,62,17.26Zm-7-2.19,1,1.08c.37.39.69.57,1,.54a2.83,2.83,0,0,0,1.22-.82,3.62,3.62,0,0,0,1-1.23c.06-.24-.08-.56-.43-.93s-.72-.77-1.07-1.16C56.86,13.4,56,14.23,55.07,15.07ZM54.4,15l3.32-3.11,1.43,1.53a1.6,1.6,0,0,1,.57,1.26,2.67,2.67,0,0,1-1,1.39,4.41,4.41,0,0,1-1.64,1.11,1.37,1.37,0,0,1-1.21-.55Zm-1.25-4.25,1.13.94a1.32,1.32,0,0,0,.72.38.86.86,0,0,0,.59-.38c.27-.32.41-.56.4-.72s-.13-.35-.4-.57L54.33,9.33C53.94,9.81,53.54,10.27,53.15,10.74Zm-1.86,1.41,2.93-3.48,1.65,1.39a1.46,1.46,0,0,1,.6.87,1.38,1.38,0,0,1-.42,1,1.67,1.67,0,0,1-.69.57.87.87,0,0,1-.68-.15h0c.35.33.34.71,0,1.14s-.51.6-.75.89L53.52,14l.67-.8c.34-.41.34-.76,0-1.05l-.13-.11-1.18-1c-.4.48-.8.95-1.18,1.42Zm-.46-2.05c.2-.95.4-1.91.61-2.88l-2.3,1.83C49.7,9.41,50.26,9.76,50.83,10.1Zm-.08.4-2-1.2c-.26.22-.54.42-.81.63l-.46-.29c1.28-1,2.55-2,3.82-3l.61.38c-.33,1.59-.65,3.16-1,4.74l-.46-.28C50.6,11.17,50.68,10.84,50.75,10.5ZM45.41,6.21l1.34.61a1.22,1.22,0,0,0,.8.16c.18-.05.33-.22.47-.52a1.5,1.5,0,0,0,.18-.81c0-.16-.23-.3-.54-.44l-1.51-.68C45.9,5.09,45.65,5.65,45.41,6.21ZM44,8.1c.62-1.38,1.23-2.78,1.85-4.16l2,.87a1.46,1.46,0,0,1,.82.68,1.34,1.34,0,0,1-.14,1,1.73,1.73,0,0,1-.5.74.9.9,0,0,1-.7,0h0a.74.74,0,0,1,.3,1.09c-.16.36-.32.72-.48,1.06a3.76,3.76,0,0,1-.46-.2c.14-.32.29-.63.43-1,.21-.48.11-.82-.31-1l-.15-.07-1.4-.63L44.49,8.3Zm.67-4.58-1.5,4.3-.47-.17c.49-1.44,1-2.87,1.48-4.3Zm-4,1.24,1.9.4c0,.12,0,.28-.09.49-.17.8-.37,1.29-.61,1.43a2.51,2.51,0,0,1-1.59,0c-.78-.17-1.25-.39-1.42-.67a2.36,2.36,0,0,1,0-1.59c0-.21.09-.43.14-.65L39,3.75a1.75,1.75,0,0,1,.64-1.23,2.39,2.39,0,0,1,1.56,0A3.13,3.13,0,0,1,42.65,3c.19.18.24.52.12,1l0,.16-.49-.1s0-.07,0-.11c.08-.36.06-.59-.07-.71a3,3,0,0,0-1.13-.37,1.84,1.84,0,0,0-1.13,0c-.18.11-.31.43-.44,1,0,.2-.09.4-.13.6s-.09.42-.13.63c-.11.56-.11.92,0,1.08a2.57,2.57,0,0,0,1.25.47,1.68,1.68,0,0,0,1,0c.15-.1.28-.4.39-.92a2.06,2.06,0,0,0,0-.27l-1.4-.31C40.58,5,40.61,4.9,40.64,4.76ZM33.87,2.22V3.78h2.29v.43H33.87v1.7h2.39v.44h-2.9V1.8h2.9v.42Zm-4.25,4L31.08,6c.55-.07.88-.22,1-.45a2.89,2.89,0,0,0,0-1.47,3.49,3.49,0,0,0-.4-1.54c-.16-.2-.49-.27-1-.21l-1.56.19C29.32,3.77,29.47,5,29.62,6.2Zm-.45.5c-.19-1.51-.37-3-.55-4.52l2.07-.25a1.61,1.61,0,0,1,1.36.27,2.76,2.76,0,0,1,.55,1.59,4.26,4.26,0,0,1-.07,2,1.33,1.33,0,0,1-1.15.64ZM23.86,3.8c-.68.21-1.06.4-1.13.6A3.88,3.88,0,0,0,23,6a3.82,3.82,0,0,0,.66,1.52c.16.12.58.07,1.26-.13S26,7,26.1,6.82a4.13,4.13,0,0,0-.31-1.64,2.29,2.29,0,0,1-.08-.28c-.05-.13-.1-.27-.14-.41-.14-.48-.32-.76-.52-.84A2.18,2.18,0,0,0,23.86,3.8Zm-.12-.41c.81-.25,1.36-.29,1.64-.11A3.28,3.28,0,0,1,26.24,5a3.88,3.88,0,0,1,.29,2c-.12.3-.6.59-1.43.84s-1.38.29-1.66.11a3.72,3.72,0,0,1-.87-1.77,2.8,2.8,0,0,1-.09-.31l-.12-.41a1.53,1.53,0,0,1,0-1.3A2.49,2.49,0,0,1,23.74,3.39ZM20.92,4.53q.91,2.09,1.85,4.17l-.47.2q-.93-2.07-1.85-4.16ZM18.13,8.58,19.18,8a1.89,1.89,0,0,0,.78-.6c.08-.16,0-.41-.17-.73s-.38-.61-.52-.66-.37,0-.69.17l-.17.09c-.4.23-.8.46-1.2.67C17.51,7.48,17.82,8,18.13,8.58Zm.64,2.2c-.74-1.32-1.48-2.65-2.2-4l1.64-.92.15-.08a1.43,1.43,0,0,1,1.07-.26,1.64,1.64,0,0,1,.77.84,1.44,1.44,0,0,1,.26,1.07,1.56,1.56,0,0,1-.81.78l-.17.1L18.34,9c.28.53.58,1,.87,1.57Zm-3.25-3.2,2.53,3.77-.42.28c-.85-1.25-1.69-2.51-2.54-3.77Zm.17,3.49.37-.34.11.12c.42.46.6.82.55,1.08a3.38,3.38,0,0,1-1,1.23c-.56.51-1,.73-1.35.66a3.68,3.68,0,0,1-1.51-1.22,8.85,8.85,0,0,1-.95-1.15,1,1,0,0,1-.07-.67,3.22,3.22,0,0,1,1-1.32,1.79,1.79,0,0,1,1.05-.58,1.4,1.4,0,0,1,.92.58l.09.09-.39.33-.09-.1c-.25-.27-.45-.41-.61-.41a1.41,1.41,0,0,0-.69.43c-.54.49-.84.83-.87,1s.13.5.5.91A7.87,7.87,0,0,0,14.4,13.3c.23.1.58-.07,1-.49a2.53,2.53,0,0,0,.73-.86c.05-.18-.05-.41-.31-.69Zm-5,.59,3.27,3.16-.35.37L10.3,12ZM9.41,13,13,15.85c-.18.21-.36.43-.53.65L8.81,16l-.58-.08-.29,0-.3,0h0l.13.1.13.1.27.22,2.66,2.17-.32.4Q8.74,17.42,7,16c.18-.21.36-.42.53-.64l3.15.42.82.11c.14,0,.27.05.41.06l.41.07,0,0a.71.71,0,0,1-.14-.1.75.75,0,0,1-.14-.12l-.26-.2L9.08,13.38ZM5.8,17.91c.08-.15.15-.3.24-.45L8.86,19c.51.26.79.55.84.83a2.57,2.57,0,0,1-.44,1.42,2.71,2.71,0,0,1-.9,1.12,1.19,1.19,0,0,1-1-.14l-.13-.07c-.95-.49-1.89-1-2.82-1.5.07-.15.16-.3.24-.45l2.81,1.5c.38.2.65.27.82.2A2,2,0,0,0,8.86,21,2.27,2.27,0,0,0,9.23,20c0-.18-.23-.37-.62-.57ZM3.79,22l4.27,1.55c-.06.17-.12.33-.17.49L4.47,22.77a2.67,2.67,0,0,1-.26-.09l-.13-.05L4,22.58H4l.08.07a.57.57,0,0,1,.08.08l.18.15,3,2.73-.18.49-4,.17H2.65l.12,0a.34.34,0,0,0,.12,0l.23.09,3.42,1.24-.18.48L2.09,26.64l.3-.83,3.18-.13.52,0H6.6a1,1,0,0,1-.19-.17l-.19-.17A4,4,0,0,1,5.84,25L3.48,22.82C3.58,22.55,3.68,22.26,3.79,22Z"/><path class="cls-4" d="M47.06,62.09l-1.71-1.71c.07.8.15,1.6.23,2.4l1.48-.69m.24.23-1.7.79c0,.29,0,.56.08.84l-.41.19c-.11-1.31-.23-2.63-.34-4l.53-.25c.93.94,1.88,1.87,2.82,2.79l-.39.19C47.69,62.73,47.49,62.53,47.3,62.32Zm-4.48-2.41a1.94,1.94,0,0,0,.26.23l-.66.67-.2-.16Zm0,1.09L44,64.51l-.39.14c-.41-1.17-.81-2.34-1.21-3.52Zm-3.27,4.3q.59-.12,1.17-.27t.78-.45a2.37,2.37,0,0,0-.08-1.2A3.17,3.17,0,0,0,41,62.17a.91.91,0,0,0-.84-.1l-1.25.3C39.11,63.35,39.34,64.32,39.56,65.3Zm-.32.45c-.29-1.21-.56-2.42-.84-3.63l1.66-.39a1.35,1.35,0,0,1,1.13.1,2.26,2.26,0,0,1,.58,1.25,3.55,3.55,0,0,1,.12,1.64c-.1.3-.4.5-.88.62Zm-3.52-3.37c.1,1.12.2,2.22.3,3.32l1.89-.16c0,.13,0,.26,0,.39l-2.31.2-.33-3.71ZM33.53,65c-.25-.76-.49-1.53-.73-2.3L31.9,65Zm.12.33-1.87-.07c-.11.26-.21.52-.31.78l-.45,0c.5-1.22,1-2.45,1.48-3.68l.59,0c.42,1.26.84,2.52,1.25,3.77h-.43C33.82,65.9,33.73,65.63,33.65,65.36Zm-3.87-.73.41.08,0,.14c-.09.5-.22.8-.42.9a2.83,2.83,0,0,1-1.32,0c-.61-.1-1-.28-1.1-.52a3,3,0,0,1,0-1.61,8.43,8.43,0,0,1,.26-1.19A.78.78,0,0,1,28,62a2.69,2.69,0,0,1,1.38,0,1.52,1.52,0,0,1,.91.38,1.15,1.15,0,0,1,.09.89.36.36,0,0,0,0,.1L30,63.3a.65.65,0,0,1,0-.11.75.75,0,0,0,0-.59,1.11,1.11,0,0,0-.62-.24,2.19,2.19,0,0,0-1.11,0c-.15.07-.26.33-.34.78a7.07,7.07,0,0,0-.19,1.84c.05.2.34.34.85.43a2.33,2.33,0,0,0,.93,0c.14,0,.24-.24.28-.55C29.76,64.79,29.76,64.71,29.78,64.63ZM25.2,61.05c-.32,1.05-.65,2.11-1,3.18l1.82.55c0,.13-.08.25-.11.38l-2.22-.68,1.08-3.56Zm-3,1.7c.07-.8.14-1.6.22-2.4l-1.7,1.72Zm0,.34-1.7-.79-.59.59c-.13-.06-.27-.11-.4-.18l2.8-2.79.54.24c-.11,1.31-.23,2.63-.33,4-.13-.06-.27-.11-.4-.18C22.09,63.65,22.11,63.38,22.14,63.09Z"/><path class="cls-5" d="M47.06,62.09l-1.71-1.71c.07.8.15,1.6.23,2.4Zm.24.23-1.7.79c0,.29,0,.56.08.84l-.41.19c-.11-1.31-.23-2.63-.34-4l.53-.25c.93.94,1.88,1.87,2.82,2.79l-.39.19C47.69,62.73,47.49,62.53,47.3,62.32Zm-4.48-2.41a1.94,1.94,0,0,0,.26.23l-.66.67-.2-.16Zm0,1.09L44,64.51l-.39.14c-.41-1.17-.81-2.34-1.21-3.52Zm-3.27,4.3q.59-.12,1.17-.27t.78-.45a2.37,2.37,0,0,0-.08-1.2A3.17,3.17,0,0,0,41,62.17a.91.91,0,0,0-.84-.1l-1.25.3C39.11,63.35,39.34,64.32,39.56,65.3Zm-.32.45c-.29-1.21-.56-2.42-.84-3.63l1.66-.39a1.35,1.35,0,0,1,1.13.1,2.26,2.26,0,0,1,.58,1.25,3.55,3.55,0,0,1,.12,1.64c-.1.3-.4.5-.88.62Zm-3.52-3.37c.1,1.12.2,2.22.3,3.32l1.89-.16c0,.13,0,.26,0,.39l-2.31.2-.33-3.71ZM33.53,65c-.25-.76-.49-1.53-.73-2.3L31.9,65Zm.12.33-1.87-.07c-.11.26-.21.52-.31.78l-.45,0c.5-1.22,1-2.45,1.48-3.68l.59,0c.42,1.26.84,2.52,1.25,3.77h-.43C33.82,65.9,33.73,65.63,33.65,65.36Zm-3.87-.73.41.08,0,.14c-.09.5-.22.8-.42.9a2.83,2.83,0,0,1-1.32,0c-.61-.1-1-.28-1.1-.52a3,3,0,0,1,0-1.61,8.43,8.43,0,0,1,.26-1.19A.78.78,0,0,1,28,62a2.69,2.69,0,0,1,1.38,0,1.52,1.52,0,0,1,.91.38,1.15,1.15,0,0,1,.09.89.36.36,0,0,0,0,.1L30,63.3a.65.65,0,0,1,0-.11.75.75,0,0,0,0-.59,1.11,1.11,0,0,0-.62-.24,2.19,2.19,0,0,0-1.11,0c-.15.07-.26.33-.34.78a7.07,7.07,0,0,0-.19,1.84c.05.2.34.34.85.43a2.33,2.33,0,0,0,.93,0c.14,0,.24-.24.28-.55C29.76,64.79,29.76,64.71,29.78,64.63ZM25.2,61.05c-.32,1.05-.65,2.11-1,3.18l1.82.55c0,.13-.08.25-.11.38l-2.22-.68,1.08-3.56Zm-3,1.7c.07-.8.14-1.6.22-2.4l-1.7,1.72Zm0,.34-1.7-.79-.59.59c-.13-.06-.27-.11-.4-.18l2.8-2.79.54.24c-.11,1.31-.23,2.63-.33,4-.13-.06-.27-.11-.4-.18C22.09,63.65,22.11,63.38,22.14,63.09Z"/><polyline class="cls-2" points="42.29 23.07 43.85 21.66 41.9 21.66 40.43 23.07 42.29 23.07"/><polygon class="cls-6" points="42.29 23.07 43.85 21.66 41.9 21.66 40.43 23.07 42.29 23.07"/><rect class="cls-7" x="32.79" y="14.9" width="2.07" height="8.01"/><rect class="cls-8" x="32.79" y="14.9" width="2.07" height="8.01"/><path class="cls-3" d="M33.88,11.68C33.49,12.77,31.65,13,32.79,15l2.07,0c1.27-1.75-.73-2.28-1-3.32"/><path class="cls-3" d="M33.58,52.61h.67a.63.63,0,0,1,.65.6v2.3a.63.63,0,0,1-.65.6h-.67a.63.63,0,0,1-.65-.6v-2.3a.63.63,0,0,1,.65-.6"/><polyline class="cls-2" points="28.66 17.26 31.54 19.81 36.02 19.81 38.84 17.26 36.11 18.12 33.88 19.75 31.46 18.15 28.66 17.26"/><polygon class="cls-9" points="28.66 17.26 31.54 19.81 36.02 19.81 38.84 17.26 36.11 18.12 33.88 19.75 31.46 18.15 28.66 17.26"/><path class="cls-2" d="M28.65,15.35v1.91c3.72,1.72,6.22,1.71,10.18,0v-2c-3.57,1.67-7,1.89-10.18.07"/><path class="cls-10" d="M28.65,15.35v1.91c3.72,1.72,6.22,1.71,10.18,0v-2C35.26,17,31.87,17.17,28.65,15.35Z"/><rect class="cls-4" x="23.97" y="19.75" width="19.86" height="1.91"/><rect class="cls-11" x="23.97" y="19.75" width="19.86" height="1.91"/><path class="cls-2" d="M45.13,44.88l-8.67,1a2.6,2.6,0,0,1-3.35,0l-6-1.49-6-1.48-.14-7.21,26-.41c-.5,2.47.48,4.84-.31,7.23a6.74,6.74,0,0,1-1.52,2.37"/><path class="cls-12" d="M46.87,35.7h-13V21.79c2.88,4.29,9.59,4.93,13.08,3.32L46.87,35.7"/><path class="cls-13" d="M20.89,35.7h13V21.79c-3.25,4.58-9.88,4.89-13.22,3.38l.2,10.53"/><path class="cls-2" d="M23.08,28a.54.54,0,0,1-.19-.3,1.4,1.4,0,0,1-.5,0c-.61.45-1.06.18-1-.37.35-.95,1.6-.9,2.68-.13a.85.85,0,0,1,.84.37.77.77,0,0,1,.67.43.69.69,0,0,1,.76.34c.41,0,.64.08.69.28a.89.89,0,0,1,1.07.34.68.68,0,0,1,.71.29c.54-.07.8.09.93.36.42.06.66.2.72.43a.84.84,0,0,1,.84.24c2.34-.9,2.91,3.82-.08,4.28l-2.71-.34c-.61-.12-1-.29-1.14-.54a.78.78,0,0,1-.67-.53.79.79,0,0,1-.65-.62.62.62,0,0,1-.49-.59q-.37-.11-.48-.72a.83.83,0,0,1-.44-.68.8.8,0,0,1-.56-.75,1.08,1.08,0,0,1-.62-1.05c-.27-.08-.5-.67-.41-.74"/><path class="cls-14" d="M23.08,28a.54.54,0,0,1-.19-.3,1.4,1.4,0,0,1-.5,0c-.61.44-1.06.18-1-.37.35-.95,1.6-.9,2.68-.13a.85.85,0,0,1,.84.37.77.77,0,0,1,.67.43.69.69,0,0,1,.76.34c.41,0,.64.08.69.28a.89.89,0,0,1,1.07.34.68.68,0,0,1,.71.29c.54-.07.8.09.93.36.42.06.66.2.72.43a.84.84,0,0,1,.84.24c2.34-.9,2.91,3.82-.08,4.28l-2.71-.34c-.61-.12-1-.29-1.14-.54a.78.78,0,0,1-.67-.53.79.79,0,0,1-.65-.62.62.62,0,0,1-.49-.59q-.37-.11-.48-.72a.83.83,0,0,1-.44-.68.82.82,0,0,1-.56-.75,1.08,1.08,0,0,1-.62-1.06C23.22,28.62,23,28,23.08,28Z"/><path class="cls-2" d="M32.69,31.45c.59,2.47-2,4.52-2.4,1.47.13-2,2.08-3.07,2.4-1.47"/><path class="cls-15" d="M32.69,31.45c.59,2.47-2,4.52-2.4,1.47C30.42,30.94,32.37,29.85,32.69,31.45Z"/><path class="cls-2" d="M32.38,34c-.56-.29-.89-.69-.59-1.32.24-.36.06-1.1.46-1.24.21,0,.45-.33.66,0,.17.21.19.49.53.67.4.56.32,1.22-.5,1.86h-.56"/><path class="cls-15" d="M32.38,34c-.56-.28-.89-.69-.59-1.31.24-.36.06-1.1.46-1.24.21,0,.45-.33.66,0,.17.21.19.48.53.66.4.56.32,1.22-.5,1.87Z"/><path class="cls-3" d="M32.51,31.45v.05h-.1c.21.07.24.05.09-.05"/><polyline class="cls-2" points="35.22 35.01 45.22 34.93 46.22 34.63 46.1 31.12 44.64 30.24 44.03 30.26 43.74 30.02 43.23 30.29 37.47 30.35 37.48 29.97 37.2 29.7 37.2 29.12 37.24 28.94 37.1 28.82 37.08 28.02 37.14 28.03 37.14 27.81 36.93 27.81 36.91 27.49 35.52 27.5 35.52 27.82 35.33 27.82 35.33 28.02 35.41 28.02 35.45 28.87 35.34 29 35.39 29.18 35.42 29.7 35.44 29.8 35.18 30.03 35.27 30.05 35.27 30.52 35.12 30.73 35.25 30.81 35.25 31.08 35.14 31.21 35.25 31.27 35.26 31.72 35.17 31.8 35.23 31.9 35.16 32.38 35.28 32.46 35.25 32.94 35.15 33.01 35.25 33.09 35.24 33.43 35.17 33.52 35.27 33.64 35.28 34.32 35.22 34.47 35.22 35.01"/><polygon class="cls-16" points="35.22 35.01 45.22 34.93 46.22 34.63 46.1 31.12 44.64 30.24 44.03 30.26 43.74 30.02 43.23 30.29 37.47 30.35 37.48 29.97 37.2 29.7 37.2 29.12 37.24 28.94 37.1 28.82 37.08 28.02 37.14 28.03 37.14 27.81 36.93 27.81 36.91 27.49 35.52 27.5 35.52 27.82 35.33 27.82 35.33 28.02 35.41 28.02 35.45 28.87 35.34 29 35.39 29.18 35.42 29.7 35.44 29.8 35.18 30.03 35.28 30.05 35.27 30.52 35.12 30.73 35.25 30.8 35.25 31.08 35.14 31.21 35.25 31.27 35.26 31.72 35.17 31.8 35.23 31.9 35.16 32.38 35.28 32.45 35.25 32.94 35.15 33.01 35.25 33.09 35.24 33.43 35.17 33.52 35.27 33.64 35.28 34.32 35.22 34.47 35.22 35.01"/><polyline class="cls-17" points="35.99 34.93 35.99 34.48 35.89 34.37 35.86 33.61 35.95 33.55 35.88 33.42 35.88 32.95 35.87 32.27 35.88 30.78"/><line class="cls-17" x1="35.52" y1="27.82" x2="36.95" y2="27.81"/><line class="cls-17" x1="35.41" y1="28.03" x2="37.13" y2="28.02"/><line class="cls-17" x1="35.27" y1="33.63" x2="35.86" y2="33.62"/><line class="cls-17" x1="35.25" y1="33.44" x2="35.89" y2="33.44"/><line class="cls-17" x1="35.25" y1="33.07" x2="35.83" y2="33.07"/><line class="cls-17" x1="35.25" y1="32.95" x2="35.87" y2="32.95"/><line class="cls-17" x1="35.29" y1="32.46" x2="35.87" y2="32.46"/><line class="cls-17" x1="35.16" y1="32.35" x2="35.82" y2="32.35"/><line class="cls-17" x1="35.25" y1="31.73" x2="35.88" y2="31.73"/><line class="cls-17" x1="35.82" y1="31.88" x2="35.4" y2="31.88"/><line class="cls-17" x1="35.26" y1="31.22" x2="36.91" y2="31.21"/><line class="cls-17" x1="35.26" y1="31.09" x2="36.9" y2="31.09"/><polyline class="cls-17" points="37.18 34.93 37.15 34.3 37.26 34.19 37.27 33.59 37.19 33.53 37.27 33.42 37.27 33.09 37.24 32.29 37.03 31.77 37.49 31.72 37.53 31.26 37.61 31.16 37.53 31.07 37.54 30.73 37.6 30.63 37.51 30.61 37.5 30.52 37.44 30.5 37.47 30.35"/><polyline class="cls-17" points="37.89 34.84 37.88 34.3 37.77 34.2 37.79 33.6 37.92 33.51 37.84 33.43 37.84 33.13 37.87 33.03 37.82 32.93 37.81 32.45 37.84 32.35 37.75 32.28 37.5 31.73"/><line class="cls-17" x1="37.34" y1="33.59" x2="37.76" y2="33.59"/><line class="cls-17" x1="37.35" y1="33.44" x2="37.75" y2="33.44"/><line class="cls-17" x1="37.28" y1="33.08" x2="37.85" y2="33.08"/><line class="cls-17" x1="37.27" y1="32.94" x2="37.81" y2="32.94"/><line class="cls-17" x1="37.8" y1="32.45" x2="37.24" y2="32.45"/><line class="cls-17" x1="37.75" y1="32.3" x2="37.27" y2="32.3"/><line class="cls-17" x1="37.53" y1="31.26" x2="36.89" y2="31.26"/><line class="cls-17" x1="37.55" y1="31.1" x2="36.9" y2="31.11"/><line class="cls-17" x1="37.58" y1="31.18" x2="36.91" y2="31.19"/><polyline class="cls-17" points="35.88 32.02 36.94 32.01 36.91 31.09"/><line class="cls-17" x1="36.08" y1="31.9" x2="36.76" y2="31.9"/><line class="cls-17" x1="35.25" y1="30.8" x2="37.55" y2="30.75"/><line class="cls-17" x1="37.52" y1="30.62" x2="35.3" y2="30.68"/><polyline class="cls-17" points="37.44 30.49 37.04 30.49 37.04 30.01 36.86 29.99 37.18 29.7"/><polyline class="cls-17" points="35.27 30.52 35.4 30.51 35.51 30.6 35.77 30.6 35.77 30.01 35.54 29.7 35.18 30.04 35.37 30.04 35.4 30.46"/><polyline class="cls-17" points="35.87 29.89 35.83 29.75 35.73 29.74 35.73 29.32 35.92 29.32 35.95 29.22 35.86 29.17"/><line class="cls-17" x1="36.91" y1="30.54" x2="36.89" y2="30.05"/><path class="cls-17" d="M35.91,30.5c.21-.17.44-.08.67-.16"/><line class="cls-17" x1="36.62" y1="30.53" x2="36.39" y2="30.54"/><line class="cls-17" x1="36.58" y1="30.43" x2="36.23" y2="30.48"/><line class="cls-17" x1="36.74" y1="30.29" x2="36.74" y2="30.01"/><polyline class="cls-17" points="36.7 29.9 36.62 29.9 36.6 29.81 36.7 29.8"/><line class="cls-17" x1="36.8" y1="29.87" x2="36.78" y2="29.23"/><polyline class="cls-17" points="36.52 29.2 36.52 29.3 36.63 29.29 36.63 29.2"/><polyline class="cls-17" points="35.43 29.18 35.81 29.17 35.85 28.99 35.68 28.86 35.68 28.46 35.44 28.45"/><line class="cls-17" x1="35.44" y1="28.53" x2="35.67" y2="28.53"/><line class="cls-17" x1="35.43" y1="28.88" x2="35.72" y2="28.88"/><line class="cls-17" x1="35.43" y1="28.96" x2="35.69" y2="28.96"/><line class="cls-17" x1="35.48" y1="29.1" x2="35.74" y2="29.08"/><polyline class="cls-17" points="37.21 29.13 36.7 29.13 36.7 28.99 36.85 28.86 37.12 28.86"/><line class="cls-17" x1="36.71" y1="29.02" x2="37.17" y2="29.02"/><line class="cls-17" x1="36.8" y1="28.92" x2="37.09" y2="28.91"/><line class="cls-17" x1="36.7" y1="29.11" x2="36.22" y2="29.12"/><line class="cls-17" x1="35.95" y1="28.96" x2="36.63" y2="28.94"/><line class="cls-17" x1="35.81" y1="28.79" x2="36.69" y2="28.78"/><polyline class="cls-17" points="36.8 28.79 36.8 28.41 37.06 28.41"/><line class="cls-17" x1="36.8" y1="28.49" x2="37.08" y2="28.49"/><line class="cls-17" x1="37.49" y1="29.98" x2="37.12" y2="29.99"/><line class="cls-17" x1="35.78" y1="30.02" x2="35.45" y2="30.02"/><rect class="cls-7" x="37.18" y="30.1" width="0.13" height="0.32"/><rect class="cls-17" x="37.18" y="30.1" width="0.13" height="0.33"/><rect class="cls-7" x="35.53" y="30.13" width="0.13" height="0.32"/><rect class="cls-17" x="35.53" y="30.13" width="0.13" height="0.32"/><path class="cls-3" d="M35.78,28.42a.08.08,0,0,1,.14,0v.32h-.14v-.32"/><path class="cls-3" d="M36.05,28.42a.08.08,0,0,1,.14,0v.32h-.14v-.32"/><path class="cls-3" d="M36.31,28.42a.08.08,0,0,1,.15,0v.32h-.15v-.32"/><path class="cls-3" d="M36.57,28.42a.08.08,0,0,1,.15,0v.32h-.15v-.32"/><path class="cls-17" d="M35.67,28.45c0-.17.18-.21.29-.11.08-.11.17-.13.28,0,.08-.11.16-.11.25,0,.11-.12.25-.11.32.07"/><rect class="cls-7" x="36.12" y="27.59" width="0.27" height="0.21"/><polyline class="cls-3" points="35.39 27.92 35.44 27.92 35.44 27.87 35.48 27.87 35.48 27.92 35.53 27.92 35.53 27.96 35.48 27.96 35.48 28 35.44 28 35.44 27.96 35.39 27.96 35.39 27.92"/><polyline class="cls-3" points="35.6 27.92 35.65 27.92 35.65 27.87 35.69 27.87 35.69 27.92 35.74 27.92 35.74 27.96 35.69 27.96 35.69 28 35.65 28 35.65 27.96 35.6 27.96 35.6 27.92"/><polyline class="cls-3" points="35.79 27.92 35.84 27.92 35.84 27.87 35.88 27.87 35.88 27.92 35.93 27.92 35.93 27.96 35.88 27.96 35.88 28 35.84 28 35.84 27.96 35.79 27.96 35.79 27.92"/><polyline class="cls-3" points="35.99 27.92 36.03 27.92 36.03 27.87 36.08 27.87 36.08 27.92 36.13 27.92 36.13 27.96 36.08 27.96 36.08 28 36.03 28 36.03 27.96 35.99 27.96 35.99 27.92"/><polyline class="cls-3" points="36.18 27.92 36.23 27.92 36.23 27.87 36.27 27.87 36.27 27.92 36.32 27.92 36.32 27.96 36.27 27.96 36.27 28 36.23 28 36.23 27.96 36.18 27.96 36.18 27.92"/><polyline class="cls-3" points="36.41 27.92 36.46 27.92 36.46 27.87 36.51 27.87 36.51 27.92 36.55 27.92 36.55 27.96 36.51 27.96 36.51 28 36.46 28 36.46 27.96 36.41 27.96 36.41 27.92"/><polyline class="cls-3" points="36.65 27.92 36.7 27.92 36.7 27.87 36.74 27.87 36.74 27.92 36.79 27.92 36.79 27.96 36.74 27.96 36.74 28 36.7 28 36.7 27.96 36.65 27.96 36.65 27.92"/><polyline class="cls-3" points="36.88 27.92 36.92 27.92 36.92 27.87 36.97 27.87 36.97 27.92 37.02 27.92 37.02 27.96 36.97 27.96 36.97 28 36.92 28 36.92 27.96 36.88 27.96 36.88 27.92"/><polyline class="cls-3" points="35.47 28.12 35.5 28.12 35.5 28.09 35.53 28.09 35.53 28.12 35.56 28.12 35.56 28.14 35.53 28.14 35.53 28.17 35.5 28.17 35.5 28.14 35.47 28.14 35.47 28.12"/><polyline class="cls-3" points="35.76 28.12 35.79 28.12 35.79 28.09 35.82 28.09 35.82 28.12 35.85 28.12 35.85 28.14 35.82 28.14 35.82 28.17 35.79 28.17 35.79 28.14 35.76 28.14 35.76 28.12"/><polyline class="cls-3" points="35.6 28.12 35.64 28.12 35.64 28.09 35.67 28.09 35.67 28.12 35.7 28.12 35.7 28.14 35.67 28.14 35.67 28.17 35.64 28.17 35.64 28.14 35.6 28.14 35.6 28.12"/><polyline class="cls-3" points="35.94 28.12 35.97 28.12 35.97 28.09 36 28.09 36 28.12 36.03 28.12 36.03 28.14 36 28.14 36 28.17 35.97 28.17 35.97 28.14 35.94 28.14 35.94 28.12"/><polyline class="cls-3" points="36.1 28.12 36.13 28.12 36.13 28.09 36.16 28.09 36.16 28.12 36.2 28.12 36.2 28.14 36.16 28.14 36.16 28.17 36.13 28.17 36.13 28.14 36.1 28.14 36.1 28.12"/><polyline class="cls-3" points="36.28 28.12 36.31 28.12 36.31 28.09 36.34 28.09 36.34 28.12 36.37 28.12 36.37 28.14 36.34 28.14 36.34 28.17 36.31 28.17 36.31 28.14 36.28 28.14 36.28 28.12"/><polyline class="cls-3" points="36.42 28.12 36.45 28.12 36.45 28.09 36.48 28.09 36.48 28.12 36.51 28.12 36.51 28.14 36.48 28.14 36.48 28.17 36.45 28.17 36.45 28.14 36.42 28.14 36.42 28.12"/><polyline class="cls-3" points="36.55 28.12 36.58 28.12 36.58 28.09 36.61 28.09 36.61 28.12 36.65 28.12 36.65 28.14 36.61 28.14 36.61 28.17 36.58 28.17 36.58 28.14 36.55 28.14 36.55 28.12"/><polyline class="cls-3" points="36.69 28.12 36.72 28.12 36.72 28.09 36.75 28.09 36.75 28.12 36.78 28.12 36.78 28.14 36.75 28.14 36.75 28.17 36.72 28.17 36.72 28.14 36.69 28.14 36.69 28.12"/><polyline class="cls-3" points="36.84 28.12 36.87 28.12 36.87 28.09 36.9 28.09 36.9 28.12 36.93 28.12 36.93 28.14 36.9 28.14 36.9 28.17 36.87 28.17 36.87 28.14 36.84 28.14 36.84 28.12"/><rect class="cls-7" x="35.88" y="30.79" width="0.08" height="0.28"/><rect class="cls-7" x="36.06" y="30.79" width="0.08" height="0.28"/><rect class="cls-7" x="36.24" y="30.79" width="0.08" height="0.28"/><rect class="cls-7" x="36.39" y="30.79" width="0.08" height="0.28"/><rect class="cls-7" x="36.57" y="30.79" width="0.08" height="0.28"/><rect class="cls-7" x="36.73" y="30.79" width="0.08" height="0.28"/><rect class="cls-7" x="36.88" y="30.79" width="0.05" height="0.28"/><path class="cls-17" d="M36.38,31.3a.22.22,0,1,1,0,.44.22.22,0,1,1,0-.44Z"/><path class="cls-3" d="M36.38,31.41a.11.11,0,0,1,.11.1.11.11,0,0,1-.22,0,.11.11,0,0,1,.11-.1"/><path class="cls-18" d="M35.57,32.49a.22.22,0,0,1,.23.21.22.22,0,0,1-.23.21.21.21,0,0,1-.22-.21A.22.22,0,0,1,35.57,32.49Z"/><line class="cls-18" x1="35.39" y1="32.59" x2="35.75" y2="32.83"/><line class="cls-18" x1="35.75" y1="32.57" x2="35.41" y2="32.84"/><line class="cls-18" x1="35.57" y1="32.5" x2="35.57" y2="32.91"/><line class="cls-18" x1="35.36" y1="32.71" x2="35.79" y2="32.71"/><path class="cls-3" d="M35.57,32.65s.06,0,.06.05a.06.06,0,0,1-.06.06.06.06,0,0,1-.06-.06.06.06,0,0,1,.06-.05"/><path class="cls-18" d="M35.57,32.65s.06,0,.06.05a.06.06,0,0,1-.06.06.06.06,0,0,1-.06-.06A.06.06,0,0,1,35.57,32.65Z"/><path class="cls-18" d="M37.53,32.48a.22.22,0,0,1,.23.21.22.22,0,0,1-.23.21.21.21,0,0,1-.22-.21A.22.22,0,0,1,37.53,32.48Z"/><line class="cls-18" x1="37.35" y1="32.58" x2="37.71" y2="32.82"/><line class="cls-18" x1="37.71" y1="32.56" x2="37.37" y2="32.82"/><line class="cls-18" x1="37.53" y1="32.49" x2="37.53" y2="32.9"/><line class="cls-18" x1="37.32" y1="32.7" x2="37.75" y2="32.7"/><path class="cls-3" d="M37.53,32.64s.06,0,.06,0a.06.06,0,0,1-.06.06.06.06,0,0,1-.05-.06,0,0,0,0,1,.05,0"/><path class="cls-18" d="M37.53,32.64s.06,0,.06,0a.06.06,0,0,1-.06.06.06.06,0,0,1-.05-.06A0,0,0,0,1,37.53,32.64Z"/><path class="cls-2" d="M36.24,29.47a.23.23,0,0,1,.24.23.23.23,0,0,1-.24.23A.23.23,0,0,1,36,29.7a.24.24,0,0,1,.24-.23"/><path class="cls-17" d="M36.24,29.47a.24.24,0,0,1,.24.23.24.24,0,0,1-.48,0A.24.24,0,0,1,36.24,29.47Z"/><polyline class="cls-17" points="36.33 29.83 36.21 29.68 36.21 29.52"/><line class="cls-17" x1="35.98" y1="33.18" x2="37.18" y2="33.18"/><polyline class="cls-17" points="42.41 34.87 42.39 34.32 42.51 34.24 42.56 32.21 42.55 31.06 42.48 30.95 42.59 30.92 42.58 30.67 42.49 30.68 42.53 30.54 42.93 30.49 43.23 30.29"/><polyline class="cls-17" points="44.04 30.27 44.43 30.56 44.7 30.54 44.78 30.65 44.69 30.65 44.69 30.91 44.8 30.91 44.84 31.01 44.76 31.02 44.73 34.27 44.83 34.35 44.84 34.74"/><polyline class="cls-17" points="43.15 34.88 43.17 34.35 43 34.21 43.07 32.4 43.06 32.2 43.06 30.9 43.03 30.67 43.67 30.24 44.27 30.66 44.29 30.94 44.17 31.01 44.25 31.07 44.24 34.27 44.14 34.4 44.16 34.84"/><line class="cls-17" x1="43.17" y1="34.08" x2="43.84" y2="33.97"/><line class="cls-17" x1="44.73" y1="34.29" x2="44.33" y2="34.32"/><line class="cls-19" x1="43.02" y1="34.23" x2="42.69" y2="34.24"/><line class="cls-17" x1="43.33" y1="34.33" x2="44.07" y2="34.26"/><line class="cls-17" x1="43.42" y1="34.42" x2="44.06" y2="34.35"/><line class="cls-17" x1="44.75" y1="32.87" x2="44.26" y2="32.9"/><line class="cls-17" x1="44.75" y1="32.76" x2="44.43" y2="32.77"/><line class="cls-17" x1="42.56" y1="32.81" x2="43.04" y2="32.81"/><line class="cls-17" x1="42.56" y1="32.91" x2="42.89" y2="32.91"/><line class="cls-17" x1="44.25" y1="32.33" x2="44.71" y2="32.34"/><line class="cls-17" x1="44.75" y1="32.2" x2="44.27" y2="32.2"/><line class="cls-17" x1="42.57" y1="32.39" x2="43.05" y2="32.39"/><line class="cls-17" x1="43.05" y1="32.23" x2="42.56" y2="32.25"/><line class="cls-17" x1="44.11" y1="32.29" x2="43.22" y2="32.3"/><line class="cls-17" x1="43.23" y1="32.1" x2="43.53" y2="32.1"/><line class="cls-17" x1="43.87" y1="32.07" x2="43.68" y2="32.07"/><line class="cls-17" x1="44.17" y1="32.07" x2="44.02" y2="32.07"/><line class="cls-17" x1="44.76" y1="31.02" x2="44.25" y2="31.05"/><line class="cls-17" x1="44.72" y1="30.92" x2="44.31" y2="30.94"/><line class="cls-17" x1="43.06" y1="30.93" x2="42.58" y2="30.94"/><line class="cls-17" x1="43.04" y1="31.02" x2="42.56" y2="31.05"/><line class="cls-17" x1="42.55" y1="30.67" x2="43.01" y2="30.66"/><line class="cls-17" x1="44.28" y1="30.66" x2="44.69" y2="30.65"/><polyline class="cls-17" points="45.01 32.32 45.66 32.28 46.11 32.05"/><polyline class="cls-17" points="44.92 32.43 45.66 32.38 46.12 32.17"/><line class="cls-20" x1="45.67" y1="33.08" x2="45.67" y2="31.19"/><polyline class="cls-17" points="46.2 34.17 45.8 34.37 45.29 34.39"/><line class="cls-17" x1="45.83" y1="34.74" x2="45.82" y2="34.36"/><line class="cls-17" x1="45.82" y1="33.98" x2="45.82" y2="33.3"/><polyline class="cls-21" points="44.84 34.33 45.06 34.13 45.25 34.29 45.25 34.49"/><rect class="cls-7" x="45.42" y="34.09" width="0.18" height="0.28"/><polyline class="cls-3" points="45.68 34.09 45.85 34.05 45.85 34.34 45.68 34.37 45.68 34.09"/><line class="cls-17" x1="45.27" y1="34.51" x2="44.83" y2="34.51"/><path class="cls-3" d="M44.91,34.41c.06-.11.23-.1.25,0v.45h-.25v-.45"/><line class="cls-17" x1="37.54" y1="31.04" x2="42.47" y2="30.94"/><polyline class="cls-17" points="44.77 31.17 45.66 31.2 46.1 31.12"/><line class="cls-17" x1="37.84" y1="33.22" x2="42.54" y2="33.11"/><line class="cls-17" x1="37.85" y1="33.14" x2="42.55" y2="33.03"/><polyline class="cls-17" points="44.77 33.34 45.89 33.26 45.27 32.84 44.75 32.87"/><path class="cls-3" d="M43.59,33.26c0-.09.12-.09.16,0v.6h-.16v-.6"/><path class="cls-3" d="M43.27,33.26a.08.08,0,0,1,.16,0v.61h-.16v-.61"/><path class="cls-3" d="M43.9,33.24c0-.08.13-.09.16,0v.61H43.9v-.61"/><path class="cls-17" d="M43,33.27c.06.06.11.07.12-.05s.28-.2.33,0c.09-.22.2-.25.35-.09.09-.18.18-.17.29,0a.15.15,0,0,0,.13.13"/><rect class="cls-7" x="44.36" y="31.16" width="0.13" height="0.92"/><rect class="cls-7" x="42.78" y="31.17" width="0.13" height="0.92"/><path class="cls-17" d="M43.07,31.45h.07c.06-.25.15-.36.3-.24.11-.17.23-.22.37-.05.21-.11.27,0,.26.17s.13,0,.2,0"/><path class="cls-3" d="M43.23,31.43c.06-.13.12-.13.19,0V32h-.19v-.59"/><path class="cls-3" d="M43.53,31.33c0-.14.12-.14.18,0V32h-.18v-.68"/><path class="cls-3" d="M43.83,31.37q.08-.2.18,0V32h-.18v-.64"/><rect class="cls-7" x="45.11" y="31.38" width="0.16" height="0.61"/><path class="cls-17" d="M45,31.57c0-.41.5-.38.38,0Z"/><path class="cls-3" d="M38.16,33.54c0-.11.15-.13.21,0v.39h-.21v-.39"/><path class="cls-17" d="M38,33.59a.24.24,0,0,1,.47,0Z"/><path class="cls-3" d="M38.92,33.5c0-.1.15-.12.21,0v.4h-.21v-.4"/><path class="cls-17" d="M38.79,33.56a.24.24,0,0,1,.48,0Z"/><path class="cls-3" d="M39.87,33.47c0-.11.15-.13.21,0v.4h-.21v-.4"/><path class="cls-17" d="M39.74,33.53a.24.24,0,1,1,.47,0Z"/><path class="cls-3" d="M40.83,33.47c0-.11.15-.13.21,0v.4h-.21v-.4"/><path class="cls-17" d="M40.7,33.53a.24.24,0,1,1,.47,0Z"/><path class="cls-3" d="M41.56,33.47c0-.11.15-.13.21,0v.4h-.21v-.4"/><path class="cls-17" d="M41.44,33.53a.24.24,0,1,1,.47,0Z"/><path class="cls-3" d="M36.48,33.5c0-.1.15-.12.21,0v.4h-.21v-.4"/><path class="cls-17" d="M36.35,33.56a.24.24,0,0,1,.48,0Z"/><path class="cls-3" d="M38,31.33c0-.1.15-.12.21,0v.4H38v-.4"/><path class="cls-17" d="M37.84,31.39a.24.24,0,0,1,.48,0Z"/><path class="cls-3" d="M38.86,31.3c0-.1.15-.13.21,0v.4h-.21v-.4"/><path class="cls-17" d="M38.73,31.36a.24.24,0,0,1,.48,0Z"/><path class="cls-3" d="M39.73,31.28c0-.11.15-.13.21,0v.4h-.21v-.4"/><path class="cls-17" d="M39.6,31.33a.24.24,0,0,1,.48,0Z"/><path class="cls-3" d="M40.54,31.29c0-.11.15-.13.21,0v.4h-.21v-.4"/><path class="cls-17" d="M40.41,31.34a.24.24,0,0,1,.47,0Z"/><path class="cls-3" d="M41.38,31.28c0-.11.16-.13.22,0v.4h-.22v-.4"/><path class="cls-17" d="M41.26,31.33a.24.24,0,0,1,.47,0Z"/><line class="cls-17" x1="38.49" y1="31.09" x2="38.48" y2="31.57"/><line class="cls-17" x1="39.42" y1="31.07" x2="39.41" y2="31.77"/><line class="cls-17" x1="40.26" y1="30.99" x2="40.24" y2="31.61"/><line class="cls-17" x1="41.14" y1="30.99" x2="41.14" y2="31.56"/><line class="cls-17" x1="41.97" y1="31.05" x2="41.98" y2="31.55"/><path class="cls-3" d="M43.28,30.62a.05.05,0,0,1,.1,0v.17h-.1v-.17"/><path class="cls-3" d="M43.11,30.67s.09,0,.1,0v.18h-.1v-.18"/><path class="cls-3" d="M43.45,30.52a.05.05,0,0,1,.1,0v.17h-.1v-.17"/><path class="cls-3" d="M43.6,30.44a.05.05,0,0,1,.1,0v.17h-.1v-.17"/><path class="cls-3" d="M43.76,30.51a.05.05,0,0,1,.1,0v.17h-.1v-.17"/><path class="cls-3" d="M43.91,30.62a.05.05,0,0,1,.1,0v.17h-.1v-.17"/><path class="cls-3" d="M44.07,30.67a.06.06,0,0,1,.1,0v.18h-.1v-.18"/><line class="cls-17" x1="36.08" y1="34.61" x2="37.08" y2="34.56"/><polyline class="cls-17" points="38.01 34.66 38.49 34.66 38.49 34.52 39.16 34.52 39.13 34.42 39.88 34.39"/><polyline class="cls-17" points="40.28 34.42 40.77 34.44 40.77 34.28 41.32 34.28 41.33 34.18 42.01 34.29 42.01 34.15 42.38 34.21"/><line class="cls-17" x1="39.59" y1="34.52" x2="39.38" y2="34.5"/><line class="cls-17" x1="38.32" y1="34.58" x2="38.01" y2="34.6"/><line class="cls-17" x1="36.98" y1="34.47" x2="36.13" y2="34.52"/><path class="cls-3" d="M39.77,34.33a.25.25,0,0,1,.44,0v.59h-.44v-.59"/><path class="cls-22" d="M39.62,34.37a.38.38,0,0,1,.76,0Z"/><polyline class="cls-2" points="35.51 27.49 36.1 26.77 36.35 26.78 36.91 27.48 35.51 27.49"/><polygon class="cls-17" points="35.51 27.49 36.1 26.77 36.35 26.78 36.91 27.48 35.51 27.49"/><line class="cls-17" x1="36.83" y1="27.39" x2="35.61" y2="27.39"/><line class="cls-17" x1="36.74" y1="27.29" x2="35.66" y2="27.3"/><line class="cls-17" x1="36.65" y1="27.2" x2="35.77" y2="27.2"/><line class="cls-17" x1="36.57" y1="27.09" x2="35.83" y2="27.11"/><line class="cls-17" x1="36.51" y1="27" x2="35.93" y2="27.01"/><line class="cls-23" x1="36.44" y1="26.91" x2="35.99" y2="26.9"/><line class="cls-17" x1="36.37" y1="26.84" x2="36.06" y2="26.84"/><line class="cls-17" x1="44.76" y1="33.27" x2="45.79" y2="33.18"/><line class="cls-17" x1="45.67" y1="33.1" x2="44.76" y2="33.21"/><line class="cls-17" x1="45.3" y1="32.88" x2="44.74" y2="32.98"/><line class="cls-17" x1="45.56" y1="33.05" x2="44.76" y2="33.15"/><line class="cls-17" x1="45.46" y1="32.96" x2="44.76" y2="33.06"/><line class="cls-17" x1="44.94" y1="32.87" x2="45.34" y2="33.28"/><line class="cls-17" x1="44.76" y1="32.87" x2="45.06" y2="33.3"/><line class="cls-17" x1="45.2" y1="32.87" x2="45.78" y2="33.27"/><line class="cls-17" x1="44.85" y1="32.88" x2="45.21" y2="33.31"/><line class="cls-17" x1="45.08" y1="32.86" x2="45.67" y2="33.3"/><line class="cls-17" x1="44.74" y1="32.98" x2="44.92" y2="33.33"/><line class="cls-17" x1="45.03" y1="32.87" x2="45.47" y2="33.27"/><line class="cls-17" x1="42.55" y1="32.22" x2="37.81" y2="32.33"/><line class="cls-17" x1="38.91" y1="32.3" x2="39.57" y2="33.11"/><line class="cls-17" x1="39.88" y1="32.28" x2="40.54" y2="33.06"/><line class="cls-17" x1="40.79" y1="32.27" x2="41.52" y2="33.06"/><line class="cls-17" x1="41.82" y1="32.24" x2="42.5" y2="32.94"/><line class="cls-17" x1="38.2" y1="32.35" x2="38.71" y2="33.11"/><line class="cls-17" x1="39.25" y1="32.32" x2="39.89" y2="33.1"/><line class="cls-17" x1="40.28" y1="32.28" x2="40.96" y2="33.08"/><line class="cls-17" x1="41.33" y1="32.25" x2="42.01" y2="33.05"/><line class="cls-17" x1="37.86" y1="32.35" x2="38.35" y2="33.14"/><line class="cls-17" x1="39.64" y1="32.3" x2="40.28" y2="33.08"/><line class="cls-17" x1="41.1" y1="32.27" x2="41.81" y2="33.06"/><line class="cls-17" x1="38.62" y1="32.33" x2="39.21" y2="33.13"/><line class="cls-17" x1="40.64" y1="32.28" x2="41.37" y2="33.05"/><line class="cls-17" x1="38.79" y1="32.3" x2="39.42" y2="33.1"/><line class="cls-17" x1="37.98" y1="32.33" x2="38.52" y2="33.14"/><line class="cls-17" x1="39.5" y1="32.28" x2="40.1" y2="33.06"/><line class="cls-17" x1="38.37" y1="32.32" x2="38.88" y2="33.1"/><line class="cls-17" x1="39.11" y1="32.3" x2="39.7" y2="33.1"/><line class="cls-17" x1="38.51" y1="32.33" x2="39.04" y2="33.1"/><line class="cls-17" x1="38.06" y1="32.34" x2="38.62" y2="33.12"/><line class="cls-17" x1="39.37" y1="32.3" x2="39.96" y2="33.08"/><line class="cls-17" x1="37.82" y1="32.48" x2="38.23" y2="33.13"/><line class="cls-17" x1="37.82" y1="32.85" x2="37.97" y2="33.13"/><line class="cls-17" x1="40.07" y1="32.3" x2="40.75" y2="33.06"/><line class="cls-17" x1="37.84" y1="32.67" x2="38.1" y2="33.12"/><line class="cls-17" x1="39.74" y1="32.29" x2="40.43" y2="33.08"/><line class="cls-17" x1="38.73" y1="32.32" x2="39.31" y2="33.11"/><line class="cls-17" x1="40.18" y1="32.29" x2="40.83" y2="33.05"/><line class="cls-17" x1="40.43" y1="32.28" x2="41.04" y2="33.07"/><line class="cls-17" x1="41.24" y1="32.26" x2="41.9" y2="33.05"/><line class="cls-17" x1="41.69" y1="32.24" x2="42.42" y2="33.02"/><line class="cls-17" x1="40.91" y1="32.27" x2="41.6" y2="33.02"/><line class="cls-17" x1="40.55" y1="32.28" x2="41.16" y2="33.02"/><line class="cls-17" x1="40.01" y1="32.3" x2="40.61" y2="33.05"/><line class="cls-17" x1="41.43" y1="32.26" x2="42.16" y2="33.04"/><line class="cls-17" x1="41.96" y1="32.24" x2="42.51" y2="32.81"/><line class="cls-17" x1="42.34" y1="32.24" x2="42.55" y2="32.44"/><line class="cls-17" x1="42.08" y1="32.24" x2="42.46" y2="32.64"/><line class="cls-17" x1="41.55" y1="32.28" x2="42.23" y2="32.98"/><line class="cls-17" x1="42.18" y1="32.22" x2="42.48" y2="32.51"/><line class="cls-17" x1="37.82" y1="32.54" x2="42.54" y2="32.31"/><line class="cls-17" x1="37.84" y1="32.87" x2="42.5" y2="32.63"/><line class="cls-17" x1="37.94" y1="33.02" x2="42.55" y2="32.82"/><line class="cls-17" x1="40.42" y1="33.05" x2="42.55" y2="32.95"/><line class="cls-17" x1="37.82" y1="32.66" x2="42.51" y2="32.42"/><line class="cls-17" x1="35.94" y1="32.32" x2="36.95" y2="32.32"/><line class="cls-17" x1="35.94" y1="32.58" x2="36.98" y2="32.52"/><line class="cls-17" x1="35.96" y1="32.91" x2="37.06" y2="32.85"/><line class="cls-17" x1="36.04" y1="33.09" x2="37.16" y2="33.1"/><line class="cls-17" x1="37.08" y1="32.7" x2="35.95" y2="32.78"/><line class="cls-17" x1="37.05" y1="32.62" x2="35.97" y2="32.69"/><line class="cls-17" x1="36.88" y1="32.39" x2="35.92" y2="32.43"/><line class="cls-17" x1="36.91" y1="32.2" x2="36.04" y2="32.24"/><line class="cls-17" x1="36.84" y1="32.08" x2="36.05" y2="32.16"/><polyline class="cls-17" points="37.2 32.44 37.18 32.87 36.83 32.02"/><line class="cls-17" x1="36.06" y1="32.01" x2="36.35" y2="33.11"/><line class="cls-17" x1="36.66" y1="32.03" x2="37.08" y2="33.13"/><line class="cls-17" x1="35.98" y1="33" x2="37.06" y2="32.94"/><line class="cls-17" x1="35.98" y1="32.12" x2="36.23" y2="33.08"/><line class="cls-17" x1="36.6" y1="32.06" x2="36.96" y2="33.1"/><line class="cls-17" x1="35.93" y1="32.33" x2="36.18" y2="33.1"/><line class="cls-17" x1="36.4" y1="32.01" x2="36.84" y2="33.1"/><line class="cls-17" x1="35.91" y1="32.68" x2="36.05" y2="33.1"/><line class="cls-17" x1="36.23" y1="32.04" x2="36.59" y2="33.11"/><line class="cls-17" x1="36.74" y1="32.03" x2="37.13" y2="33.02"/><line class="cls-17" x1="36.15" y1="32.04" x2="36.47" y2="33.11"/><line class="cls-17" x1="42.35" y1="32.51" x2="38.45" y2="32.71"/><line class="cls-17" x1="42.23" y1="32.73" x2="39.28" y2="32.87"/><line class="cls-17" x1="36.32" y1="32.03" x2="36.71" y2="33.05"/><line class="cls-17" x1="36.5" y1="32.08" x2="36.83" y2="32.9"/><line class="cls-17" x1="37.52" y1="30.96" x2="40.27" y2="30.96"/><line class="cls-17" x1="37.59" y1="30.62" x2="42.62" y2="30.53"/><line class="cls-17" x1="42.25" y1="30.35" x2="37.64" y2="30.48"/><line class="cls-17" x1="42.55" y1="30.78" x2="37.52" y2="30.85"/><line class="cls-17" x1="42.44" y1="30.67" x2="37.71" y2="30.75"/><line class="cls-17" x1="45.93" y1="31.05" x2="45.05" y2="31.14"/><line class="cls-17" x1="45.44" y1="30.74" x2="44.76" y2="30.84"/><line class="cls-17" x1="45.82" y1="30.94" x2="44.8" y2="31.05"/><line class="cls-17" x1="45.64" y1="30.84" x2="44.82" y2="30.94"/><line class="cls-17" x1="45.29" y1="30.64" x2="44.71" y2="30.73"/><line class="cls-17" x1="44.76" y1="30.32" x2="44.19" y2="30.36"/><line class="cls-17" x1="45.11" y1="30.54" x2="44.77" y2="30.59"/><line class="cls-17" x1="44.32" y1="30.45" x2="44.82" y2="30.42"/><line class="cls-17" x1="42.64" y1="30.31" x2="42.8" y2="30.5"/><line class="cls-17" x1="42.32" y1="30.31" x2="42.52" y2="30.5"/><line class="cls-17" x1="42.78" y1="30.31" x2="42.92" y2="30.46"/><line class="cls-17" x1="41.97" y1="30.31" x2="42.48" y2="30.93"/><line class="cls-17" x1="44.71" y1="30.73" x2="45.2" y2="31.18"/><line class="cls-17" x1="44.82" y1="31.04" x2="45.1" y2="31.19"/><line class="cls-17" x1="44.77" y1="30.62" x2="45.33" y2="31.19"/><line class="cls-17" x1="45.44" y1="30.73" x2="46.01" y2="31.13"/><line class="cls-17" x1="44.57" y1="30.25" x2="45.6" y2="31.18"/><line class="cls-17" x1="44.82" y1="30.37" x2="45.74" y2="31.18"/><line class="cls-17" x1="45.25" y1="30.63" x2="45.9" y2="31.15"/><line class="cls-17" x1="45.47" y1="31.18" x2="44.66" y2="30.42"/><line class="cls-17" x1="44.19" y1="30.27" x2="44.53" y2="30.55"/><line class="cls-17" x1="44.31" y1="30.27" x2="44.62" y2="30.52"/><line class="cls-17" x1="44.47" y1="30.27" x2="44.74" y2="30.48"/><line class="cls-17" x1="38.91" y1="30.35" x2="39.57" y2="30.98"/><line class="cls-17" x1="38.15" y1="30.35" x2="38.74" y2="30.98"/><line class="cls-17" x1="39.99" y1="30.32" x2="40.7" y2="30.97"/><line class="cls-17" x1="38.6" y1="30.33" x2="39.19" y2="30.94"/><line class="cls-17" x1="37.9" y1="30.35" x2="38.42" y2="30.94"/><line class="cls-17" x1="39.33" y1="30.33" x2="39.92" y2="30.97"/><line class="cls-17" x1="38.44" y1="30.35" x2="39.08" y2="30.99"/><line class="cls-17" x1="38.33" y1="30.4" x2="38.88" y2="30.97"/><line class="cls-17" x1="37.85" y1="30.4" x2="38.36" y2="30.97"/><line class="cls-17" x1="39.02" y1="30.33" x2="39.66" y2="30.95"/><line class="cls-17" x1="39.71" y1="30.32" x2="40.43" y2="30.96"/><line class="cls-17" x1="38.77" y1="30.35" x2="39.37" y2="30.94"/><line class="cls-17" x1="38.06" y1="30.37" x2="38.56" y2="30.97"/><line class="cls-17" x1="37.77" y1="30.37" x2="38.23" y2="30.96"/><line class="cls-17" x1="37.66" y1="30.35" x2="38.1" y2="30.98"/><line class="cls-17" x1="37.58" y1="30.38" x2="38.01" y2="30.98"/><line class="cls-17" x1="37.5" y1="30.42" x2="37.89" y2="30.97"/><line class="cls-17" x1="37.57" y1="30.69" x2="37.78" y2="30.96"/><line class="cls-17" x1="37.53" y1="30.78" x2="37.67" y2="30.95"/><line class="cls-17" x1="39.18" y1="30.34" x2="39.79" y2="30.97"/><line class="cls-17" x1="40.29" y1="30.32" x2="40.95" y2="30.96"/><line class="cls-17" x1="41.17" y1="30.32" x2="41.71" y2="30.94"/><line class="cls-17" x1="39.58" y1="30.35" x2="40.31" y2="30.98"/><line class="cls-17" x1="39.44" y1="30.35" x2="40.07" y2="30.95"/><line class="cls-17" x1="40.55" y1="30.33" x2="41.12" y2="30.98"/><line class="cls-17" x1="40.93" y1="30.33" x2="41.57" y2="30.97"/><line class="cls-17" x1="40.16" y1="30.34" x2="40.82" y2="30.96"/><line class="cls-17" x1="39.88" y1="30.33" x2="40.54" y2="30.97"/><line class="cls-17" x1="42.15" y1="30.31" x2="42.57" y2="30.83"/><line class="cls-17" x1="41.6" y1="30.32" x2="42.03" y2="30.94"/><line class="cls-17" x1="40.83" y1="30.34" x2="41.38" y2="30.95"/><line class="cls-17" x1="40.69" y1="30.32" x2="41.25" y2="30.96"/><line class="cls-17" x1="41.38" y1="30.32" x2="41.89" y2="30.94"/><line class="cls-17" x1="41.73" y1="30.31" x2="42.21" y2="30.94"/><line class="cls-17" x1="42.49" y1="30.32" x2="42.66" y2="30.53"/><line class="cls-17" x1="42.93" y1="30.31" x2="43" y2="30.43"/><line class="cls-17" x1="41.82" y1="30.3" x2="42.38" y2="30.93"/><line class="cls-17" x1="41.31" y1="30.32" x2="41.79" y2="30.92"/><line class="cls-17" x1="41.04" y1="30.32" x2="41.61" y2="30.91"/><line class="cls-17" x1="41.5" y1="30.34" x2="41.87" y2="30.81"/><line class="cls-17" x1="42.1" y1="30.3" x2="42.5" y2="30.89"/><line class="cls-17" x1="42.24" y1="30.31" x2="42.42" y2="30.52"/><line class="cls-17" x1="42.59" y1="30.31" x2="42.69" y2="30.51"/><line class="cls-17" x1="40.45" y1="30.34" x2="40.84" y2="30.78"/><path class="cls-2" d="M33.82,46l.84.16,1.27.48.58.28.5.34-1.45.68L36,48l.61.37,2.31,0a12.25,12.25,0,0,1-2.48,1.27l1.38.16h1.08l.22,0-.7.37-.68.32-1,.27-.15.19.7,0,1.33.13-.18.08a25.73,25.73,0,0,1-4.49,2.88L29.25,51,32.5,51l-.68-.38-.77-.26-.51-.2.07-.21.48,0H32l.88-.07.46-.09-.54-.1-.47-.33L32,49.27,31,48.84v-.1l.66-.16.54,0,1.09-.14.67,0-.62-.4-.77-.6.68-.24,1.59-.32-1-.86"/><g class="cls-24"><path class="cls-25" d="M38.49,51.22a.78.78,0,0,0-.49.1,1,1,0,0,0-.71-.13c-.42,0-.4-.33-1-.08.18-.33.61-.33,1.13-.49a.91.91,0,0,1,.5-.25,2.49,2.49,0,0,1,1-.47c-.57-.08-1.2,0-1.77-.11-.25-.13-.57,0-.8-.11a3.16,3.16,0,0,1,.93-.29c.22-.07.32-.4.57-.36.25-.31.59-.37.88-.6l-2.17,0a.42.42,0,0,0-.52-.14.68.68,0,0,0-.46-.18c-.21.07-.31-.06-.57,0,0-.33.63-.14,1-.4a1.18,1.18,0,0,1,.93-.42.29.29,0,0,0-.28-.3.86.86,0,0,1-.4-.27,7.87,7.87,0,0,1-1.52-.55.66.66,0,0,1,.26-.15c.33-.12.14-.38.58-.63.1-.55.28-.81.73-1a2.39,2.39,0,0,0,.77-.56c.26-.08.33-.43.63-.5.21-.22-.06-.76.41-.75a.78.78,0,0,1,.52-.11l.41,0h.41a.46.46,0,0,1,.47.1.8.8,0,0,1,.64.08.52.52,0,0,0,.61.19.69.69,0,0,1,.51,0A.53.53,0,0,0,42,43a1.32,1.32,0,0,1,.71.12c.24.08.22.38.57.42s.23.41.66.5.21.23.57.29c.18.17.59.42.73.56a37.22,37.22,0,0,1-6.74,6.38"/></g><path class="cls-26" d="M38.49,51.22a.78.78,0,0,0-.49.1,1,1,0,0,0-.71-.13c-.42,0-.4-.33-1-.08.18-.33.61-.33,1.13-.49a.91.91,0,0,1,.5-.25,2.49,2.49,0,0,1,1-.47c-.57-.08-1.2,0-1.77-.11-.25-.13-.57,0-.8-.11a3.16,3.16,0,0,1,.93-.29c.22-.07.32-.4.57-.36.25-.31.59-.37.88-.6l-2.17,0a.43.43,0,0,0-.52-.14.68.68,0,0,0-.46-.18c-.21.07-.31-.06-.57,0,0-.33.63-.14,1-.4a1.18,1.18,0,0,1,.93-.42.29.29,0,0,0-.28-.3.86.86,0,0,1-.4-.27,7.87,7.87,0,0,1-1.52-.55.66.66,0,0,1,.26-.15c.33-.12.14-.38.58-.63.1-.55.28-.81.73-1a2.22,2.22,0,0,0,.77-.55c.26-.08.33-.43.63-.5.21-.22-.06-.76.41-.76a.82.82,0,0,1,.52-.1l.41,0h.41a.46.46,0,0,1,.47.1.8.8,0,0,1,.64.08.52.52,0,0,0,.61.19.69.69,0,0,1,.51,0A.53.53,0,0,0,42,43a1.32,1.32,0,0,1,.71.12c.24.08.22.38.57.42s.23.41.66.5.21.23.57.29c.18.17.59.42.73.56A37.22,37.22,0,0,1,38.49,51.22Z"/><path class="cls-6" d="M36.83,47.28c.51,0,1.05-.68,1.83-.83"/><path class="cls-6" d="M39.42,47.9c-.18.22-.55.26-.79.56"/><path class="cls-6" d="M38.82,49.91c.16-.19.44-.27.57-.42"/><g class="cls-27"><path class="cls-28" d="M26.41,42c0-.3.11-.46.24-.49a.4.4,0,0,1,.32-.41.32.32,0,0,0,.25-.21,1.45,1.45,0,0,1,.5-.57c.09-.11.13-.32.27-.33s.12-.33.39-.35l.57-.48q.23-.25.42.09a4.41,4.41,0,0,1,.26.59c.2.12.21.35.31.44s.08.26.17.29.06.24.18.34c.14.35.57.86.58,1.22a.32.32,0,0,0,.18.29c.24.09.16.35.28.45s.33.44.39.66c.33.16.26.4.46.53s.19.13.23.31a.56.56,0,0,0,.29.31c.32.09.21.34.31.51a.32.32,0,0,0,.28.24c.32.13.44.41.65.62.38.24,1.13.57,1.19.83a1.87,1.87,0,0,0-.61.11,1.85,1.85,0,0,0-.85.09.69.69,0,0,1-.52.12.61.61,0,0,1-.34.2L31,46.54c-.81-.3-1.85-.2-2.13-1.4l-1.95-2.36-.5-.75"/></g><path class="cls-6" d="M26.41,42c0-.3.11-.47.24-.49a.41.41,0,0,1,.32-.41.32.32,0,0,0,.25-.21,1.45,1.45,0,0,1,.5-.57c.09-.11.13-.32.27-.32s.12-.34.39-.36l.57-.48q.23-.25.42.09a4.41,4.41,0,0,1,.26.59c.2.11.21.35.31.44s.08.26.17.29.06.24.18.34c.14.35.57.86.58,1.22a.32.32,0,0,0,.18.29c.24.09.16.35.28.45s.33.44.39.66c.33.16.26.4.46.53s.19.13.23.31a.56.56,0,0,0,.29.31c.32.09.21.34.31.51a.32.32,0,0,0,.28.24c.32.13.44.41.65.62.38.24,1.13.57,1.19.83a1.87,1.87,0,0,0-.61.11,1.85,1.85,0,0,0-.85.09.69.69,0,0,1-.52.12.61.61,0,0,1-.34.2L31,46.54c-.82-.3-1.86-.2-2.14-1.4l-1.95-2.36Z"/><g class="cls-29"><path class="cls-30" d="M32.84,47.43c.23.39.86.65,1.29,1-.9.3-1.84,0-2.76.38a2.91,2.91,0,0,1,.73.41.77.77,0,0,0,.56.21c.34,0,.71.29,1.13.33-.59.4-2,0-2.93.37.14.14.47.16.49.27a2.75,2.75,0,0,0,.76.29,3.26,3.26,0,0,1,.82.35.93.93,0,0,1-.53.11,1,1,0,0,0-.63,0,1.44,1.44,0,0,1-1-.11c-.24-.07-.86.23-1.1.3L28,50.05c-1.14-.81-2.14-1.76-3.16-2.64L22,44.59a2.45,2.45,0,0,1-.88-1.29L21,42.54V40.36c.3-.19.49-.57.67-.68.18-.29.45-.24.48-.48s.17-.22.27-.2c.22-.21.54-.85.85-.56.24.07.61-.21.79.25l.14.34c.09.13.26,0,.47.35.17.1.35.13.42.38.51.44.44.69.63,1.1.06.11-.06.37.17.48a.45.45,0,0,1,.16.41.17.17,0,0,0,.11.18c.28-.08.45.47.67.7,0,0,0,.1.13.16a1.37,1.37,0,0,1,.83,1,.93.93,0,0,0,.36.56c.57.31.64,1,1.42,1.56a16.25,16.25,0,0,1,3.27,1.56"/></g><path class="cls-3" d="M35.87,39.2a.79.79,0,0,1,.38-.25c.18-.24.51-.33.64,0,.36.25.74.41,1.1.62a3.06,3.06,0,0,1,1.94.81,8.15,8.15,0,0,0,2,.4,1.75,1.75,0,0,0-.8.35,9,9,0,0,1,1.56.74.5.5,0,0,0-.37.24L42.13,42l0,.12-.14,0-.08.12L41.66,42l.2.35c-.37-.11-.72-.54-1.08-.78-.82-.56-1.28-.4-1.36.49l-.24,0-.29-.32c0,.37-.23.48-.44.34L38,41.06c-.54-.23-.84-.51-.91-.93a4.24,4.24,0,0,0-.5-.75c-.12-.16-.38-.19-.68-.18"/><path class="cls-2" d="M36.7,39s.07,0,.07,0,0,0-.08,0a.07.07,0,0,1-.07-.05.09.09,0,0,1,.08,0"/><path class="cls-31" d="M37.52,39.92c0,1,1.46,1.26,3.63,1.2"/><path class="cls-31" d="M38.35,41.09a1.83,1.83,0,0,1,.57.6"/><path class="cls-3" d="M38.54,42l0,.44a1.05,1.05,0,0,0-.53.11c0,.05,0,.12.1.14l.15-.13c.11,0-.07.14-.1.23s0,.06.09,0l.28-.25V43s.09,0,.11,0c0-.22,0-.37.06-.35s.12-.05.12-.1l-.15,0V42h-.15"/><path class="cls-3" d="M39.23,42a1.75,1.75,0,0,0-.07.49.81.81,0,0,0-.37.21.78.78,0,0,1,.33-.08l-.13.33s0,.06.1,0l.14-.3s.07.1.08.26,0,0,.06,0l0-.27.21,0-.29-.12a1.22,1.22,0,0,1,0-.48h-.12"/><path class="cls-32" d="M20.76,25.2c3.22,1.2,9.57,1.5,13.15-3.41C36.8,25.7,41.42,27,47,25.19l-.1,16.42a4.85,4.85,0,0,1-1.35,2.86c-3.2,4.06-6.26,6.6-11.55,9.72a60.29,60.29,0,0,1-12.08-9.72c-1-.88-.89-2.22-.92-3.17Z"/><line class="cls-33" x1="20.92" y1="35.69" x2="46.96" y2="35.69"/><line class="cls-34" x1="33.91" y1="19.79" x2="33.91" y2="35.7"/><path class="cls-6" d="M30.77,46.27c.29.54,2.11,1,2.07,1.16.23.39.86.65,1.29,1-.9.3-1.84,0-2.76.38a2.91,2.91,0,0,1,.73.41.73.73,0,0,0,.56.21c.34,0,.71.29,1.13.33-.59.4-2,0-2.93.37.14.14.47.16.49.27a2.75,2.75,0,0,0,.76.29,3.26,3.26,0,0,1,.82.35.93.93,0,0,1-.53.11,1,1,0,0,0-.63,0,1.44,1.44,0,0,1-1-.11c-.24-.07-.86.23-1.1.3L28,50.05c-1.14-.81-2.14-1.76-3.16-2.64L22,44.59a2.45,2.45,0,0,1-.88-1.29L21,42.54V40.36c.3-.19.49-.57.67-.68.18-.29.45-.24.48-.48s.17-.22.27-.2c.22-.21.54-.85.85-.56.24.07.61-.21.79.25l.14.34c.09.13.26,0,.47.35.17.1.35.13.42.38.51.44.44.69.63,1.1.06.11-.06.37.17.48a.45.45,0,0,1,.16.41.17.17,0,0,0,.11.18c.28-.08.45.47.67.7,0,0,0,.1.13.16a1.37,1.37,0,0,1,.83,1,.93.93,0,0,0,.36.56c.57.31.38.69,1.16,1.25"/><line class="cls-17" x1="36.03" y1="34.74" x2="36.03" y2="34.99"/><line class="cls-17" x1="37.01" y1="34.77" x2="37.01" y2="34.99"/><line class="cls-17" x1="36.07" y1="34.8" x2="36.07" y2="34.99"/><line class="cls-17" x1="37.94" y1="34.75" x2="37.94" y2="34.99"/><line class="cls-17" x1="37.06" y1="34.72" x2="37.08" y2="34.99"/><line class="cls-17" x1="36.12" y1="34.82" x2="36.12" y2="35"/><line class="cls-17" x1="36.93" y1="34.73" x2="36.93" y2="34.98"/><line class="cls-17" x1="45.22" y1="34.67" x2="45.22" y2="34.92"/><line class="cls-17" x1="45.88" y1="34.51" x2="45.88" y2="34.73"/><line class="cls-17" x1="45.27" y1="34.71" x2="45.28" y2="34.9"/><line class="cls-17" x1="45.95" y1="34.56" x2="45.95" y2="34.7"/><line class="cls-17" x1="45.38" y1="34.67" x2="45.38" y2="34.86"/><line class="cls-17" x1="46.03" y1="34.51" x2="46.04" y2="34.67"/><line class="cls-17" x1="45.48" y1="34.67" x2="45.48" y2="34.85"/><line class="cls-17" x1="46.09" y1="34.55" x2="46.1" y2="34.67"/><line class="cls-17" x1="45.58" y1="34.63" x2="45.58" y2="34.82"/><line class="cls-17" x1="45.69" y1="34.64" x2="45.68" y2="34.79"/><line class="cls-17" x1="44.21" y1="34.53" x2="44.21" y2="34.93"/><line class="cls-17" x1="44.58" y1="34.7" x2="44.58" y2="34.93"/><line class="cls-17" x1="44.28" y1="34.64" x2="44.28" y2="34.93"/><line class="cls-17" x1="44.42" y1="34.7" x2="44.42" y2="34.93"/><line class="cls-17" x1="44.04" y1="34.56" x2="44.04" y2="34.93"/><line class="cls-17" x1="43.79" y1="34.58" x2="43.79" y2="34.94"/><line class="cls-17" x1="44.35" y1="34.62" x2="44.35" y2="34.92"/><line class="cls-17" x1="44.5" y1="34.75" x2="44.5" y2="34.92"/><line class="cls-17" x1="43.9" y1="34.6" x2="43.92" y2="34.93"/><line class="cls-17" x1="43.64" y1="34.62" x2="43.64" y2="34.94"/><line class="cls-17" x1="43.21" y1="34.63" x2="43.21" y2="34.94"/><line class="cls-17" x1="43.5" y1="34.65" x2="43.5" y2="34.95"/><line class="cls-17" x1="43.38" y1="34.67" x2="43.38" y2="34.93"/><line class="cls-17" x1="43.3" y1="34.72" x2="43.3" y2="34.94"/><line class="cls-17" x1="42.52" y1="34.53" x2="42.53" y2="34.95"/><line class="cls-17" x1="42.84" y1="34.64" x2="42.84" y2="34.93"/><line class="cls-17" x1="42.61" y1="34.64" x2="42.61" y2="34.96"/><line class="cls-17" x1="42.73" y1="34.67" x2="42.74" y2="34.94"/><line class="cls-17" x1="42.25" y1="34.57" x2="42.27" y2="34.96"/><line class="cls-17" x1="42.14" y1="34.57" x2="42.15" y2="34.96"/><line class="cls-17" x1="42.03" y1="34.59" x2="42.04" y2="34.94"/><line class="cls-17" x1="41.85" y1="34.72" x2="41.85" y2="34.96"/><line class="cls-17" x1="41.75" y1="34.72" x2="41.75" y2="34.96"/><line class="cls-17" x1="41.59" y1="34.77" x2="41.59" y2="34.96"/><line class="cls-17" x1="41.5" y1="34.77" x2="41.5" y2="34.96"/><line class="cls-17" x1="41.42" y1="34.77" x2="41.42" y2="34.96"/><line class="cls-17" x1="41.27" y1="34.61" x2="41.28" y2="34.96"/><line class="cls-35" x1="41.2" y1="34.67" x2="41.2" y2="34.96"/><line class="cls-17" x1="41.11" y1="34.61" x2="41.12" y2="34.96"/><line class="cls-17" x1="40.79" y1="34.96" x2="40.8" y2="34.8"/><line class="cls-17" x1="40.25" y1="34.61" x2="40.25" y2="34.96"/><line class="cls-17" x1="40.72" y1="34.81" x2="40.72" y2="34.96"/><line class="cls-17" x1="40.32" y1="34.63" x2="40.32" y2="34.96"/><line class="cls-17" x1="40.63" y1="34.79" x2="40.62" y2="34.96"/><line class="cls-17" x1="40.41" y1="34.67" x2="40.4" y2="34.97"/><line class="cls-17" x1="40.54" y1="34.78" x2="40.54" y2="34.96"/><line class="cls-17" x1="41.35" y1="34.79" x2="41.35" y2="34.96"/><line class="cls-17" x1="41.65" y1="34.79" x2="41.67" y2="34.96"/><line class="cls-17" x1="40.47" y1="34.77" x2="40.47" y2="34.96"/><line class="cls-17" x1="40.85" y1="34.96" x2="40.86" y2="34.84"/><line class="cls-17" x1="40.92" y1="34.96" x2="40.92" y2="34.88"/><line class="cls-17" x1="40.66" y1="34.95" x2="40.67" y2="34.8"/><line class="cls-17" x1="40.58" y1="34.95" x2="40.58" y2="34.81"/><line class="cls-17" x1="40.36" y1="34.96" x2="40.37" y2="34.67"/><line class="cls-17" x1="40.51" y1="34.96" x2="40.5" y2="34.79"/><line class="cls-17" x1="40.28" y1="34.96" x2="40.29" y2="34.7"/><line class="cls-17" x1="43.57" y1="34.93" x2="43.56" y2="34.74"/><line class="cls-17" x1="43.74" y1="34.93" x2="43.72" y2="34.71"/><line class="cls-17" x1="43.98" y1="34.93" x2="43.98" y2="34.71"/><line class="cls-17" x1="43.43" y1="34.93" x2="43.47" y2="34.76"/><line class="cls-17" x1="42.68" y1="34.94" x2="42.68" y2="34.78"/><line class="cls-17" x1="42.21" y1="34.93" x2="42.21" y2="34.77"/><line class="cls-17" x1="42.09" y1="34.93" x2="42.09" y2="34.71"/><line class="cls-17" x1="39.5" y1="34.98" x2="39.5" y2="34.77"/><line class="cls-17" x1="38.05" y1="34.99" x2="38.02" y2="34.76"/><line class="cls-17" x1="38.21" y1="34.99" x2="38.21" y2="34.74"/><line class="cls-17" x1="38.38" y1="34.98" x2="38.39" y2="34.8"/><line class="cls-17" x1="38.5" y1="34.97" x2="38.51" y2="34.8"/><line class="cls-17" x1="38.77" y1="34.97" x2="38.77" y2="34.77"/><line class="cls-17" x1="38.89" y1="34.96" x2="38.89" y2="34.84"/><line class="cls-17" x1="39.09" y1="34.97" x2="39.09" y2="34.73"/><line class="cls-17" x1="39.31" y1="34.97" x2="39.31" y2="34.8"/><line class="cls-17" x1="38.63" y1="34.97" x2="38.64" y2="34.71"/><line class="cls-17" x1="38.27" y1="34.97" x2="38.3" y2="34.78"/><line class="cls-17" x1="38.12" y1="34.96" x2="38.12" y2="34.8"/><line class="cls-17" x1="38.72" y1="34.97" x2="38.71" y2="34.81"/><line class="cls-17" x1="38.99" y1="34.96" x2="38.99" y2="34.79"/><line class="cls-17" x1="39.24" y1="34.97" x2="39.2" y2="34.83"/><line class="cls-17" x1="39.41" y1="34.97" x2="39.4" y2="34.81"/><line class="cls-17" x1="38.58" y1="34.96" x2="38.58" y2="34.85"/><line class="cls-17" x1="39.14" y1="34.96" x2="39.15" y2="34.84"/><line class="cls-17" x1="38.44" y1="34.96" x2="38.44" y2="34.83"/><line class="cls-17" x1="36.89" y1="34.99" x2="36.88" y2="34.77"/><line class="cls-17" x1="36.16" y1="35" x2="36.17" y2="34.77"/><line class="cls-17" x1="36.8" y1="34.98" x2="36.8" y2="34.8"/><line class="cls-17" x1="36.23" y1="34.99" x2="36.22" y2="34.74"/><line class="cls-17" x1="36.37" y1="35" x2="36.4" y2="34.76"/><line class="cls-17" x1="36.54" y1="34.99" x2="36.54" y2="34.75"/><line class="cls-17" x1="36.65" y1="34.99" x2="36.65" y2="34.83"/><line class="cls-17" x1="36.41" y1="34.99" x2="36.44" y2="34.83"/><line class="cls-17" x1="36.3" y1="34.99" x2="36.29" y2="34.83"/><line class="cls-17" x1="36.73" y1="34.99" x2="36.73" y2="34.83"/><line class="cls-17" x1="36.59" y1="34.98" x2="36.6" y2="34.81"/><line class="cls-17" x1="38.84" y1="34.98" x2="38.84" y2="34.83"/><line class="cls-17" x1="38.33" y1="34.97" x2="38.34" y2="34.88"/><line class="cls-17" x1="36.49" y1="34.98" x2="36.49" y2="34.85"/><line class="cls-17" x1="37.13" y1="34.98" x2="37.12" y2="34.74"/><line class="cls-17" x1="39.6" y1="34.96" x2="39.59" y2="34.77"/><line class="cls-17" x1="38.95" y1="34.97" x2="38.95" y2="34.81"/><line class="cls-17" x1="39.28" y1="34.96" x2="39.25" y2="34.81"/><line class="cls-17" x1="39.45" y1="34.97" x2="39.45" y2="34.8"/><line class="cls-17" x1="40.96" y1="34.95" x2="40.99" y2="34.73"/><line class="cls-17" x1="41.94" y1="34.94" x2="41.96" y2="34.71"/><line class="cls-17" x1="41.06" y1="34.96" x2="41.05" y2="34.73"/><line class="cls-17" x1="39.66" y1="34.96" x2="39.66" y2="34.81"/><line class="cls-17" x1="38" y1="34.97" x2="38" y2="34.81"/><line class="cls-17" x1="42.59" y1="33.59" x2="42.59" y2="34.06"/><path class="cls-17" d="M42.7,33.71c0,.21-.05.33,0,.37"/><line class="cls-17" x1="42.78" y1="33.97" x2="42.78" y2="34.19"/><path class="cls-17" d="M42.87,33.84c0,.11,0,.24,0,.32"/><line class="cls-17" x1="44.34" y1="33.18" x2="44.34" y2="34.22"/><line class="cls-17" x1="44.42" y1="33.96" x2="44.43" y2="34.23"/><line class="cls-17" x1="44.87" y1="32.58" x2="44.9" y2="32.86"/><line class="cls-17" x1="45.25" y1="32.58" x2="45.26" y2="32.83"/><line class="cls-17" x1="44.99" y1="32.61" x2="44.99" y2="32.83"/><line class="cls-17" x1="44.52" y1="33.83" x2="44.52" y2="34.23"/><line class="cls-17" x1="45.12" y1="32.6" x2="45.13" y2="32.86"/><line class="cls-17" x1="44.61" y1="33.91" x2="44.63" y2="34.26"/><line class="cls-17" x1="45.83" y1="32.69" x2="45.91" y2="33.5"/><line class="cls-17" x1="46.01" y1="32.92" x2="46.07" y2="33.76"/><line class="cls-17" x1="45.76" y1="31.51" x2="45.76" y2="32.15"/><line class="cls-17" x1="45.52" y1="31.65" x2="45.52" y2="32.2"/><line class="cls-17" x1="44.86" y1="31.45" x2="44.86" y2="32.26"/><line class="cls-17" x1="45.88" y1="31.59" x2="45.88" y2="32.09"/><line class="cls-17" x1="44.97" y1="31.83" x2="44.94" y2="32.28"/><line class="cls-17" x1="45.44" y1="31.77" x2="45.42" y2="32.2"/><line class="cls-17" x1="45.96" y1="31.73" x2="45.96" y2="32.06"/><line class="cls-17" x1="45.33" y1="31.88" x2="45.33" y2="32.22"/><line class="cls-17" x1="45.05" y1="32.09" x2="45.03" y2="32.26"/><line class="cls-17" x1="46.01" y1="31.65" x2="46.01" y2="31.97"/><line class="cls-17" x1="45.16" y1="32.05" x2="45.18" y2="32.25"/><line class="cls-17" x1="37.65" y1="31.45" x2="37.65" y2="31.79"/><line class="cls-17" x1="38.64" y1="31.68" x2="38.64" y2="32.23"/><line class="cls-17" x1="39.58" y1="31.68" x2="39.55" y2="32.19"/><line class="cls-17" x1="40.36" y1="31.68" x2="40.39" y2="32.2"/><line class="cls-17" x1="37.8" y1="31.7" x2="37.83" y2="32.25"/><line class="cls-17" x1="38.75" y1="31.8" x2="38.75" y2="32.26"/><line class="cls-17" x1="38.92" y1="31.85" x2="38.93" y2="32.25"/><line class="cls-17" x1="39.1" y1="31.87" x2="39.11" y2="32.22"/><line class="cls-17" x1="39.68" y1="31.77" x2="39.71" y2="32.22"/><line class="cls-17" x1="39.24" y1="31.91" x2="39.23" y2="32.22"/><line class="cls-17" x1="38.33" y1="31.77" x2="38.35" y2="32.25"/><line class="cls-17" x1="38.04" y1="31.74" x2="38.04" y2="32.17"/><line class="cls-17" x1="38.15" y1="31.8" x2="38.19" y2="32.12"/><line class="cls-17" x1="39.81" y1="31.79" x2="39.83" y2="32.22"/><line class="cls-17" x1="40.52" y1="31.73" x2="40.52" y2="32.12"/><line class="cls-17" x1="40.99" y1="31.61" x2="40.99" y2="32.09"/><line class="cls-17" x1="41.81" y1="31.64" x2="41.81" y2="32.08"/><line class="cls-17" x1="42.11" y1="31.31" x2="42.15" y2="32.15"/><line class="cls-17" x1="42.47" y1="31.44" x2="42.45" y2="32.14"/><line class="cls-17" x1="41.92" y1="31.7" x2="41.94" y2="32.11"/><line class="cls-17" x1="41.12" y1="31.73" x2="41.14" y2="32.17"/><line class="cls-17" x1="42.29" y1="31.62" x2="42.29" y2="32.12"/><line class="cls-17" x1="41.24" y1="31.62" x2="41.27" y2="32.15"/><line class="cls-17" x1="41.64" y1="31.76" x2="41.66" y2="32.17"/><line class="cls-17" x1="40.73" y1="31.83" x2="40.78" y2="32.22"/><line class="cls-17" x1="40.04" y1="31.74" x2="40.04" y2="32.17"/><line class="cls-17" x1="39.31" y1="31.7" x2="39.39" y2="32.23"/><line class="cls-17" x1="38.45" y1="31.68" x2="38.46" y2="32.19"/><line class="cls-17" x1="37.89" y1="31.8" x2="37.94" y2="32.23"/><line class="cls-17" x1="40.2" y1="31.77" x2="40.18" y2="32.17"/><line class="cls-17" x1="41.42" y1="31.76" x2="41.45" y2="32.2"/><line class="cls-17" x1="40.82" y1="31.77" x2="40.91" y2="32.11"/><line class="cls-17" x1="40.26" y1="31.89" x2="40.26" y2="32.2"/><line class="cls-17" x1="39.45" y1="31.85" x2="39.45" y2="32.19"/><path class="cls-2" d="M30.83,32.3a.94.94,0,0,1,0,1.88c-.5,0-.56-.6-.56-1.12s.06-.76.56-.76"/><path class="cls-15" d="M30.83,32.3a.94.94,0,0,1,0,1.88c-.5,0-.56-.6-.56-1.12S30.33,32.3,30.83,32.3Z"/><path class="cls-2" d="M32.1,35c-1,1.16-1.4-.21-2.1-.32a2.94,2.94,0,0,1,.27-1.13.49.49,0,0,1,.76-.14,1,1,0,0,1,.25.3c.27.37.65.13.78.53l0,.76"/><path class="cls-15" d="M32.1,35c-1,1.15-1.4-.21-2.1-.32a2.89,2.89,0,0,1,.27-1.13.5.5,0,0,1,.76-.15,1.33,1.33,0,0,1,.25.3c.27.38.65.14.78.53Z"/><path class="cls-2" d="M32.57,33.64a1,1,0,0,1,1.2.66.93.93,0,0,1-.84,1,1,1,0,0,1-1.21-.66.94.94,0,0,1,.85-1"/><path class="cls-36" d="M32.57,33.64a1,1,0,0,1,1.2.66.93.93,0,0,1-.84,1,1,1,0,0,1-1.21-.66A.93.93,0,0,1,32.57,33.64Z"/><polyline class="cls-3" points="32.84 34.16 32.72 34.33 32.49 34.32 32.73 34.45 32.77 34.41 32.98 34.46 32.8 34.36 32.84 34.16"/><polyline class="cls-2" points="50.73 23.07 40.43 23.07 40.43 25.17 50.73 25.17 49.56 24.09 50.73 23.07"/><polygon class="cls-6" points="50.73 23.07 40.43 23.07 40.43 25.17 50.73 25.17 49.56 24.09 50.73 23.07"/><path class="cls-6" d="M33.94,46.06a1.86,1.86,0,0,1,.79.16"/><path class="cls-3" d="M34.66,18.12a.31.31,0,0,0,.13,0,.13.13,0,0,0,.05-.07h.07v.22H34v-.07a.07.07,0,0,0,.07-.07v-.77a.08.08,0,0,0,0-.06H34V17.2h.89v.21H34.8a.09.09,0,0,0,0-.06.19.19,0,0,0-.1,0h-.4v.27h.29a.23.23,0,0,0,.11,0,.1.1,0,0,0,0,0h.06v.25H34.7l0-.05h-.41v.4h.4m-1.85.13v-.07h0a.35.35,0,0,0,0-.06v-.77a.35.35,0,0,0,0-.06h0V17.2h.35l.27,0a.64.64,0,0,1,.19.08.52.52,0,0,1,.19.2.48.48,0,0,1,.07.26.5.5,0,0,1-.06.24.33.33,0,0,1-.15.16l-.17.07-.25,0Zm.28-.14h.16a.45.45,0,0,0,.3-.09.33.33,0,0,0,.11-.26.38.38,0,0,0-.14-.31.53.53,0,0,0-.37-.12h-.06Z"/><path class="cls-3" d="M42.72,20.93l-.08.22a0,0,0,0,0,0,0,0,0,0,0,1,0,0s0,0,0,0a.05.05,0,0,0,0,0v.07h-.29v-.07l0,0a.16.16,0,0,0,0-.06l.37-.9h.23l.36.9h0a.12.12,0,0,0,.07.07v.07h-.34v-.07h0a0,0,0,0,0,0,0h0l-.1-.26h-.38M43,20.8l-.13-.35-.14.35Zm-1.16.52v-.07l0,0s0,0,0-.05V20.4h-.18l-.07,0a.09.09,0,0,0,0,.07h-.07v-.22h.92v.22h-.06a.16.16,0,0,0,0-.07l-.07,0h-.18v.78a.08.08,0,0,0,0,.05l0,0v.07Zm-1.55-.52a.54.54,0,0,1,.17-.4.64.64,0,0,1,.43-.15.6.6,0,0,1,.42.15.51.51,0,0,1,.17.39.54.54,0,0,1-.17.4.61.61,0,0,1-.43.15.58.58,0,0,1-.42-.15A.51.51,0,0,1,40.33,20.8Zm.6-.42a.33.33,0,0,0-.26.11.44.44,0,0,0-.11.3.42.42,0,0,0,.11.3.31.31,0,0,0,.26.11.3.3,0,0,0,.26-.11.5.5,0,0,0,0-.6A.33.33,0,0,0,40.93,20.38Zm-1.77.94v-.07l.05,0s0,0,0-.05v-.77s0-.05,0-.06l-.05,0v-.06h.35l.28,0a.58.58,0,0,1,.18.08.46.46,0,0,1,.19.2.48.48,0,0,1,.07.26.44.44,0,0,1-.21.4l-.16.07-.26,0Zm.28-.14h.16a.5.5,0,0,0,.31-.09.33.33,0,0,0,.1-.26.37.37,0,0,0-.13-.31.58.58,0,0,0-.38-.12h-.06Zm-1.33.14v-.07a.06.06,0,0,0,0,0,.08.08,0,0,0,0-.05v-.77a.08.08,0,0,0,0-.06h0v-.07h.52a.47.47,0,0,1,.28.08.23.23,0,0,1,.1.2.33.33,0,0,1-.06.19.31.31,0,0,1-.18.09l.22.35,0,.06.05,0v.06h-.26l-.28-.46h-.16v.28a.14.14,0,0,0,0,.09s0,0,.05,0v.07Zm.28-.58h.12a.57.57,0,0,0,.24,0,.14.14,0,0,0,0-.13.15.15,0,0,0-.06-.13.25.25,0,0,0-.16,0h-.19Zm-1.08.19-.09.22a0,0,0,0,1,0,0v0s0,0,0,0l.05,0v.07H37v-.07l.05,0,0-.06.37-.9h.22l.36.9h0a.09.09,0,0,0,.06.07v.07h-.34v-.07h0l0,0h0l-.1-.26Zm.32-.13-.14-.35-.13.35ZM36,21.32v-.07s.05,0,.05,0a.08.08,0,0,0,0-.05v-.77a.08.08,0,0,0,0-.06s0,0-.05,0v-.07h.52a.44.44,0,0,1,.28.08.24.24,0,0,1,.11.2.34.34,0,0,1-.07.19.26.26,0,0,1-.18.09l.23.35s0,0,0,.06l.06,0v.06h-.27l-.28-.46H36.3v.28c0,.05,0,.08,0,.09a.06.06,0,0,0,0,0v.07Zm.28-.58h.12a.57.57,0,0,0,.24,0,.17.17,0,0,0,0-.26.29.29,0,0,0-.17,0h-.19Zm-.73.58v-.07a.06.06,0,0,0,0,0,.08.08,0,0,0,0-.05v-.77a.08.08,0,0,0,0-.06h0v-.07h.35v.06l0,0a.08.08,0,0,0,0,.06v.77a.08.08,0,0,0,0,.05.06.06,0,0,0,0,0v.07Zm-.11,0h-.37a1.17,1.17,0,0,1-.29,0,.72.72,0,0,1-.2-.09.55.55,0,0,1-.17-.2.51.51,0,0,1-.06-.25.48.48,0,0,1,.16-.38.54.54,0,0,1,.4-.14,1.12,1.12,0,0,1,.27,0,.85.85,0,0,1,.22.13l-.21.19-.06,0v0s0,0,0,0,0-.06-.07-.08a.35.35,0,0,0-.16,0,.32.32,0,0,0-.25.1.36.36,0,0,0-.09.26.42.42,0,0,0,.13.33.52.52,0,0,0,.36.12h.1v-.33s0-.05,0-.06l-.05,0v-.06h.33v.06l-.05,0s0,0,0,.06v.31s0,.05,0,.06l.05,0Z"/><path class="cls-3" d="M47.59,24.12a.48.48,0,0,1,.17-.39.61.61,0,0,1,.43-.16.57.57,0,0,1,.42.16.49.49,0,0,1,.16.38.51.51,0,0,1-.16.4.63.63,0,0,1-.43.16.57.57,0,0,1-.43-.16.5.5,0,0,1-.16-.39m.59-.41a.33.33,0,0,0-.26.11.5.5,0,0,0,0,.6.35.35,0,0,0,.26.11.33.33,0,0,0,.26-.11.44.44,0,0,0,.1-.3.5.5,0,0,0-.09-.31A.35.35,0,0,0,48.18,23.71Zm-.78.59a.37.37,0,0,1-.09.27.37.37,0,0,1-.28.1.43.43,0,0,1-.24-.07.49.49,0,0,1-.16-.21l.21-.15,0,.05s0,0,0,.05a.07.07,0,0,0,0,.05.1.1,0,0,0,0,.09.17.17,0,0,0,.24,0,.25.25,0,0,0,0-.16v-.59a.08.08,0,0,0,0-.05.06.06,0,0,0-.05,0V23.6h.35v.06a.06.06,0,0,0,0,0,.08.08,0,0,0,0,.05Zm-1.49,0-.08.21a0,0,0,0,0,0,0,0,0,0,0,0,0,0l0,0,0,0v.06h-.29v-.06s0,0,0,0a.11.11,0,0,0,0-.05l.37-.9h.22l.37.9h0a.16.16,0,0,0,.07.07v.06h-.34v-.06l0,0s0,0,0,0h0v0l-.09-.25Zm.32-.14-.13-.34-.14.34Zm-1.66.52v-.06l0,0s0,0,0-.06v-.77a.07.07,0,0,0,0-.05l0,0V23.6h.55a.48.48,0,0,1,.26.06.21.21,0,0,1,.09.19.2.2,0,0,1,0,.13.34.34,0,0,1-.14.09.35.35,0,0,1,.19.1.28.28,0,0,1,.06.18.26.26,0,0,1,0,.15.22.22,0,0,1-.11.1.35.35,0,0,1-.11,0h-.71Zm.49-.92h-.21V24h.23a.28.28,0,0,0,.15,0,.11.11,0,0,0,.05-.1.13.13,0,0,0-.05-.11A.27.27,0,0,0,45.06,23.72Zm0,.41h-.23v.39h.21a.41.41,0,0,0,.21-.05.17.17,0,0,0,.07-.14.21.21,0,0,0-.07-.15A.36.36,0,0,0,45.08,24.13Zm-1.31.13-.09.21s0,0,0,0v0a0,0,0,0,0,0,0l0,0v.06h-.3v-.06l0,0a.11.11,0,0,0,0-.05l.37-.9h.22l.36.9h0a.11.11,0,0,0,.06.07v.06h-.34v-.06l0,0a0,0,0,0,0,0,0h0v0l-.1-.25Zm.32-.14L44,23.78l-.13.34Zm-1.62.52v-.06l.05,0a.08.08,0,0,0,0-.06v-.77a.08.08,0,0,0,0-.05.06.06,0,0,0-.05,0V23.6H43a.45.45,0,0,1,.28.07.25.25,0,0,1,.11.21.29.29,0,0,1-.07.18.32.32,0,0,1-.18.1l.23.35,0,0,.06,0v.06h-.27l-.28-.46h-.16v.29a.2.2,0,0,0,0,.09l0,0v.06Zm.28-.58h.12a.45.45,0,0,0,.24,0,.14.14,0,0,0,.06-.13.14.14,0,0,0-.06-.12.29.29,0,0,0-.17-.05h-.19Zm-1,.58v-.06l0,0s0,0,0-.06v-.77h-.18l-.07,0a.06.06,0,0,0,0,.06h-.07V23.6h.92v.21h-.07a.06.06,0,0,0,0-.06l-.07,0h-.18v.77s0,.05,0,.06l0,0v.06Z"/><polyline class="cls-2" points="25.47 23.07 23.98 21.69 23.99 21.63 25.93 21.66 27.37 23.05 25.47 23.07"/><polygon class="cls-9" points="25.47 23.07 23.98 21.69 23.99 21.63 25.93 21.66 27.37 23.05 25.47 23.07"/><path class="cls-14" d="M21.83,27.4c.39-.55,1-.31.57.25"/><path class="cls-14" d="M24.14,27.16a1.2,1.2,0,0,0-.48.24"/><path class="cls-14" d="M25,27.54a1.26,1.26,0,0,0-.81.34"/><path class="cls-14" d="M25.61,28a.83.83,0,0,0-.55.42"/><path class="cls-14" d="M26.37,28.3a1.65,1.65,0,0,0-1,.6"/><path class="cls-14" d="M27.05,28.59a2.1,2.1,0,0,0-1.21.89"/><path class="cls-14" d="M28.13,28.93a2.18,2.18,0,0,0-1.14.76"/><path class="cls-14" d="M28.84,29.21a2.25,2.25,0,0,0-1.32,1"/><path class="cls-14" d="M29.77,29.57c-.83-.05-1.46.51-2,1.48"/><path class="cls-14" d="M30.5,30A2.78,2.78,0,0,0,29,31.06"/><path class="cls-14" d="M23.41,27.59a.73.73,0,0,0-.34.39"/><path class="cls-14" d="M23.08,27.64a.74.74,0,0,0,.05-.51"/><line class="cls-14" x1="22.68" y1="27.22" x2="22.72" y2="27.4"/><path class="cls-14" d="M23,27.2a.57.57,0,0,1,0,.31"/><path class="cls-14" d="M22.76,27.16a.34.34,0,0,1,0,.25"/><path class="cls-14" d="M22.85,27.18a.31.31,0,0,1,.06.29"/><path class="cls-14" d="M23.49,28.7a.81.81,0,0,1,.28-.69"/><path class="cls-14" d="M24.12,29.77a2.08,2.08,0,0,1,.19-.73"/><path class="cls-14" d="M24.67,30.49a2.7,2.7,0,0,1,.23-1.09"/><path class="cls-14" d="M25.11,31.19a2.27,2.27,0,0,1,.26-1.07"/><path class="cls-14" d="M25.59,31.9a1.6,1.6,0,0,1,.21-1"/><path class="cls-14" d="M26.09,32.48a1.69,1.69,0,0,1,.13-.83"/><path class="cls-14" d="M26.73,33.11a3.27,3.27,0,0,1,0-1.43"/><path class="cls-14" d="M31.38,30.23c-1.05.46-1.75,1.85-1.76,3.58"/><path class="cls-6" d="M30.88,50.11c-.73-.16-.77-.5-1.16-.75"/><path class="cls-37" d="M29.81,47.61c-.12.3.76.49,1.26.81.17.1.1.3.32.38"/><path class="cls-14" d="M27.41,33.65a2.67,2.67,0,0,1,0-1.53"/><path class="cls-2" d="M29.2,35.5l1.56,0c.13-.8-.61-1.05-1.05-.41a1.14,1.14,0,0,0-.51.46"/><path class="cls-14" d="M29.2,35.5l1.56,0c.13-.8-.61-1.05-1.05-.41A1.14,1.14,0,0,0,29.2,35.5Z"/><path class="cls-14" d="M29.67,35.06a.46.46,0,0,1,.58.17"/><path class="cls-2" d="M28.93,35.43a1,1,0,1,0,0-2,1.07,1.07,0,0,0-.66.22,1,1,0,0,0-.4.78,1,1,0,0,0,1.06,1"/><path class="cls-38" d="M28.93,35.43a1,1,0,1,0,0-2,1.07,1.07,0,0,0-.66.22,1,1,0,0,0-.4.78A1,1,0,0,0,28.93,35.43Z"/><path class="cls-3" d="M28.38,34.77c0-.08,0-.08.06-.05a.17.17,0,0,1,0,.17s-.07-.12-.1-.12"/><path class="cls-2" d="M27.78,34.52c.32.64-.52,1.34-1.33.85-.38-.21-.35-.3-.46-.55a3.79,3.79,0,0,0-.15-.86c.08-.05.16-.24.26-.23.38-.17.79.07,1.14.19a.83.83,0,0,1,.54.6"/><path class="cls-39" d="M27.78,34.51c.32.65-.52,1.35-1.33.86-.38-.21-.35-.3-.46-.55a3.79,3.79,0,0,0-.15-.86c.08-.05.16-.24.26-.23.37-.17.79.07,1.14.19A.83.83,0,0,1,27.78,34.51Z"/><path class="cls-3" d="M30.62,21.07l.23-.15,0,0,0,0v0a.14.14,0,0,0,.06.12.48.48,0,0,0,.18,0,.36.36,0,0,0,.19-.05.13.13,0,0,0,.07-.12.14.14,0,0,0,0-.07.2.2,0,0,0-.07-.06l-.14,0-.13,0a.66.66,0,0,1-.25-.11.24.24,0,0,1-.07-.18.23.23,0,0,1,.11-.21.48.48,0,0,1,.3-.08.77.77,0,0,1,.27,0,.74.74,0,0,1,.2.16l-.18.15-.05,0v0s0-.07-.07-.1a.31.31,0,0,0-.17,0,.25.25,0,0,0-.16,0,.09.09,0,0,0-.05.09c0,.06.07.11.23.14l.09,0a.67.67,0,0,1,.28.12.26.26,0,0,1,.09.21.33.33,0,0,1-.13.25.61.61,0,0,1-.35.09.58.58,0,0,1-.28-.06.53.53,0,0,1-.21-.21m-.76-.14-.08.22,0,0v0s0,0,0,0l0,0v.07h-.29v-.07l0,0,0-.06.37-.9h.22l.37.9h0a.14.14,0,0,0,.06.07v.07h-.34v-.07h0l0,0h0l-.1-.26Zm.32-.13-.13-.35-.14.35Zm-1.92.52v-.07s.06,0,.07-.1h0l.12-.71v-.05s0,0,0,0h-.05v-.06h.31l.18.53.22-.53h.3v.06a.05.05,0,0,0,0,0s0,0,0,0v0h0l.12.75a.08.08,0,0,0,0,.06l0,0v.07h-.33v-.07l.05,0s0,0,0,0v0h0l-.11-.67-.24.58H28.8l-.2-.58-.11.65v.05s0,0,0,0h0v.07Zm-1,0v-.07l0,0a.07.07,0,0,0,0-.05v-.77s0-.05,0-.06h0v-.07h.52a.47.47,0,0,1,.28.08.23.23,0,0,1,.1.2.33.33,0,0,1-.06.19.31.31,0,0,1-.18.09l.22.35.05.06.05,0v.06H28l-.28-.46h-.16v.28a.55.55,0,0,0,0,.09l.05,0v.07Zm.28-.58h.12a.49.49,0,0,0,.23,0,.17.17,0,0,0,0-.26.25.25,0,0,0-.16,0h-.19Zm-1.08.19-.09.22s0,0,0,0v0s0,0,0,0l0,0v.07h-.29v-.07l0,0a.09.09,0,0,0,0-.06l.37-.9h.22l.36.9h0a.09.09,0,0,0,.06.07v.07H26.9v-.07h0l0,0h0l-.1-.26Zm.32-.13-.14-.35-.13.35Z"/><polyline class="cls-2" points="17.06 23.07 27.37 23.07 27.37 25.17 17.06 25.17 18.26 24.12 17.06 23.07"/><polygon class="cls-6" points="17.06 23.07 27.37 23.07 27.37 25.17 17.06 25.17 18.26 24.12 17.06 23.07"/><path class="cls-3" d="M25.65,23.71l0,0h0V23.6h.34v.06h-.05v0l0,0,.21.34.19-.33a0,0,0,0,0,0,0h0s0,0,0,0h-.05V23.6h.32v.06l-.06,0,0,.05-.28.49v.29a.07.07,0,0,0,0,0l.05,0v.06h-.34v-.06s.05,0,.05,0a.08.08,0,0,0,0-.06v-.27l-.33-.52m-1.95.93v-.06s.05,0,.05,0a.08.08,0,0,0,0-.06v-.77a.08.08,0,0,0,0-.05s0,0-.05,0V23.6h.52a.45.45,0,0,1,.28.07.25.25,0,0,1,.11.21.29.29,0,0,1-.07.18.32.32,0,0,1-.18.1l.23.35,0,0,.06,0v.06h-.27l-.28-.46H24v.29a.22.22,0,0,0,0,.09l.05,0v.06Zm.28-.58h.12a.45.45,0,0,0,.24,0,.14.14,0,0,0,.06-.13.14.14,0,0,0-.06-.12.29.29,0,0,0-.17-.05H24Zm-1.08.2-.08.21a0,0,0,0,0,0,0,0,0,0,0,0,0,0l0,0,0,0v.06h-.29v-.06s0,0,0,0a.11.11,0,0,0,0-.05l.37-.9h.22l.37.9h0a.16.16,0,0,0,.07.07v.06h-.34v-.06l0,0s0,0,0,0h0v0l-.09-.25Zm.32-.14-.13-.34-.14.34Zm-.68.52-.24,0h-.13a1.09,1.09,0,0,1-.28,0,.51.51,0,0,1-.21-.1.49.49,0,0,1-.16-.19.55.55,0,0,1-.06-.26.48.48,0,0,1,.15-.37.58.58,0,0,1,.41-.15.71.71,0,0,1,.26,0,.68.68,0,0,1,.22.12l-.2.19-.06,0a0,0,0,0,1,0,0v0a.09.09,0,0,0-.06-.08.29.29,0,0,0-.16,0,.34.34,0,0,0-.26.1.4.4,0,0,0-.09.27.42.42,0,0,0,.14.33.52.52,0,0,0,.36.12h.1v-.34a.43.43,0,0,0,0-.05l-.06,0v-.06h.33v.06s0,0,0,0a.08.08,0,0,0,0,.05v.32a.35.35,0,0,0,0,.06h.05Zm-2.37-.52a.51.51,0,0,1,.17-.39.61.61,0,0,1,.43-.16.57.57,0,0,1,.42.16.49.49,0,0,1,.16.38.51.51,0,0,1-.16.4.61.61,0,0,1-.43.16.57.57,0,0,1-.43-.16A.5.5,0,0,1,20.17,24.12Zm.6-.41a.33.33,0,0,0-.27.11.5.5,0,0,0,0,.6.36.36,0,0,0,.26.11.37.37,0,0,0,.27-.11.49.49,0,0,0,.09-.3.5.5,0,0,0-.09-.31A.33.33,0,0,0,20.77,23.71ZM19,24.64v-.06s.05,0,.05,0a.08.08,0,0,0,0-.06v-.77a.08.08,0,0,0,0-.05s0,0-.05,0V23.6h.35v.06l0,0a.07.07,0,0,0,0,.05V24h.51v-.27a.07.07,0,0,0,0-.05l-.05,0V23.6h.34v.06l0,0a.07.07,0,0,0,0,.05v.78a.07.07,0,0,0,0,0l0,0v.06h-.34v-.06l.05,0s0,0,0-.06v-.37h-.51v.38a.07.07,0,0,0,0,0l0,0v.06Z"/><polyline class="cls-2" points="36.18 26.48 36.18 26.38 36.27 26.38 36.27 26.48 36.4 26.48 36.4 26.56 36.27 26.56 36.27 26.77 36.18 26.77 36.18 26.56 36.05 26.56 36.05 26.48 36.18 26.48"/><polygon class="cls-40" points="36.18 26.48 36.18 26.38 36.27 26.38 36.27 26.48 36.4 26.48 36.4 26.56 36.27 26.56 36.27 26.77 36.18 26.77 36.18 26.56 36.05 26.56 36.05 26.48 36.18 26.48"/></svg>